{"glyphs":{"0":{"ha":926,"x_min":0,"x_max":846,"o":"m 154 1117 l 692 1117 l 692 963 l 846 963 l 846 154 l 692 154 l 692 0 l 154 0 l 154 154 l 0 154 l 0 963 l 154 963 l 154 1117 m 209 936 l 209 491 l 327 491 l 327 645 l 481 645 l 481 799 l 635 799 l 635 936 l 209 936 m 518 627 l 518 473 l 364 473 l 364 318 l 209 318 l 209 182 l 635 182 l 635 627 l 518 627 z "},"1":{"ha":926,"x_min":0,"x_max":846,"o":"m 309 1117 l 537 1117 l 537 192 l 846 192 l 846 0 l 0 0 l 0 192 l 309 192 l 309 772 l 229 772 l 229 617 l 0 617 l 0 809 l 154 809 l 154 963 l 309 963 l 309 1117 z "},"2":{"ha":926,"x_min":0,"x_max":846,"o":"m 154 1117 l 692 1117 l 692 963 l 846 963 l 846 617 l 692 617 l 692 463 l 537 463 l 537 309 l 383 309 l 383 192 l 846 192 l 846 0 l 0 0 l 0 192 l 154 192 l 154 346 l 309 346 l 309 500 l 463 500 l 463 654 l 617 654 l 617 926 l 229 926 l 229 772 l 0 772 l 0 963 l 154 963 l 154 1117 z "},"3":{"ha":926,"x_min":0,"x_max":846,"o":"m 154 1117 l 692 1117 l 692 963 l 846 963 l 846 617 l 692 617 l 692 500 l 846 500 l 846 154 l 692 154 l 692 0 l 154 0 l 154 154 l 0 154 l 0 346 l 229 346 l 229 192 l 617 192 l 617 463 l 309 463 l 309 654 l 617 654 l 617 926 l 229 926 l 229 772 l 0 772 l 0 963 l 154 963 l 154 1117 z "},"4":{"ha":926,"x_min":0,"x_max":846,"o":"m 309 1117 l 692 1117 l 692 654 l 846 654 l 846 463 l 692 463 l 692 0 l 463 0 l 463 463 l 0 463 l 0 809 l 154 809 l 154 963 l 309 963 l 309 1117 m 364 936 l 364 781 l 209 781 l 209 645 l 481 645 l 481 936 l 364 936 z "},"5":{"ha":926,"x_min":0,"x_max":846,"o":"m 0 1117 l 846 1117 l 846 926 l 229 926 l 229 809 l 692 809 l 692 654 l 846 654 l 846 154 l 692 154 l 692 0 l 154 0 l 154 154 l 0 154 l 0 346 l 229 346 l 229 192 l 617 192 l 617 617 l 0 617 l 0 1117 z "},"6":{"ha":926,"x_min":0,"x_max":846,"o":"m 309 1117 l 692 1117 l 692 926 l 383 926 l 383 772 l 229 772 l 229 654 l 692 654 l 692 500 l 846 500 l 846 154 l 692 154 l 692 0 l 154 0 l 154 154 l 0 154 l 0 809 l 154 809 l 154 963 l 309 963 l 309 1117 m 209 473 l 209 182 l 635 182 l 635 473 l 209 473 z "},"7":{"ha":926,"x_min":0,"x_max":846,"o":"m 0 1117 l 846 1117 l 846 617 l 692 617 l 692 309 l 537 309 l 537 0 l 309 0 l 309 346 l 463 346 l 463 654 l 617 654 l 617 926 l 229 926 l 229 772 l 0 772 l 0 1117 z "},"8":{"ha":926,"x_min":0,"x_max":846,"o":"m 154 1117 l 692 1117 l 692 963 l 846 963 l 846 617 l 692 617 l 692 500 l 846 500 l 846 154 l 692 154 l 692 0 l 154 0 l 154 154 l 0 154 l 0 500 l 154 500 l 154 617 l 0 617 l 0 963 l 154 963 l 154 1117 m 209 936 l 209 645 l 635 645 l 635 936 l 209 936 m 209 473 l 209 182 l 635 182 l 635 473 l 209 473 z "},"9":{"ha":926,"x_min":0,"x_max":846,"o":"m 154 1117 l 692 1117 l 692 963 l 846 963 l 846 309 l 692 309 l 692 154 l 537 154 l 537 0 l 154 0 l 154 192 l 463 192 l 463 346 l 617 346 l 617 463 l 154 463 l 154 617 l 0 617 l 0 963 l 154 963 l 154 1117 m 209 936 l 209 645 l 635 645 l 635 936 l 209 936 z "},"\u0000":{"ha":926,"x_min":0,"x_max":846,"o":"m 309 1117 l 537 1117 l 537 963 l 692 963 l 692 809 l 846 809 l 846 154 l 692 154 l 692 0 l 537 0 l 537 -154 l 309 -154 l 309 0 l 154 0 l 154 154 l 0 154 l 0 809 l 154 809 l 154 963 l 309 963 l 309 1117 m 364 936 l 364 799 l 481 799 l 481 936 l 364 936 m 209 781 l 209 645 l 327 645 l 327 781 l 209 781 m 518 781 l 518 491 l 635 491 l 635 781 l 518 781 m 364 473 l 364 336 l 481 336 l 481 473 l 364 473 m 364 164 l 364 28 l 481 28 l 481 164 l 364 164 z "},"✅":{"ha":1852,"x_min":154,"x_max":1618,"o":"m 309 1272 l 1463 1272 l 1463 1117 l 1618 1117 l 1618 0 l 1463 0 l 1463 -154 l 309 -154 l 309 0 l 154 0 l 154 1117 l 309 1117 l 309 1272 m 1135 1090 l 1135 936 l 981 936 l 981 627 l 827 627 l 827 318 l 635 318 l 635 473 l 518 473 l 518 182 l 672 182 l 672 28 l 790 28 l 790 182 l 944 182 l 944 491 l 1098 491 l 1098 799 l 1252 799 l 1252 1090 l 1135 1090 z "},"✌":{"ha":926,"x_min":0,"x_max":846,"o":"m 154 963 l 383 963 l 383 654 l 463 654 l 463 963 l 692 963 l 692 617 l 537 617 l 537 500 l 846 500 l 846 154 l 692 154 l 692 0 l 154 0 l 154 154 l 0 154 l 0 654 l 154 654 l 154 963 m 364 473 l 364 336 l 481 336 l 481 473 l 364 473 m 518 318 l 518 182 l 635 182 l 635 318 l 518 318 z "},"✓":{"ha":926,"x_min":0,"x_max":846,"o":"m 617 1117 l 846 1117 l 846 926 l 692 926 l 692 617 l 537 617 l 537 309 l 383 309 l 383 0 l 154 0 l 154 309 l 0 309 l 0 500 l 229 500 l 229 346 l 309 346 l 309 654 l 463 654 l 463 963 l 617 963 l 617 1117 z "},"✔":{"ha":926,"x_min":0,"x_max":846,"o":"m 617 1117 l 846 1117 l 846 772 l 692 772 l 692 463 l 537 463 l 537 154 l 383 154 l 383 0 l 154 0 l 154 154 l 0 154 l 0 500 l 229 500 l 229 346 l 309 346 l 309 654 l 463 654 l 463 963 l 617 963 l 617 1117 z "},"✕":{"ha":926,"x_min":0,"x_max":846,"o":"m 0 809 l 229 809 l 229 654 l 383 654 l 383 500 l 463 500 l 463 654 l 617 654 l 617 809 l 846 809 l 846 617 l 692 617 l 692 463 l 537 463 l 537 346 l 692 346 l 692 192 l 846 192 l 846 0 l 617 0 l 617 154 l 463 154 l 463 309 l 383 309 l 383 154 l 229 154 l 229 0 l 0 0 l 0 192 l 154 192 l 154 346 l 309 346 l 309 463 l 154 463 l 154 617 l 0 617 l 0 809 z "},"✖":{"ha":926,"x_min":0,"x_max":846,"o":"m 0 1117 l 229 1117 l 229 963 l 383 963 l 383 809 l 463 809 l 463 963 l 617 963 l 617 1117 l 846 1117 l 846 772 l 692 772 l 692 617 l 537 617 l 537 500 l 692 500 l 692 346 l 846 346 l 846 0 l 617 0 l 617 154 l 463 154 l 463 309 l 383 309 l 383 154 l 229 154 l 229 0 l 0 0 l 0 346 l 154 346 l 154 500 l 309 500 l 309 617 l 154 617 l 154 772 l 0 772 l 0 1117 z "},"✗":{"ha":926,"x_min":0,"x_max":846,"o":"m 617 1117 l 846 1117 l 846 926 l 692 926 l 692 617 l 537 617 l 537 500 l 692 500 l 692 346 l 846 346 l 846 154 l 617 154 l 617 309 l 463 309 l 463 463 l 383 463 l 383 154 l 229 154 l 229 0 l 0 0 l 0 192 l 154 192 l 154 500 l 309 500 l 309 617 l 154 617 l 154 772 l 0 772 l 0 963 l 229 963 l 229 809 l 383 809 l 383 654 l 463 654 l 463 963 l 617 963 l 617 1117 z "},"✘":{"ha":926,"x_min":0,"x_max":846,"o":"m 617 1117 l 846 1117 l 846 772 l 692 772 l 692 617 l 537 617 l 537 500 l 692 500 l 692 346 l 846 346 l 846 154 l 463 154 l 463 309 l 383 309 l 383 154 l 229 154 l 229 0 l 0 0 l 0 346 l 154 346 l 154 500 l 309 500 l 309 617 l 154 617 l 154 772 l 0 772 l 0 963 l 383 963 l 383 809 l 463 809 l 463 963 l 617 963 l 617 1117 z "},"✨":{"ha":1852,"x_min":0,"x_max":1772,"o":"m 463 1272 l 692 1272 l 692 1117 l 846 1117 l 846 926 l 692 926 l 692 772 l 463 772 l 463 926 l 309 926 l 309 1117 l 463 1117 l 463 1272 m 1080 1117 l 1309 1117 l 1309 809 l 1463 809 l 1463 654 l 1772 654 l 1772 463 l 1463 463 l 1463 309 l 1309 309 l 1309 0 l 1080 0 l 1080 309 l 926 309 l 926 463 l 617 463 l 617 654 l 926 654 l 926 809 l 1080 809 l 1080 1117 m 518 1090 l 518 953 l 635 953 l 635 1090 l 518 1090 m 1135 781 l 1135 627 l 981 627 l 981 491 l 1135 491 l 1135 336 l 1252 336 l 1252 491 l 1407 491 l 1407 627 l 1252 627 l 1252 781 l 1135 781 m 309 500 l 537 500 l 537 192 l 846 192 l 846 0 l 537 0 l 537 -309 l 309 -309 l 309 0 l 0 0 l 0 192 l 309 192 l 309 500 m 364 164 l 364 28 l 481 28 l 481 164 l 364 164 z "},"❌":{"ha":1852,"x_min":154,"x_max":1618,"o":"m 154 1272 l 537 1272 l 537 1117 l 692 1117 l 692 963 l 846 963 l 846 809 l 926 809 l 926 963 l 1080 963 l 1080 1117 l 1235 1117 l 1235 1272 l 1618 1272 l 1618 926 l 1463 926 l 1463 772 l 1309 772 l 1309 617 l 1155 617 l 1155 500 l 1309 500 l 1309 346 l 1463 346 l 1463 192 l 1618 192 l 1618 -154 l 1235 -154 l 1235 0 l 1080 0 l 1080 154 l 926 154 l 926 309 l 846 309 l 846 154 l 692 154 l 692 0 l 537 0 l 537 -154 l 154 -154 l 154 192 l 309 192 l 309 346 l 463 346 l 463 500 l 617 500 l 617 617 l 463 617 l 463 772 l 309 772 l 309 926 l 154 926 l 154 1272 z "},"❎":{"ha":1852,"x_min":154,"x_max":1618,"o":"m 309 1272 l 1463 1272 l 1463 1117 l 1618 1117 l 1618 0 l 1463 0 l 1463 -154 l 309 -154 l 309 0 l 154 0 l 154 1117 l 309 1117 l 309 1272 m 518 1090 l 518 799 l 672 799 l 672 645 l 827 645 l 827 473 l 672 473 l 672 318 l 518 318 l 518 28 l 635 28 l 635 182 l 790 182 l 790 336 l 981 336 l 981 182 l 1135 182 l 1135 28 l 1252 28 l 1252 318 l 1098 318 l 1098 473 l 944 473 l 944 645 l 1098 645 l 1098 799 l 1252 799 l 1252 1090 l 1135 1090 l 1135 936 l 981 936 l 981 781 l 790 781 l 790 936 l 635 936 l 635 1090 l 518 1090 z "},"❏":{"ha":926,"x_min":0,"x_max":846,"o":"m 0 809 l 692 809 l 692 654 l 846 654 l 846 0 l 154 0 l 154 154 l 0 154 l 0 809 m 209 627 l 209 336 l 481 336 l 481 627 l 209 627 z "},"❐":{"ha":926,"x_min":0,"x_max":846,"o":"m 154 809 l 846 809 l 846 154 l 692 154 l 692 0 l 0 0 l 0 654 l 154 654 l 154 809 m 209 473 l 209 182 l 481 182 l 481 473 l 209 473 z "},"❛":{"ha":926,"x_min":154,"x_max":692,"o":"m 309 1117 l 537 1117 l 537 926 l 383 926 l 383 809 l 692 809 l 692 463 l 309 463 l 309 617 l 154 617 l 154 963 l 309 963 l 309 1117 z "},"❜":{"ha":926,"x_min":154,"x_max":692,"o":"m 154 1117 l 537 1117 l 537 963 l 692 963 l 692 617 l 537 617 l 537 463 l 309 463 l 309 654 l 463 654 l 463 772 l 154 772 l 154 1117 z "},"❝":{"ha":926,"x_min":0,"x_max":846,"o":"m 154 1117 l 383 1117 l 383 926 l 229 926 l 229 809 l 383 809 l 383 463 l 0 463 l 0 963 l 154 963 l 154 1117 m 617 1117 l 846 1117 l 846 926 l 692 926 l 692 809 l 846 809 l 846 463 l 463 463 l 463 963 l 617 963 l 617 1117 z "},"❞":{"ha":926,"x_min":0,"x_max":846,"o":"m 0 1117 l 383 1117 l 383 617 l 229 617 l 229 463 l 0 463 l 0 654 l 154 654 l 154 772 l 0 772 l 0 1117 m 463 1117 l 846 1117 l 846 617 l 692 617 l 692 463 l 463 463 l 463 654 l 617 654 l 617 772 l 463 772 l 463 1117 z "},"❢":{"ha":926,"x_min":154,"x_max":692,"o":"m 309 1117 l 537 1117 l 537 963 l 692 963 l 692 463 l 537 463 l 537 309 l 309 309 l 309 463 l 154 463 l 154 963 l 309 963 l 309 1117 m 309 192 l 537 192 l 537 0 l 309 0 l 309 192 z "},"❣":{"ha":926,"x_min":0,"x_max":846,"o":"m 154 963 l 383 963 l 383 809 l 463 809 l 463 963 l 692 963 l 692 809 l 846 809 l 846 617 l 692 617 l 692 463 l 537 463 l 537 309 l 309 309 l 309 463 l 154 463 l 154 617 l 0 617 l 0 809 l 154 809 l 154 963 m 309 192 l 537 192 l 537 0 l 309 0 l 309 192 z "},"❤":{"ha":926,"x_min":0,"x_max":846,"o":"m 154 963 l 383 963 l 383 809 l 463 809 l 463 963 l 692 963 l 692 809 l 846 809 l 846 463 l 692 463 l 692 309 l 537 309 l 537 154 l 309 154 l 309 309 l 154 309 l 154 463 l 0 463 l 0 809 l 154 809 l 154 963 z "},"❥":{"ha":926,"x_min":0,"x_max":846,"o":"m 154 963 l 537 963 l 537 809 l 692 809 l 692 654 l 846 654 l 846 463 l 692 463 l 692 309 l 537 309 l 537 154 l 154 154 l 154 309 l 0 309 l 0 500 l 154 500 l 154 617 l 0 617 l 0 809 l 154 809 l 154 963 z "},"❨":{"ha":926,"x_min":154,"x_max":846,"o":"m 463 1117 l 846 1117 l 846 926 l 692 926 l 692 772 l 537 772 l 537 346 l 692 346 l 692 192 l 846 192 l 846 0 l 463 0 l 463 154 l 309 154 l 309 309 l 154 309 l 154 809 l 309 809 l 309 963 l 463 963 l 463 1117 z "},"❩":{"ha":926,"x_min":0,"x_max":692,"o":"m 0 1117 l 383 1117 l 383 963 l 537 963 l 537 809 l 692 809 l 692 309 l 537 309 l 537 154 l 383 154 l 383 0 l 0 0 l 0 192 l 154 192 l 154 346 l 309 346 l 309 772 l 154 772 l 154 926 l 0 926 l 0 1117 z "},"❪":{"ha":926,"x_min":154,"x_max":846,"o":"m 463 1117 l 846 1117 l 846 926 l 692 926 l 692 617 l 537 617 l 537 500 l 692 500 l 692 192 l 846 192 l 846 0 l 463 0 l 463 154 l 309 154 l 309 309 l 154 309 l 154 809 l 309 809 l 309 963 l 463 963 l 463 1117 z "},"❫":{"ha":926,"x_min":0,"x_max":692,"o":"m 0 1117 l 383 1117 l 383 963 l 537 963 l 537 809 l 692 809 l 692 309 l 537 309 l 537 154 l 383 154 l 383 0 l 0 0 l 0 192 l 154 192 l 154 500 l 309 500 l 309 617 l 154 617 l 154 926 l 0 926 l 0 1117 z "},"❬":{"ha":926,"x_min":0,"x_max":692,"o":"m 463 1117 l 692 1117 l 692 926 l 537 926 l 537 617 l 383 617 l 383 500 l 537 500 l 537 192 l 692 192 l 692 0 l 463 0 l 463 154 l 309 154 l 309 309 l 154 309 l 154 463 l 0 463 l 0 654 l 154 654 l 154 809 l 309 809 l 309 963 l 463 963 l 463 1117 z "},"❭":{"ha":926,"x_min":154,"x_max":846,"o":"m 154 1117 l 383 1117 l 383 963 l 537 963 l 537 809 l 692 809 l 692 654 l 846 654 l 846 463 l 692 463 l 692 309 l 537 309 l 537 154 l 383 154 l 383 0 l 154 0 l 154 192 l 309 192 l 309 500 l 463 500 l 463 617 l 309 617 l 309 926 l 154 926 l 154 1117 z "},"❮":{"ha":926,"x_min":0,"x_max":846,"o":"m 463 1117 l 846 1117 l 846 926 l 692 926 l 692 772 l 537 772 l 537 617 l 383 617 l 383 500 l 537 500 l 537 346 l 692 346 l 692 192 l 846 192 l 846 0 l 463 0 l 463 154 l 309 154 l 309 309 l 154 309 l 154 463 l 0 463 l 0 654 l 154 654 l 154 809 l 309 809 l 309 963 l 463 963 l 463 1117 z "},"❯":{"ha":926,"x_min":0,"x_max":846,"o":"m 0 1117 l 383 1117 l 383 963 l 537 963 l 537 809 l 692 809 l 692 654 l 846 654 l 846 463 l 692 463 l 692 309 l 537 309 l 537 154 l 383 154 l 383 0 l 0 0 l 0 192 l 154 192 l 154 346 l 309 346 l 309 500 l 463 500 l 463 617 l 309 617 l 309 772 l 154 772 l 154 926 l 0 926 l 0 1117 z "},"❰":{"ha":926,"x_min":0,"x_max":846,"o":"m 463 1117 l 846 1117 l 846 926 l 692 926 l 692 617 l 537 617 l 537 500 l 692 500 l 692 192 l 846 192 l 846 0 l 463 0 l 463 154 l 309 154 l 309 309 l 154 309 l 154 463 l 0 463 l 0 654 l 154 654 l 154 809 l 309 809 l 309 963 l 463 963 l 463 1117 z "},"❱":{"ha":926,"x_min":0,"x_max":846,"o":"m 0 1117 l 383 1117 l 383 963 l 537 963 l 537 809 l 692 809 l 692 654 l 846 654 l 846 463 l 692 463 l 692 309 l 537 309 l 537 154 l 383 154 l 383 0 l 0 0 l 0 192 l 154 192 l 154 500 l 309 500 l 309 617 l 154 617 l 154 926 l 0 926 l 0 1117 z "},"❲":{"ha":926,"x_min":154,"x_max":692,"o":"m 463 1117 l 692 1117 l 692 926 l 537 926 l 537 772 l 383 772 l 383 346 l 537 346 l 537 192 l 692 192 l 692 0 l 463 0 l 463 154 l 309 154 l 309 309 l 154 309 l 154 809 l 309 809 l 309 963 l 463 963 l 463 1117 z "},"❳":{"ha":926,"x_min":154,"x_max":692,"o":"m 154 1117 l 383 1117 l 383 963 l 537 963 l 537 809 l 692 809 l 692 309 l 537 309 l 537 154 l 383 154 l 383 0 l 154 0 l 154 192 l 309 192 l 309 346 l 463 346 l 463 772 l 309 772 l 309 926 l 154 926 l 154 1117 z "},"❴":{"ha":926,"x_min":154,"x_max":846,"o":"m 463 1117 l 846 1117 l 846 926 l 692 926 l 692 192 l 846 192 l 846 0 l 463 0 l 463 154 l 309 154 l 309 463 l 154 463 l 154 654 l 309 654 l 309 963 l 463 963 l 463 1117 z "},"❵":{"ha":926,"x_min":0,"x_max":692,"o":"m 0 1117 l 383 1117 l 383 963 l 537 963 l 537 654 l 692 654 l 692 463 l 537 463 l 537 154 l 383 154 l 383 0 l 0 0 l 0 192 l 154 192 l 154 926 l 0 926 l 0 1117 z "},"❶":{"ha":926,"x_min":0,"x_max":846,"o":"m 154 1117 l 692 1117 l 692 963 l 846 963 l 846 154 l 692 154 l 692 0 l 154 0 l 154 154 l 0 154 l 0 963 l 154 963 l 154 1117 m 364 936 l 364 781 l 209 781 l 209 645 l 364 645 l 364 318 l 209 318 l 209 182 l 635 182 l 635 318 l 481 318 l 481 936 l 364 936 z "},"❷":{"ha":926,"x_min":0,"x_max":846,"o":"m 154 1117 l 692 1117 l 692 963 l 846 963 l 846 154 l 692 154 l 692 0 l 154 0 l 154 154 l 0 154 l 0 963 l 154 963 l 154 1117 m 209 936 l 209 799 l 481 799 l 481 936 l 209 936 m 518 781 l 518 645 l 635 645 l 635 781 l 518 781 m 364 627 l 364 491 l 481 491 l 481 627 l 364 627 m 209 473 l 209 182 l 635 182 l 635 318 l 327 318 l 327 473 l 209 473 z "},"❸":{"ha":926,"x_min":0,"x_max":846,"o":"m 154 1117 l 692 1117 l 692 963 l 846 963 l 846 154 l 692 154 l 692 0 l 154 0 l 154 154 l 0 154 l 0 963 l 154 963 l 154 1117 m 209 936 l 209 799 l 481 799 l 481 936 l 209 936 m 518 781 l 518 645 l 635 645 l 635 781 l 518 781 m 364 627 l 364 491 l 481 491 l 481 627 l 364 627 m 518 473 l 518 336 l 635 336 l 635 473 l 518 473 m 209 318 l 209 182 l 481 182 l 481 318 l 209 318 z "},"❹":{"ha":926,"x_min":0,"x_max":846,"o":"m 154 1117 l 692 1117 l 692 963 l 846 963 l 846 154 l 692 154 l 692 0 l 154 0 l 154 154 l 0 154 l 0 963 l 154 963 l 154 1117 m 209 936 l 209 491 l 518 491 l 518 182 l 635 182 l 635 936 l 518 936 l 518 627 l 327 627 l 327 936 l 209 936 z "},"❺":{"ha":926,"x_min":0,"x_max":846,"o":"m 154 1117 l 692 1117 l 692 963 l 846 963 l 846 154 l 692 154 l 692 0 l 154 0 l 154 154 l 0 154 l 0 963 l 154 963 l 154 1117 m 209 936 l 209 491 l 518 491 l 518 336 l 635 336 l 635 627 l 327 627 l 327 799 l 635 799 l 635 936 l 209 936 m 209 318 l 209 182 l 481 182 l 481 318 l 209 318 z "},"❻":{"ha":926,"x_min":0,"x_max":846,"o":"m 154 1117 l 692 1117 l 692 963 l 846 963 l 846 154 l 692 154 l 692 0 l 154 0 l 154 154 l 0 154 l 0 963 l 154 963 l 154 1117 m 364 936 l 364 799 l 635 799 l 635 936 l 364 936 m 209 781 l 209 336 l 327 336 l 327 491 l 481 491 l 481 627 l 327 627 l 327 781 l 209 781 m 518 473 l 518 336 l 635 336 l 635 473 l 518 473 m 364 318 l 364 182 l 481 182 l 481 318 l 364 318 z "},"❼":{"ha":926,"x_min":0,"x_max":846,"o":"m 154 1117 l 692 1117 l 692 963 l 846 963 l 846 154 l 692 154 l 692 0 l 154 0 l 154 154 l 0 154 l 0 963 l 154 963 l 154 1117 m 209 936 l 209 799 l 518 799 l 518 645 l 635 645 l 635 936 l 209 936 m 364 627 l 364 182 l 481 182 l 481 627 l 364 627 z "},"❽":{"ha":926,"x_min":0,"x_max":846,"o":"m 154 1117 l 692 1117 l 692 963 l 846 963 l 846 154 l 692 154 l 692 0 l 154 0 l 154 154 l 0 154 l 0 963 l 154 963 l 154 1117 m 364 936 l 364 799 l 481 799 l 481 936 l 364 936 m 209 781 l 209 645 l 327 645 l 327 781 l 209 781 m 518 781 l 518 645 l 635 645 l 635 781 l 518 781 m 364 627 l 364 491 l 481 491 l 481 627 l 364 627 m 209 473 l 209 336 l 327 336 l 327 473 l 209 473 m 518 473 l 518 336 l 635 336 l 635 473 l 518 473 m 364 318 l 364 182 l 481 182 l 481 318 l 364 318 z "},"❾":{"ha":926,"x_min":0,"x_max":846,"o":"m 154 1117 l 692 1117 l 692 963 l 846 963 l 846 154 l 692 154 l 692 0 l 154 0 l 154 154 l 0 154 l 0 963 l 154 963 l 154 1117 m 364 936 l 364 799 l 481 799 l 481 936 l 364 936 m 209 781 l 209 645 l 327 645 l 327 781 l 209 781 m 518 781 l 518 627 l 364 627 l 364 491 l 518 491 l 518 336 l 635 336 l 635 781 l 518 781 m 209 318 l 209 182 l 481 182 l 481 318 l 209 318 z "},"❿":{"ha":926,"x_min":0,"x_max":846,"o":"m 0 963 l 229 963 l 229 154 l 0 154 l 0 963 m 463 963 l 692 963 l 692 809 l 846 809 l 846 309 l 692 309 l 692 154 l 463 154 l 463 309 l 309 309 l 309 809 l 463 809 l 463 963 m 518 781 l 518 336 l 635 336 l 635 781 l 518 781 z "},"➀":{"ha":926,"x_min":154,"x_max":692,"o":"m 309 963 l 537 963 l 537 346 l 692 346 l 692 154 l 154 154 l 154 346 l 309 346 l 309 617 l 154 617 l 154 809 l 309 809 l 309 963 z "},"➁":{"ha":926,"x_min":154,"x_max":692,"o":"m 154 963 l 537 963 l 537 809 l 692 809 l 692 617 l 537 617 l 537 463 l 383 463 l 383 346 l 692 346 l 692 154 l 154 154 l 154 500 l 309 500 l 309 654 l 463 654 l 463 772 l 154 772 l 154 963 z "},"➂":{"ha":926,"x_min":154,"x_max":692,"o":"m 154 963 l 537 963 l 537 809 l 692 809 l 692 617 l 537 617 l 537 500 l 692 500 l 692 309 l 537 309 l 537 154 l 154 154 l 154 346 l 463 346 l 463 463 l 309 463 l 309 654 l 463 654 l 463 772 l 154 772 l 154 963 z "},"➃":{"ha":926,"x_min":154,"x_max":692,"o":"m 154 963 l 383 963 l 383 654 l 463 654 l 463 963 l 692 963 l 692 154 l 463 154 l 463 463 l 154 463 l 154 963 z "},"➄":{"ha":926,"x_min":154,"x_max":692,"o":"m 154 963 l 692 963 l 692 772 l 383 772 l 383 654 l 692 654 l 692 309 l 537 309 l 537 154 l 154 154 l 154 346 l 463 346 l 463 463 l 154 463 l 154 963 z "},"➅":{"ha":926,"x_min":154,"x_max":692,"o":"m 309 963 l 692 963 l 692 772 l 383 772 l 383 654 l 537 654 l 537 500 l 692 500 l 692 309 l 537 309 l 537 154 l 309 154 l 309 309 l 154 309 l 154 809 l 309 809 l 309 963 m 364 473 l 364 336 l 481 336 l 481 473 l 364 473 z "},"➆":{"ha":926,"x_min":154,"x_max":692,"o":"m 154 963 l 692 963 l 692 617 l 537 617 l 537 154 l 309 154 l 309 654 l 463 654 l 463 772 l 154 772 l 154 963 z "},"➇":{"ha":926,"x_min":154,"x_max":692,"o":"m 309 963 l 537 963 l 537 809 l 692 809 l 692 617 l 537 617 l 537 500 l 692 500 l 692 309 l 537 309 l 537 154 l 309 154 l 309 309 l 154 309 l 154 500 l 309 500 l 309 617 l 154 617 l 154 809 l 309 809 l 309 963 m 364 781 l 364 645 l 481 645 l 481 781 l 364 781 m 364 473 l 364 336 l 481 336 l 481 473 l 364 473 z "},"➈":{"ha":926,"x_min":154,"x_max":692,"o":"m 309 963 l 537 963 l 537 809 l 692 809 l 692 309 l 537 309 l 537 154 l 154 154 l 154 346 l 463 346 l 463 463 l 309 463 l 309 617 l 154 617 l 154 809 l 309 809 l 309 963 m 364 781 l 364 645 l 481 645 l 481 781 l 364 781 z "},"➉":{"ha":926,"x_min":0,"x_max":846,"o":"m 0 963 l 229 963 l 229 154 l 0 154 l 0 963 m 463 963 l 692 963 l 692 809 l 846 809 l 846 309 l 692 309 l 692 154 l 463 154 l 463 309 l 309 309 l 309 809 l 463 809 l 463 963 m 518 781 l 518 336 l 635 336 l 635 781 l 518 781 z "},"➊":{"ha":926,"x_min":0,"x_max":846,"o":"m 154 1117 l 692 1117 l 692 963 l 846 963 l 846 154 l 692 154 l 692 0 l 154 0 l 154 154 l 0 154 l 0 963 l 154 963 l 154 1117 m 364 936 l 364 781 l 209 781 l 209 645 l 364 645 l 364 318 l 209 318 l 209 182 l 635 182 l 635 318 l 481 318 l 481 936 l 364 936 z "},"➋":{"ha":926,"x_min":0,"x_max":846,"o":"m 154 1117 l 692 1117 l 692 963 l 846 963 l 846 154 l 692 154 l 692 0 l 154 0 l 154 154 l 0 154 l 0 963 l 154 963 l 154 1117 m 209 936 l 209 799 l 481 799 l 481 936 l 209 936 m 518 781 l 518 645 l 635 645 l 635 781 l 518 781 m 364 627 l 364 491 l 481 491 l 481 627 l 364 627 m 209 473 l 209 182 l 635 182 l 635 318 l 327 318 l 327 473 l 209 473 z "},"➌":{"ha":926,"x_min":0,"x_max":846,"o":"m 154 1117 l 692 1117 l 692 963 l 846 963 l 846 154 l 692 154 l 692 0 l 154 0 l 154 154 l 0 154 l 0 963 l 154 963 l 154 1117 m 209 936 l 209 799 l 481 799 l 481 936 l 209 936 m 518 781 l 518 645 l 635 645 l 635 781 l 518 781 m 364 627 l 364 491 l 481 491 l 481 627 l 364 627 m 518 473 l 518 336 l 635 336 l 635 473 l 518 473 m 209 318 l 209 182 l 481 182 l 481 318 l 209 318 z "},"➍":{"ha":926,"x_min":0,"x_max":846,"o":"m 154 1117 l 692 1117 l 692 963 l 846 963 l 846 154 l 692 154 l 692 0 l 154 0 l 154 154 l 0 154 l 0 963 l 154 963 l 154 1117 m 209 936 l 209 491 l 518 491 l 518 182 l 635 182 l 635 936 l 518 936 l 518 627 l 327 627 l 327 936 l 209 936 z "},"➎":{"ha":926,"x_min":0,"x_max":846,"o":"m 154 1117 l 692 1117 l 692 963 l 846 963 l 846 154 l 692 154 l 692 0 l 154 0 l 154 154 l 0 154 l 0 963 l 154 963 l 154 1117 m 209 936 l 209 491 l 518 491 l 518 336 l 635 336 l 635 627 l 327 627 l 327 799 l 635 799 l 635 936 l 209 936 m 209 318 l 209 182 l 481 182 l 481 318 l 209 318 z "},"➏":{"ha":926,"x_min":0,"x_max":846,"o":"m 154 1117 l 692 1117 l 692 963 l 846 963 l 846 154 l 692 154 l 692 0 l 154 0 l 154 154 l 0 154 l 0 963 l 154 963 l 154 1117 m 364 936 l 364 799 l 635 799 l 635 936 l 364 936 m 209 781 l 209 336 l 327 336 l 327 491 l 481 491 l 481 627 l 327 627 l 327 781 l 209 781 m 518 473 l 518 336 l 635 336 l 635 473 l 518 473 m 364 318 l 364 182 l 481 182 l 481 318 l 364 318 z "},"➐":{"ha":926,"x_min":0,"x_max":846,"o":"m 154 1117 l 692 1117 l 692 963 l 846 963 l 846 154 l 692 154 l 692 0 l 154 0 l 154 154 l 0 154 l 0 963 l 154 963 l 154 1117 m 209 936 l 209 799 l 518 799 l 518 645 l 635 645 l 635 936 l 209 936 m 364 627 l 364 182 l 481 182 l 481 627 l 364 627 z "},"➑":{"ha":926,"x_min":0,"x_max":846,"o":"m 154 1117 l 692 1117 l 692 963 l 846 963 l 846 154 l 692 154 l 692 0 l 154 0 l 154 154 l 0 154 l 0 963 l 154 963 l 154 1117 m 364 936 l 364 799 l 481 799 l 481 936 l 364 936 m 209 781 l 209 645 l 327 645 l 327 781 l 209 781 m 518 781 l 518 645 l 635 645 l 635 781 l 518 781 m 364 627 l 364 491 l 481 491 l 481 627 l 364 627 m 209 473 l 209 336 l 327 336 l 327 473 l 209 473 m 518 473 l 518 336 l 635 336 l 635 473 l 518 473 m 364 318 l 364 182 l 481 182 l 481 318 l 364 318 z "},"➒":{"ha":926,"x_min":0,"x_max":846,"o":"m 154 1117 l 692 1117 l 692 963 l 846 963 l 846 154 l 692 154 l 692 0 l 154 0 l 154 154 l 0 154 l 0 963 l 154 963 l 154 1117 m 364 936 l 364 799 l 481 799 l 481 936 l 364 936 m 209 781 l 209 645 l 327 645 l 327 781 l 209 781 m 518 781 l 518 627 l 364 627 l 364 491 l 518 491 l 518 336 l 635 336 l 635 781 l 518 781 m 209 318 l 209 182 l 481 182 l 481 318 l 209 318 z "},"➓":{"ha":926,"x_min":0,"x_max":846,"o":"m 0 963 l 229 963 l 229 154 l 0 154 l 0 963 m 463 963 l 692 963 l 692 809 l 846 809 l 846 309 l 692 309 l 692 154 l 463 154 l 463 309 l 309 309 l 309 809 l 463 809 l 463 963 m 518 781 l 518 336 l 635 336 l 635 781 l 518 781 z "},"➰":{"ha":1852,"x_min":154,"x_max":1618,"o":"m 309 1117 l 846 1117 l 846 963 l 926 963 l 926 1117 l 1463 1117 l 1463 963 l 1618 963 l 1618 772 l 1389 772 l 1389 926 l 1000 926 l 1000 809 l 1155 809 l 1155 654 l 1309 654 l 1309 154 l 1155 154 l 1155 0 l 617 0 l 617 154 l 463 154 l 463 654 l 617 654 l 617 809 l 772 809 l 772 926 l 383 926 l 383 772 l 154 772 l 154 963 l 309 963 l 309 1117 m 827 781 l 827 627 l 672 627 l 672 182 l 1098 182 l 1098 627 l 944 627 l 944 781 l 827 781 z "},"➿":{"ha":1852,"x_min":0,"x_max":1772,"o":"m 0 1117 l 383 1117 l 383 963 l 463 963 l 463 1117 l 1309 1117 l 1309 963 l 1389 963 l 1389 1117 l 1772 1117 l 1772 926 l 1463 926 l 1463 809 l 1618 809 l 1618 654 l 1772 654 l 1772 154 l 1618 154 l 1618 0 l 1080 0 l 1080 154 l 926 154 l 926 654 l 1080 654 l 1080 809 l 1235 809 l 1235 926 l 537 926 l 537 809 l 692 809 l 692 654 l 846 654 l 846 154 l 692 154 l 692 0 l 154 0 l 154 154 l 0 154 l 0 654 l 154 654 l 154 809 l 309 809 l 309 926 l 0 926 l 0 1117 m 364 781 l 364 627 l 209 627 l 209 182 l 635 182 l 635 627 l 481 627 l 481 781 l 364 781 m 1290 781 l 1290 627 l 1135 627 l 1135 182 l 1561 182 l 1561 627 l 1407 627 l 1407 781 l 1290 781 z "},"ⱼ":{"ha":926,"x_min":154,"x_max":537,"o":"m 309 500 l 537 500 l 537 309 l 309 309 l 309 500 m 309 192 l 537 192 l 537 -154 l 383 -154 l 383 -309 l 154 -309 l 154 -117 l 309 -117 l 309 192 z "},"ⱽ":{"ha":926,"x_min":0,"x_max":846,"o":"m 0 1272 l 229 1272 l 229 963 l 383 963 l 383 654 l 463 654 l 463 963 l 617 963 l 617 1272 l 846 1272 l 846 926 l 692 926 l 692 617 l 537 617 l 537 463 l 309 463 l 309 617 l 154 617 l 154 926 l 0 926 l 0 1272 z "},"":{"ha":926,"x_min":0,"x_max":1000,"o":"m 0 1272 l 1000 1272 l 1000 1080 l 229 1080 l 229 37 l 1000 37 l 1000 -154 l 0 -154 l 0 1272 z "},"":{"ha":926,"x_min":0,"x_max":1000,"o":"m 0 1272 l 1000 1272 l 1000 1080 l 0 1080 l 0 1272 m 0 37 l 1000 37 l 1000 -154 l 0 -154 l 0 37 z "},"":{"ha":926,"x_min":0,"x_max":846,"o":"m 0 1272 l 846 1272 l 846 -154 l 0 -154 l 0 37 l 617 37 l 617 1080 l 0 1080 l 0 1272 z "},"":{"ha":926,"x_min":0,"x_max":1000,"o":"m 0 1272 l 1000 1272 l 1000 1080 l 229 1080 l 229 37 l 1000 37 l 1000 -154 l 0 -154 l 0 1272 m 309 963 l 1000 963 l 1000 154 l 309 154 l 309 963 z "},"":{"ha":926,"x_min":0,"x_max":1000,"o":"m 0 1272 l 1000 1272 l 1000 1080 l 0 1080 l 0 1272 m 0 963 l 1000 963 l 1000 154 l 0 154 l 0 963 m 0 37 l 1000 37 l 1000 -154 l 0 -154 l 0 37 z "},"":{"ha":926,"x_min":0,"x_max":846,"o":"m 0 1272 l 846 1272 l 846 -154 l 0 -154 l 0 37 l 617 37 l 617 1080 l 0 1080 l 0 1272 m 0 963 l 537 963 l 537 154 l 0 154 l 0 963 z "},"":{"ha":926,"x_min":0,"x_max":846,"o":"m 154 963 l 692 963 l 692 809 l 846 809 l 846 617 l 617 617 l 617 772 l 229 772 l 229 617 l 0 617 l 0 809 l 154 809 l 154 963 z "},"":{"ha":926,"x_min":309,"x_max":846,"o":"m 309 963 l 692 963 l 692 809 l 846 809 l 846 309 l 617 309 l 617 772 l 309 772 l 309 963 z "},"":{"ha":926,"x_min":309,"x_max":846,"o":"m 617 809 l 846 809 l 846 309 l 692 309 l 692 154 l 309 154 l 309 346 l 617 346 l 617 809 z "},"":{"ha":926,"x_min":0,"x_max":846,"o":"m 0 500 l 229 500 l 229 346 l 617 346 l 617 500 l 846 500 l 846 309 l 692 309 l 692 154 l 154 154 l 154 309 l 0 309 l 0 500 z "},"":{"ha":926,"x_min":0,"x_max":537,"o":"m 0 809 l 229 809 l 229 346 l 537 346 l 537 154 l 154 154 l 154 309 l 0 309 l 0 809 z "},"":{"ha":926,"x_min":0,"x_max":537,"o":"m 154 963 l 537 963 l 537 772 l 229 772 l 229 309 l 0 309 l 0 809 l 154 809 l 154 963 z "}," ":{"ha":926,"x_min":0,"x_max":0,"o":""},"!":{"ha":926,"x_min":309,"x_max":537,"o":"m 309 1117 l 537 1117 l 537 309 l 309 309 l 309 1117 m 309 192 l 537 192 l 537 0 l 309 0 l 309 192 z "},"\"":{"ha":926,"x_min":154,"x_max":692,"o":"m 154 1117 l 383 1117 l 383 772 l 154 772 l 154 1117 m 463 1117 l 692 1117 l 692 772 l 463 772 l 463 1117 z "},"#":{"ha":926,"x_min":0,"x_max":846,"o":"m 154 1117 l 383 1117 l 383 809 l 463 809 l 463 1117 l 692 1117 l 692 809 l 846 809 l 846 617 l 692 617 l 692 500 l 846 500 l 846 309 l 692 309 l 692 0 l 463 0 l 463 309 l 383 309 l 383 0 l 154 0 l 154 309 l 0 309 l 0 500 l 154 500 l 154 617 l 0 617 l 0 809 l 154 809 l 154 1117 m 364 627 l 364 491 l 481 491 l 481 627 l 364 627 z "},"$":{"ha":926,"x_min":0,"x_max":846,"o":"m 309 1272 l 537 1272 l 537 1117 l 692 1117 l 692 963 l 846 963 l 846 772 l 617 772 l 617 926 l 537 926 l 537 654 l 692 654 l 692 500 l 846 500 l 846 154 l 692 154 l 692 0 l 537 0 l 537 -154 l 309 -154 l 309 0 l 154 0 l 154 154 l 0 154 l 0 346 l 229 346 l 229 192 l 309 192 l 309 463 l 154 463 l 154 617 l 0 617 l 0 963 l 154 963 l 154 1117 l 309 1117 l 309 1272 m 209 936 l 209 645 l 327 645 l 327 936 l 209 936 m 518 473 l 518 182 l 635 182 l 635 473 l 518 473 z "},"%":{"ha":926,"x_min":0,"x_max":846,"o":"m 0 1117 l 229 1117 l 229 772 l 0 772 l 0 1117 m 617 1117 l 846 1117 l 846 926 l 692 926 l 692 617 l 537 617 l 537 463 l 383 463 l 383 154 l 229 154 l 229 0 l 0 0 l 0 192 l 154 192 l 154 500 l 309 500 l 309 654 l 463 654 l 463 963 l 617 963 l 617 1117 m 617 346 l 846 346 l 846 0 l 617 0 l 617 346 z "},"&":{"ha":926,"x_min":0,"x_max":846,"o":"m 154 1117 l 383 1117 l 383 963 l 537 963 l 537 772 l 383 772 l 383 654 l 537 654 l 537 500 l 617 500 l 617 654 l 846 654 l 846 463 l 692 463 l 692 192 l 846 192 l 846 0 l 617 0 l 617 154 l 537 154 l 537 0 l 154 0 l 154 154 l 0 154 l 0 654 l 154 654 l 154 772 l 0 772 l 0 963 l 154 963 l 154 1117 m 209 936 l 209 799 l 327 799 l 327 936 l 209 936 m 209 627 l 209 182 l 481 182 l 481 473 l 327 473 l 327 627 l 209 627 z "},"'":{"ha":926,"x_min":309,"x_max":537,"o":"m 309 1117 l 537 1117 l 537 772 l 309 772 l 309 1117 z "},"(":{"ha":926,"x_min":154,"x_max":692,"o":"m 463 1272 l 692 1272 l 692 1080 l 537 1080 l 537 926 l 383 926 l 383 192 l 537 192 l 537 37 l 692 37 l 692 -154 l 463 -154 l 463 0 l 309 0 l 309 154 l 154 154 l 154 963 l 309 963 l 309 1117 l 463 1117 l 463 1272 z "},")":{"ha":926,"x_min":154,"x_max":692,"o":"m 154 1272 l 383 1272 l 383 1117 l 537 1117 l 537 963 l 692 963 l 692 154 l 537 154 l 537 0 l 383 0 l 383 -154 l 154 -154 l 154 37 l 309 37 l 309 192 l 463 192 l 463 926 l 309 926 l 309 1080 l 154 1080 l 154 1272 z "},"*":{"ha":926,"x_min":154,"x_max":692,"o":"m 154 1117 l 383 1117 l 383 963 l 463 963 l 463 1117 l 692 1117 l 692 926 l 537 926 l 537 809 l 692 809 l 692 617 l 463 617 l 463 772 l 383 772 l 383 617 l 154 617 l 154 809 l 309 809 l 309 926 l 154 926 l 154 1117 z "},"+":{"ha":926,"x_min":0,"x_max":846,"o":"m 309 963 l 537 963 l 537 654 l 846 654 l 846 463 l 537 463 l 537 154 l 309 154 l 309 463 l 0 463 l 0 654 l 309 654 l 309 963 z "},",":{"ha":926,"x_min":0,"x_max":383,"o":"m 154 192 l 383 192 l 383 0 l 229 0 l 229 -154 l 0 -154 l 0 37 l 154 37 l 154 192 z "},"-":{"ha":926,"x_min":0,"x_max":846,"o":"m 0 654 l 846 654 l 846 463 l 0 463 l 0 654 z "},".":{"ha":926,"x_min":309,"x_max":537,"o":"m 309 192 l 537 192 l 537 0 l 309 0 l 309 192 z "},"/":{"ha":926,"x_min":0,"x_max":846,"o":"m 617 1117 l 846 1117 l 846 926 l 692 926 l 692 617 l 537 617 l 537 463 l 383 463 l 383 154 l 229 154 l 229 0 l 0 0 l 0 192 l 154 192 l 154 500 l 309 500 l 309 654 l 463 654 l 463 963 l 617 963 l 617 1117 z "},":":{"ha":926,"x_min":309,"x_max":537,"o":"m 309 809 l 537 809 l 537 617 l 309 617 l 309 809 m 309 192 l 537 192 l 537 0 l 309 0 l 309 192 z "},";":{"ha":926,"x_min":154,"x_max":537,"o":"m 309 809 l 537 809 l 537 617 l 309 617 l 309 809 m 309 192 l 537 192 l 537 0 l 383 0 l 383 -154 l 154 -154 l 154 37 l 309 37 l 309 192 z "},"<":{"ha":926,"x_min":154,"x_max":846,"o":"m 617 1117 l 846 1117 l 846 926 l 692 926 l 692 772 l 537 772 l 537 617 l 383 617 l 383 500 l 537 500 l 537 346 l 692 346 l 692 192 l 846 192 l 846 0 l 617 0 l 617 154 l 463 154 l 463 309 l 309 309 l 309 463 l 154 463 l 154 654 l 309 654 l 309 809 l 463 809 l 463 963 l 617 963 l 617 1117 z "},"=":{"ha":926,"x_min":0,"x_max":846,"o":"m 0 809 l 846 809 l 846 617 l 0 617 l 0 809 m 0 500 l 846 500 l 846 309 l 0 309 l 0 500 z "},">":{"ha":926,"x_min":0,"x_max":692,"o":"m 0 1117 l 229 1117 l 229 963 l 383 963 l 383 809 l 537 809 l 537 654 l 692 654 l 692 463 l 537 463 l 537 309 l 383 309 l 383 154 l 229 154 l 229 0 l 0 0 l 0 192 l 154 192 l 154 346 l 309 346 l 309 500 l 463 500 l 463 617 l 309 617 l 309 772 l 154 772 l 154 926 l 0 926 l 0 1117 z "},"?":{"ha":926,"x_min":0,"x_max":846,"o":"m 154 1117 l 692 1117 l 692 963 l 846 963 l 846 617 l 692 617 l 692 463 l 537 463 l 537 309 l 309 309 l 309 500 l 463 500 l 463 654 l 617 654 l 617 926 l 229 926 l 229 772 l 0 772 l 0 963 l 154 963 l 154 1117 m 309 192 l 537 192 l 537 0 l 309 0 l 309 192 z "},"@":{"ha":926,"x_min":0,"x_max":846,"o":"m 154 1117 l 692 1117 l 692 963 l 846 963 l 846 309 l 309 309 l 309 809 l 537 809 l 537 500 l 617 500 l 617 926 l 229 926 l 229 192 l 846 192 l 846 0 l 154 0 l 154 154 l 0 154 l 0 963 l 154 963 l 154 1117 z "},"A":{"ha":926,"x_min":0,"x_max":846,"o":"m 154 1117 l 692 1117 l 692 963 l 846 963 l 846 0 l 617 0 l 617 617 l 229 617 l 229 0 l 0 0 l 0 963 l 154 963 l 154 1117 m 209 936 l 209 799 l 635 799 l 635 936 l 209 936 z "},"B":{"ha":926,"x_min":0,"x_max":846,"o":"m 0 1117 l 692 1117 l 692 963 l 846 963 l 846 772 l 692 772 l 692 654 l 846 654 l 846 154 l 692 154 l 692 0 l 0 0 l 0 1117 m 209 936 l 209 799 l 635 799 l 635 936 l 209 936 m 209 627 l 209 182 l 635 182 l 635 627 l 209 627 z "},"C":{"ha":926,"x_min":0,"x_max":846,"o":"m 154 1117 l 692 1117 l 692 963 l 846 963 l 846 772 l 617 772 l 617 926 l 229 926 l 229 192 l 617 192 l 617 346 l 846 346 l 846 154 l 692 154 l 692 0 l 154 0 l 154 154 l 0 154 l 0 963 l 154 963 l 154 1117 z "},"D":{"ha":926,"x_min":0,"x_max":846,"o":"m 0 1117 l 692 1117 l 692 963 l 846 963 l 846 154 l 692 154 l 692 0 l 0 0 l 0 1117 m 209 936 l 209 182 l 635 182 l 635 936 l 209 936 z "},"E":{"ha":926,"x_min":0,"x_max":846,"o":"m 0 1117 l 846 1117 l 846 926 l 229 926 l 229 654 l 537 654 l 537 463 l 229 463 l 229 192 l 846 192 l 846 0 l 0 0 l 0 1117 z "},"F":{"ha":926,"x_min":0,"x_max":846,"o":"m 0 1117 l 846 1117 l 846 926 l 229 926 l 229 654 l 692 654 l 692 463 l 229 463 l 229 0 l 0 0 l 0 1117 z "},"G":{"ha":926,"x_min":0,"x_max":846,"o":"m 154 1117 l 692 1117 l 692 963 l 846 963 l 846 772 l 617 772 l 617 926 l 229 926 l 229 192 l 617 192 l 617 463 l 463 463 l 463 654 l 846 654 l 846 154 l 692 154 l 692 0 l 154 0 l 154 154 l 0 154 l 0 963 l 154 963 l 154 1117 z "},"H":{"ha":926,"x_min":0,"x_max":846,"o":"m 0 1117 l 229 1117 l 229 809 l 617 809 l 617 1117 l 846 1117 l 846 0 l 617 0 l 617 617 l 229 617 l 229 0 l 0 0 l 0 1117 z "},"I":{"ha":926,"x_min":154,"x_max":692,"o":"m 154 1117 l 692 1117 l 692 926 l 537 926 l 537 192 l 692 192 l 692 0 l 154 0 l 154 192 l 309 192 l 309 926 l 154 926 l 154 1117 z "},"J":{"ha":926,"x_min":0,"x_max":846,"o":"m 309 1117 l 846 1117 l 846 926 l 692 926 l 692 154 l 537 154 l 537 0 l 154 0 l 154 154 l 0 154 l 0 346 l 229 346 l 229 192 l 463 192 l 463 926 l 309 926 l 309 1117 z "},"K":{"ha":926,"x_min":0,"x_max":846,"o":"m 0 1117 l 229 1117 l 229 809 l 463 809 l 463 963 l 617 963 l 617 1117 l 846 1117 l 846 926 l 692 926 l 692 772 l 537 772 l 537 654 l 692 654 l 692 500 l 846 500 l 846 0 l 617 0 l 617 463 l 463 463 l 463 617 l 229 617 l 229 0 l 0 0 l 0 1117 z "},"L":{"ha":926,"x_min":0,"x_max":846,"o":"m 0 1117 l 229 1117 l 229 192 l 846 192 l 846 0 l 0 0 l 0 1117 z "},"M":{"ha":926,"x_min":0,"x_max":846,"o":"m 0 1117 l 229 1117 l 229 963 l 383 963 l 383 809 l 463 809 l 463 963 l 617 963 l 617 1117 l 846 1117 l 846 0 l 617 0 l 617 772 l 537 772 l 537 617 l 309 617 l 309 772 l 229 772 l 229 0 l 0 0 l 0 1117 z "},"N":{"ha":926,"x_min":0,"x_max":846,"o":"m 0 1117 l 229 1117 l 229 963 l 383 963 l 383 809 l 537 809 l 537 654 l 617 654 l 617 1117 l 846 1117 l 846 0 l 617 0 l 617 463 l 463 463 l 463 617 l 309 617 l 309 772 l 229 772 l 229 0 l 0 0 l 0 1117 z "},"O":{"ha":926,"x_min":0,"x_max":846,"o":"m 154 1117 l 692 1117 l 692 963 l 846 963 l 846 154 l 692 154 l 692 0 l 154 0 l 154 154 l 0 154 l 0 963 l 154 963 l 154 1117 m 209 936 l 209 182 l 635 182 l 635 936 l 209 936 z "},"P":{"ha":926,"x_min":0,"x_max":846,"o":"m 0 1117 l 692 1117 l 692 963 l 846 963 l 846 617 l 692 617 l 692 463 l 229 463 l 229 0 l 0 0 l 0 1117 m 209 936 l 209 645 l 635 645 l 635 936 l 209 936 z "},"Q":{"ha":926,"x_min":0,"x_max":846,"o":"m 154 1117 l 692 1117 l 692 963 l 846 963 l 846 309 l 692 309 l 692 192 l 846 192 l 846 0 l 617 0 l 617 154 l 537 154 l 537 0 l 154 0 l 154 154 l 0 154 l 0 963 l 154 963 l 154 1117 m 209 936 l 209 182 l 481 182 l 481 336 l 635 336 l 635 936 l 209 936 z "},"R":{"ha":926,"x_min":0,"x_max":846,"o":"m 0 1117 l 692 1117 l 692 963 l 846 963 l 846 617 l 692 617 l 692 500 l 846 500 l 846 0 l 617 0 l 617 463 l 229 463 l 229 0 l 0 0 l 0 1117 m 209 936 l 209 645 l 635 645 l 635 936 l 209 936 z "},"S":{"ha":926,"x_min":0,"x_max":846,"o":"m 154 1117 l 692 1117 l 692 963 l 846 963 l 846 772 l 617 772 l 617 926 l 229 926 l 229 654 l 692 654 l 692 500 l 846 500 l 846 154 l 692 154 l 692 0 l 154 0 l 154 154 l 0 154 l 0 346 l 229 346 l 229 192 l 617 192 l 617 463 l 154 463 l 154 617 l 0 617 l 0 963 l 154 963 l 154 1117 z "},"T":{"ha":926,"x_min":0,"x_max":846,"o":"m 0 1117 l 846 1117 l 846 926 l 537 926 l 537 0 l 309 0 l 309 926 l 0 926 l 0 1117 z "},"U":{"ha":926,"x_min":0,"x_max":846,"o":"m 0 1117 l 229 1117 l 229 192 l 617 192 l 617 1117 l 846 1117 l 846 154 l 692 154 l 692 0 l 154 0 l 154 154 l 0 154 l 0 1117 z "},"V":{"ha":926,"x_min":0,"x_max":846,"o":"m 0 1117 l 229 1117 l 229 500 l 383 500 l 383 192 l 463 192 l 463 500 l 617 500 l 617 1117 l 846 1117 l 846 463 l 692 463 l 692 154 l 537 154 l 537 0 l 309 0 l 309 154 l 154 154 l 154 463 l 0 463 l 0 1117 z "},"W":{"ha":926,"x_min":0,"x_max":846,"o":"m 0 1117 l 229 1117 l 229 346 l 309 346 l 309 654 l 537 654 l 537 346 l 617 346 l 617 1117 l 846 1117 l 846 309 l 692 309 l 692 0 l 463 0 l 463 309 l 383 309 l 383 0 l 154 0 l 154 309 l 0 309 l 0 1117 z "},"X":{"ha":926,"x_min":0,"x_max":846,"o":"m 0 1117 l 229 1117 l 229 809 l 383 809 l 383 654 l 463 654 l 463 809 l 617 809 l 617 1117 l 846 1117 l 846 772 l 692 772 l 692 617 l 537 617 l 537 500 l 692 500 l 692 346 l 846 346 l 846 0 l 617 0 l 617 309 l 463 309 l 463 463 l 383 463 l 383 309 l 229 309 l 229 0 l 0 0 l 0 346 l 154 346 l 154 500 l 309 500 l 309 617 l 154 617 l 154 772 l 0 772 l 0 1117 z "},"Y":{"ha":926,"x_min":0,"x_max":846,"o":"m 0 1117 l 229 1117 l 229 809 l 383 809 l 383 654 l 463 654 l 463 809 l 617 809 l 617 1117 l 846 1117 l 846 772 l 692 772 l 692 617 l 537 617 l 537 0 l 309 0 l 309 617 l 154 617 l 154 772 l 0 772 l 0 1117 z "},"Z":{"ha":926,"x_min":0,"x_max":846,"o":"m 0 1117 l 846 1117 l 846 772 l 692 772 l 692 617 l 537 617 l 537 463 l 383 463 l 383 309 l 229 309 l 229 192 l 846 192 l 846 0 l 0 0 l 0 346 l 154 346 l 154 500 l 309 500 l 309 654 l 463 654 l 463 809 l 617 809 l 617 926 l 0 926 l 0 1117 z "},"[":{"ha":926,"x_min":309,"x_max":692,"o":"m 309 1272 l 692 1272 l 692 1080 l 537 1080 l 537 37 l 692 37 l 692 -154 l 309 -154 l 309 1272 z "},"\\":{"ha":926,"x_min":0,"x_max":846,"o":"m 0 1117 l 229 1117 l 229 963 l 383 963 l 383 654 l 537 654 l 537 500 l 692 500 l 692 192 l 846 192 l 846 0 l 617 0 l 617 154 l 463 154 l 463 463 l 309 463 l 309 617 l 154 617 l 154 926 l 0 926 l 0 1117 z "},"]":{"ha":926,"x_min":154,"x_max":537,"o":"m 154 1272 l 537 1272 l 537 -154 l 154 -154 l 154 37 l 309 37 l 309 1080 l 154 1080 l 154 1272 z "},"^":{"ha":926,"x_min":0,"x_max":846,"o":"m 309 1117 l 537 1117 l 537 963 l 692 963 l 692 809 l 846 809 l 846 617 l 617 617 l 617 772 l 463 772 l 463 926 l 383 926 l 383 772 l 229 772 l 229 617 l 0 617 l 0 809 l 154 809 l 154 963 l 309 963 l 309 1117 z "},"_":{"ha":926,"x_min":0,"x_max":846,"o":"m 0 37 l 846 37 l 846 -154 l 0 -154 l 0 37 z "},"`":{"ha":926,"x_min":154,"x_max":537,"o":"m 154 1117 l 383 1117 l 383 963 l 537 963 l 537 772 l 309 772 l 309 926 l 154 926 l 154 1117 z "},"a":{"ha":926,"x_min":0,"x_max":846,"o":"m 154 809 l 692 809 l 692 654 l 846 654 l 846 0 l 154 0 l 154 154 l 0 154 l 0 346 l 154 346 l 154 500 l 617 500 l 617 617 l 154 617 l 154 809 m 209 318 l 209 182 l 635 182 l 635 318 l 209 318 z "},"b":{"ha":926,"x_min":0,"x_max":846,"o":"m 0 1117 l 229 1117 l 229 654 l 309 654 l 309 809 l 692 809 l 692 654 l 846 654 l 846 154 l 692 154 l 692 0 l 0 0 l 0 1117 m 364 627 l 364 473 l 209 473 l 209 182 l 635 182 l 635 627 l 364 627 z "},"c":{"ha":926,"x_min":0,"x_max":846,"o":"m 154 809 l 692 809 l 692 654 l 846 654 l 846 463 l 617 463 l 617 617 l 229 617 l 229 192 l 617 192 l 617 346 l 846 346 l 846 154 l 692 154 l 692 0 l 154 0 l 154 154 l 0 154 l 0 654 l 154 654 l 154 809 z "},"d":{"ha":926,"x_min":0,"x_max":846,"o":"m 463 1117 l 692 1117 l 692 192 l 846 192 l 846 0 l 617 0 l 617 154 l 537 154 l 537 0 l 154 0 l 154 154 l 0 154 l 0 654 l 154 654 l 154 809 l 463 809 l 463 1117 m 209 627 l 209 182 l 481 182 l 481 627 l 209 627 z "},"e":{"ha":926,"x_min":0,"x_max":846,"o":"m 154 809 l 692 809 l 692 654 l 846 654 l 846 309 l 229 309 l 229 192 l 846 192 l 846 0 l 154 0 l 154 154 l 0 154 l 0 654 l 154 654 l 154 809 m 209 627 l 209 491 l 635 491 l 635 627 l 209 627 z "},"f":{"ha":926,"x_min":0,"x_max":846,"o":"m 309 1117 l 692 1117 l 692 963 l 846 963 l 846 772 l 617 772 l 617 926 l 383 926 l 383 654 l 692 654 l 692 463 l 383 463 l 383 0 l 154 0 l 154 463 l 0 463 l 0 654 l 154 654 l 154 963 l 309 963 l 309 1117 z "},"g":{"ha":926,"x_min":0,"x_max":846,"o":"m 154 809 l 846 809 l 846 0 l 692 0 l 692 -154 l 0 -154 l 0 37 l 617 37 l 617 154 l 154 154 l 154 309 l 0 309 l 0 654 l 154 654 l 154 809 m 209 627 l 209 336 l 635 336 l 635 627 l 209 627 z "},"h":{"ha":926,"x_min":0,"x_max":846,"o":"m 0 1117 l 229 1117 l 229 654 l 309 654 l 309 809 l 692 809 l 692 654 l 846 654 l 846 0 l 617 0 l 617 617 l 383 617 l 383 463 l 229 463 l 229 0 l 0 0 l 0 1117 z "},"i":{"ha":926,"x_min":154,"x_max":692,"o":"m 309 1117 l 537 1117 l 537 926 l 309 926 l 309 1117 m 154 809 l 537 809 l 537 192 l 692 192 l 692 0 l 154 0 l 154 192 l 309 192 l 309 617 l 154 617 l 154 809 z "},"j":{"ha":926,"x_min":0,"x_max":692,"o":"m 463 1117 l 692 1117 l 692 926 l 463 926 l 463 1117 m 309 809 l 692 809 l 692 0 l 537 0 l 537 -154 l 154 -154 l 154 0 l 0 0 l 0 192 l 229 192 l 229 37 l 463 37 l 463 617 l 309 617 l 309 809 z "},"k":{"ha":926,"x_min":0,"x_max":846,"o":"m 0 1117 l 229 1117 l 229 500 l 309 500 l 309 654 l 463 654 l 463 809 l 692 809 l 692 617 l 537 617 l 537 463 l 383 463 l 383 346 l 537 346 l 537 192 l 846 192 l 846 0 l 463 0 l 463 154 l 309 154 l 309 309 l 229 309 l 229 0 l 0 0 l 0 1117 z "},"l":{"ha":926,"x_min":154,"x_max":846,"o":"m 154 1117 l 537 1117 l 537 192 l 846 192 l 846 0 l 463 0 l 463 154 l 309 154 l 309 926 l 154 926 l 154 1117 z "},"m":{"ha":926,"x_min":0,"x_max":846,"o":"m 0 809 l 383 809 l 383 654 l 463 654 l 463 809 l 692 809 l 692 654 l 846 654 l 846 0 l 617 0 l 617 617 l 537 617 l 537 0 l 309 0 l 309 617 l 229 617 l 229 0 l 0 0 l 0 809 z "},"n":{"ha":926,"x_min":0,"x_max":846,"o":"m 0 809 l 229 809 l 229 654 l 309 654 l 309 809 l 692 809 l 692 654 l 846 654 l 846 0 l 617 0 l 617 617 l 383 617 l 383 463 l 229 463 l 229 0 l 0 0 l 0 809 z "},"o":{"ha":926,"x_min":0,"x_max":846,"o":"m 154 809 l 692 809 l 692 654 l 846 654 l 846 154 l 692 154 l 692 0 l 154 0 l 154 154 l 0 154 l 0 654 l 154 654 l 154 809 m 209 627 l 209 182 l 635 182 l 635 627 l 209 627 z "},"p":{"ha":926,"x_min":0,"x_max":846,"o":"m 0 809 l 229 809 l 229 654 l 309 654 l 309 809 l 692 809 l 692 654 l 846 654 l 846 309 l 692 309 l 692 154 l 229 154 l 229 -154 l 0 -154 l 0 809 m 364 627 l 364 473 l 209 473 l 209 336 l 635 336 l 635 627 l 364 627 z "},"q":{"ha":926,"x_min":0,"x_max":846,"o":"m 154 809 l 692 809 l 692 37 l 846 37 l 846 -154 l 463 -154 l 463 154 l 154 154 l 154 309 l 0 309 l 0 654 l 154 654 l 154 809 m 209 627 l 209 336 l 481 336 l 481 627 l 209 627 z "},"r":{"ha":926,"x_min":0,"x_max":846,"o":"m 0 809 l 229 809 l 229 654 l 309 654 l 309 809 l 692 809 l 692 654 l 846 654 l 846 463 l 617 463 l 617 617 l 383 617 l 383 463 l 229 463 l 229 0 l 0 0 l 0 809 z "},"s":{"ha":926,"x_min":0,"x_max":846,"o":"m 154 809 l 846 809 l 846 617 l 229 617 l 229 500 l 692 500 l 692 346 l 846 346 l 846 154 l 692 154 l 692 0 l 0 0 l 0 192 l 617 192 l 617 309 l 154 309 l 154 463 l 0 463 l 0 654 l 154 654 l 154 809 z "},"t":{"ha":926,"x_min":0,"x_max":846,"o":"m 154 1117 l 383 1117 l 383 809 l 692 809 l 692 617 l 383 617 l 383 192 l 846 192 l 846 0 l 309 0 l 309 154 l 154 154 l 154 617 l 0 617 l 0 809 l 154 809 l 154 1117 z "},"u":{"ha":926,"x_min":0,"x_max":846,"o":"m 0 809 l 229 809 l 229 192 l 463 192 l 463 809 l 692 809 l 692 192 l 846 192 l 846 0 l 617 0 l 617 154 l 537 154 l 537 0 l 154 0 l 154 154 l 0 154 l 0 809 z "},"v":{"ha":926,"x_min":0,"x_max":846,"o":"m 0 809 l 229 809 l 229 346 l 383 346 l 383 192 l 463 192 l 463 346 l 617 346 l 617 809 l 846 809 l 846 309 l 692 309 l 692 154 l 537 154 l 537 0 l 309 0 l 309 154 l 154 154 l 154 309 l 0 309 l 0 809 z "},"w":{"ha":926,"x_min":0,"x_max":846,"o":"m 0 809 l 229 809 l 229 346 l 309 346 l 309 654 l 537 654 l 537 346 l 617 346 l 617 809 l 846 809 l 846 309 l 692 309 l 692 0 l 463 0 l 463 309 l 383 309 l 383 0 l 154 0 l 154 309 l 0 309 l 0 809 z "},"x":{"ha":926,"x_min":0,"x_max":846,"o":"m 0 809 l 383 809 l 383 500 l 463 500 l 463 809 l 846 809 l 846 617 l 692 617 l 692 463 l 537 463 l 537 346 l 692 346 l 692 192 l 846 192 l 846 0 l 463 0 l 463 309 l 383 309 l 383 0 l 0 0 l 0 192 l 154 192 l 154 346 l 309 346 l 309 463 l 154 463 l 154 617 l 0 617 l 0 809 z "},"y":{"ha":926,"x_min":0,"x_max":846,"o":"m 0 809 l 229 809 l 229 346 l 617 346 l 617 809 l 846 809 l 846 0 l 692 0 l 692 -154 l 0 -154 l 0 37 l 617 37 l 617 154 l 154 154 l 154 309 l 0 309 l 0 809 z "},"z":{"ha":926,"x_min":0,"x_max":846,"o":"m 0 809 l 846 809 l 846 617 l 692 617 l 692 463 l 537 463 l 537 309 l 383 309 l 383 192 l 846 192 l 846 0 l 0 0 l 0 192 l 154 192 l 154 346 l 309 346 l 309 500 l 463 500 l 463 617 l 0 617 l 0 809 z "},"{":{"ha":926,"x_min":0,"x_max":692,"o":"m 309 1272 l 692 1272 l 692 1080 l 383 1080 l 383 809 l 537 809 l 537 617 l 383 617 l 383 500 l 537 500 l 537 309 l 383 309 l 383 37 l 692 37 l 692 -154 l 309 -154 l 309 0 l 154 0 l 154 346 l 309 346 l 309 463 l 0 463 l 0 654 l 309 654 l 309 772 l 154 772 l 154 1117 l 309 1117 l 309 1272 z "},"|":{"ha":926,"x_min":309,"x_max":537,"o":"m 309 1272 l 537 1272 l 537 -154 l 309 -154 l 309 1272 z "},"}":{"ha":926,"x_min":154,"x_max":846,"o":"m 154 1272 l 537 1272 l 537 1117 l 692 1117 l 692 772 l 537 772 l 537 654 l 846 654 l 846 463 l 537 463 l 537 346 l 692 346 l 692 0 l 537 0 l 537 -154 l 154 -154 l 154 37 l 463 37 l 463 309 l 309 309 l 309 500 l 463 500 l 463 617 l 309 617 l 309 809 l 463 809 l 463 1080 l 154 1080 l 154 1272 z "},"~":{"ha":926,"x_min":0,"x_max":846,"o":"m 154 809 l 383 809 l 383 654 l 537 654 l 537 500 l 617 500 l 617 809 l 846 809 l 846 463 l 692 463 l 692 309 l 463 309 l 463 463 l 309 463 l 309 617 l 229 617 l 229 309 l 0 309 l 0 654 l 154 654 l 154 809 z "},"ꟲ":{"ha":926,"x_min":154,"x_max":692,"o":"m 309 1117 l 692 1117 l 692 926 l 383 926 l 383 654 l 692 654 l 692 463 l 309 463 l 309 617 l 154 617 l 154 963 l 309 963 l 309 1117 z "},"ꟳ":{"ha":926,"x_min":154,"x_max":692,"o":"m 154 1117 l 692 1117 l 692 926 l 383 926 l 383 809 l 537 809 l 537 617 l 383 617 l 383 463 l 154 463 l 154 1117 z "},"ꟴ":{"ha":926,"x_min":0,"x_max":692,"o":"m 154 1117 l 537 1117 l 537 963 l 692 963 l 692 772 l 537 772 l 537 654 l 692 654 l 692 463 l 463 463 l 463 617 l 383 617 l 383 463 l 154 463 l 154 617 l 0 617 l 0 963 l 154 963 l 154 1117 m 209 936 l 209 645 l 327 645 l 327 799 l 481 799 l 481 936 l 209 936 z "},"ꟹ":{"ha":926,"x_min":0,"x_max":846,"o":"m 154 1117 l 383 1117 l 383 963 l 463 963 l 463 1117 l 692 1117 l 692 963 l 846 963 l 846 772 l 537 772 l 537 654 l 846 654 l 846 463 l 463 463 l 463 617 l 383 617 l 383 463 l 154 463 l 154 617 l 0 617 l 0 963 l 154 963 l 154 1117 m 209 936 l 209 645 l 327 645 l 327 936 l 209 936 z "},"Ѐ":{"ha":926,"x_min":0,"x_max":846,"o":"m 0 1117 l 846 1117 l 846 926 l 229 926 l 229 654 l 537 654 l 537 463 l 229 463 l 229 192 l 846 192 l 846 0 l 0 0 l 0 1117 z "},"Ё":{"ha":926,"x_min":0,"x_max":846,"o":"m 154 1426 l 383 1426 l 383 1235 l 154 1235 l 154 1426 m 463 1426 l 692 1426 l 692 1235 l 463 1235 l 463 1426 m 0 1117 l 846 1117 l 846 926 l 229 926 l 229 654 l 537 654 l 537 463 l 229 463 l 229 192 l 846 192 l 846 0 l 0 0 l 0 1117 z "},"Ђ":{"ha":926,"x_min":0,"x_max":846,"o":"m 0 1117 l 692 1117 l 692 926 l 383 926 l 383 500 l 463 500 l 463 654 l 692 654 l 692 500 l 846 500 l 846 0 l 692 0 l 692 -154 l 463 -154 l 463 37 l 617 37 l 617 463 l 537 463 l 537 309 l 383 309 l 383 0 l 154 0 l 154 926 l 0 926 l 0 1117 z "},"Ѓ":{"ha":926,"x_min":0,"x_max":846,"o":"m 463 1580 l 692 1580 l 692 1389 l 537 1389 l 537 1235 l 309 1235 l 309 1426 l 463 1426 l 463 1580 m 0 1117 l 846 1117 l 846 926 l 229 926 l 229 0 l 0 0 l 0 1117 z "},"Є":{"ha":926,"x_min":0,"x_max":846,"o":"m 154 1117 l 692 1117 l 692 963 l 846 963 l 846 772 l 617 772 l 617 926 l 229 926 l 229 654 l 692 654 l 692 463 l 229 463 l 229 192 l 617 192 l 617 346 l 846 346 l 846 154 l 692 154 l 692 0 l 154 0 l 154 154 l 0 154 l 0 963 l 154 963 l 154 1117 z "},"Ѕ":{"ha":926,"x_min":0,"x_max":846,"o":"m 154 1117 l 692 1117 l 692 963 l 846 963 l 846 772 l 617 772 l 617 926 l 229 926 l 229 654 l 692 654 l 692 500 l 846 500 l 846 154 l 692 154 l 692 0 l 154 0 l 154 154 l 0 154 l 0 346 l 229 346 l 229 192 l 617 192 l 617 463 l 154 463 l 154 617 l 0 617 l 0 963 l 154 963 l 154 1117 z "},"І":{"ha":926,"x_min":154,"x_max":692,"o":"m 154 1117 l 692 1117 l 692 926 l 537 926 l 537 192 l 692 192 l 692 0 l 154 0 l 154 192 l 309 192 l 309 926 l 154 926 l 154 1117 z "},"Ї":{"ha":926,"x_min":154,"x_max":692,"o":"m 154 1426 l 383 1426 l 383 1235 l 154 1235 l 154 1426 m 463 1426 l 692 1426 l 692 1235 l 463 1235 l 463 1426 m 154 1117 l 692 1117 l 692 926 l 537 926 l 537 192 l 692 192 l 692 0 l 154 0 l 154 192 l 309 192 l 309 926 l 154 926 l 154 1117 z "},"Ј":{"ha":926,"x_min":0,"x_max":846,"o":"m 309 1117 l 846 1117 l 846 926 l 692 926 l 692 154 l 537 154 l 537 0 l 154 0 l 154 154 l 0 154 l 0 346 l 229 346 l 229 192 l 463 192 l 463 926 l 309 926 l 309 1117 z "},"Љ":{"ha":926,"x_min":0,"x_max":846,"o":"m 154 1117 l 537 1117 l 537 654 l 692 654 l 692 500 l 846 500 l 846 154 l 692 154 l 692 0 l 309 0 l 309 926 l 229 926 l 229 0 l 0 0 l 0 963 l 154 963 l 154 1117 m 518 473 l 518 182 l 635 182 l 635 473 l 518 473 z "},"Њ":{"ha":926,"x_min":0,"x_max":846,"o":"m 0 1117 l 229 1117 l 229 654 l 309 654 l 309 1117 l 537 1117 l 537 654 l 692 654 l 692 500 l 846 500 l 846 154 l 692 154 l 692 0 l 309 0 l 309 463 l 229 463 l 229 0 l 0 0 l 0 1117 m 518 473 l 518 182 l 635 182 l 635 473 l 518 473 z "},"Ћ":{"ha":926,"x_min":0,"x_max":846,"o":"m 0 1117 l 692 1117 l 692 926 l 383 926 l 383 500 l 463 500 l 463 654 l 692 654 l 692 500 l 846 500 l 846 0 l 617 0 l 617 463 l 537 463 l 537 309 l 383 309 l 383 0 l 154 0 l 154 926 l 0 926 l 0 1117 z "},"Ќ":{"ha":926,"x_min":0,"x_max":846,"o":"m 463 1580 l 692 1580 l 692 1389 l 537 1389 l 537 1235 l 309 1235 l 309 1426 l 463 1426 l 463 1580 m 0 1117 l 229 1117 l 229 809 l 463 809 l 463 963 l 617 963 l 617 1117 l 846 1117 l 846 926 l 692 926 l 692 772 l 537 772 l 537 654 l 692 654 l 692 500 l 846 500 l 846 0 l 617 0 l 617 463 l 463 463 l 463 617 l 229 617 l 229 0 l 0 0 l 0 1117 z "},"Ѝ":{"ha":926,"x_min":0,"x_max":846,"o":"m 309 1580 l 537 1580 l 537 1426 l 692 1426 l 692 1235 l 463 1235 l 463 1389 l 309 1389 l 309 1580 m 0 1117 l 229 1117 l 229 654 l 309 654 l 309 809 l 463 809 l 463 963 l 617 963 l 617 1117 l 846 1117 l 846 0 l 617 0 l 617 772 l 537 772 l 537 617 l 383 617 l 383 463 l 229 463 l 229 0 l 0 0 l 0 1117 z "},"Ў":{"ha":926,"x_min":0,"x_max":846,"o":"m 154 1580 l 383 1580 l 383 1426 l 463 1426 l 463 1580 l 692 1580 l 692 1389 l 537 1389 l 537 1235 l 309 1235 l 309 1389 l 154 1389 l 154 1580 m 0 1117 l 229 1117 l 229 809 l 383 809 l 383 500 l 463 500 l 463 809 l 617 809 l 617 1117 l 846 1117 l 846 772 l 692 772 l 692 463 l 537 463 l 537 154 l 383 154 l 383 0 l 154 0 l 154 192 l 309 192 l 309 463 l 154 463 l 154 772 l 0 772 l 0 1117 z "},"Џ":{"ha":926,"x_min":0,"x_max":846,"o":"m 0 1117 l 229 1117 l 229 192 l 617 192 l 617 1117 l 846 1117 l 846 0 l 537 0 l 537 -154 l 309 -154 l 309 0 l 0 0 l 0 1117 z "},"А":{"ha":926,"x_min":0,"x_max":846,"o":"m 154 1117 l 692 1117 l 692 963 l 846 963 l 846 0 l 617 0 l 617 617 l 229 617 l 229 0 l 0 0 l 0 963 l 154 963 l 154 1117 m 209 936 l 209 799 l 635 799 l 635 936 l 209 936 z "},"Б":{"ha":926,"x_min":0,"x_max":846,"o":"m 0 1117 l 846 1117 l 846 926 l 229 926 l 229 809 l 692 809 l 692 654 l 846 654 l 846 154 l 692 154 l 692 0 l 0 0 l 0 1117 m 209 627 l 209 182 l 635 182 l 635 627 l 209 627 z "},"В":{"ha":926,"x_min":0,"x_max":846,"o":"m 0 1117 l 692 1117 l 692 963 l 846 963 l 846 772 l 692 772 l 692 654 l 846 654 l 846 154 l 692 154 l 692 0 l 0 0 l 0 1117 m 209 936 l 209 799 l 635 799 l 635 936 l 209 936 m 209 627 l 209 182 l 635 182 l 635 627 l 209 627 z "},"Г":{"ha":926,"x_min":0,"x_max":846,"o":"m 0 1117 l 846 1117 l 846 926 l 229 926 l 229 0 l 0 0 l 0 1117 z "},"Д":{"ha":926,"x_min":0,"x_max":846,"o":"m 309 1117 l 846 1117 l 846 -154 l 617 -154 l 617 0 l 229 0 l 229 -154 l 0 -154 l 0 346 l 154 346 l 154 809 l 309 809 l 309 1117 m 518 936 l 518 781 l 364 781 l 364 318 l 209 318 l 209 182 l 635 182 l 635 936 l 518 936 z "},"Е":{"ha":926,"x_min":0,"x_max":846,"o":"m 0 1117 l 846 1117 l 846 926 l 229 926 l 229 654 l 537 654 l 537 463 l 229 463 l 229 192 l 846 192 l 846 0 l 0 0 l 0 1117 z "},"Ж":{"ha":926,"x_min":0,"x_max":846,"o":"m 0 1117 l 229 1117 l 229 654 l 309 654 l 309 1117 l 537 1117 l 537 654 l 617 654 l 617 1117 l 846 1117 l 846 617 l 692 617 l 692 500 l 846 500 l 846 0 l 617 0 l 617 463 l 537 463 l 537 0 l 309 0 l 309 463 l 229 463 l 229 0 l 0 0 l 0 500 l 154 500 l 154 617 l 0 617 l 0 1117 z "},"З":{"ha":926,"x_min":0,"x_max":846,"o":"m 154 1117 l 692 1117 l 692 963 l 846 963 l 846 617 l 692 617 l 692 500 l 846 500 l 846 154 l 692 154 l 692 0 l 154 0 l 154 154 l 0 154 l 0 346 l 229 346 l 229 192 l 617 192 l 617 463 l 309 463 l 309 654 l 617 654 l 617 926 l 229 926 l 229 772 l 0 772 l 0 963 l 154 963 l 154 1117 z "},"И":{"ha":926,"x_min":0,"x_max":846,"o":"m 0 1117 l 229 1117 l 229 654 l 309 654 l 309 809 l 463 809 l 463 963 l 617 963 l 617 1117 l 846 1117 l 846 0 l 617 0 l 617 772 l 537 772 l 537 617 l 383 617 l 383 463 l 229 463 l 229 0 l 0 0 l 0 1117 z "},"Й":{"ha":926,"x_min":0,"x_max":846,"o":"m 154 1580 l 383 1580 l 383 1426 l 463 1426 l 463 1580 l 692 1580 l 692 1389 l 537 1389 l 537 1235 l 309 1235 l 309 1389 l 154 1389 l 154 1580 m 0 1117 l 229 1117 l 229 654 l 309 654 l 309 809 l 463 809 l 463 963 l 617 963 l 617 1117 l 846 1117 l 846 0 l 617 0 l 617 772 l 537 772 l 537 617 l 383 617 l 383 463 l 229 463 l 229 0 l 0 0 l 0 1117 z "},"К":{"ha":926,"x_min":0,"x_max":846,"o":"m 0 1117 l 229 1117 l 229 809 l 463 809 l 463 963 l 617 963 l 617 1117 l 846 1117 l 846 926 l 692 926 l 692 772 l 537 772 l 537 654 l 692 654 l 692 500 l 846 500 l 846 0 l 617 0 l 617 463 l 463 463 l 463 617 l 229 617 l 229 0 l 0 0 l 0 1117 z "},"Л":{"ha":926,"x_min":0,"x_max":846,"o":"m 309 1117 l 846 1117 l 846 0 l 617 0 l 617 926 l 537 926 l 537 772 l 383 772 l 383 309 l 229 309 l 229 0 l 0 0 l 0 346 l 154 346 l 154 809 l 309 809 l 309 1117 z "},"М":{"ha":926,"x_min":0,"x_max":846,"o":"m 0 1117 l 229 1117 l 229 963 l 383 963 l 383 809 l 463 809 l 463 963 l 617 963 l 617 1117 l 846 1117 l 846 0 l 617 0 l 617 772 l 537 772 l 537 617 l 309 617 l 309 772 l 229 772 l 229 0 l 0 0 l 0 1117 z "},"Н":{"ha":926,"x_min":0,"x_max":846,"o":"m 0 1117 l 229 1117 l 229 809 l 617 809 l 617 1117 l 846 1117 l 846 0 l 617 0 l 617 617 l 229 617 l 229 0 l 0 0 l 0 1117 z "},"О":{"ha":926,"x_min":0,"x_max":846,"o":"m 154 1117 l 692 1117 l 692 963 l 846 963 l 846 154 l 692 154 l 692 0 l 154 0 l 154 154 l 0 154 l 0 963 l 154 963 l 154 1117 m 209 936 l 209 182 l 635 182 l 635 936 l 209 936 z "},"П":{"ha":926,"x_min":0,"x_max":846,"o":"m 0 1117 l 846 1117 l 846 0 l 617 0 l 617 926 l 229 926 l 229 0 l 0 0 l 0 1117 z "},"Р":{"ha":926,"x_min":0,"x_max":846,"o":"m 0 1117 l 692 1117 l 692 963 l 846 963 l 846 617 l 692 617 l 692 463 l 229 463 l 229 0 l 0 0 l 0 1117 m 209 936 l 209 645 l 635 645 l 635 936 l 209 936 z "},"С":{"ha":926,"x_min":0,"x_max":846,"o":"m 154 1117 l 692 1117 l 692 963 l 846 963 l 846 772 l 617 772 l 617 926 l 229 926 l 229 192 l 617 192 l 617 346 l 846 346 l 846 154 l 692 154 l 692 0 l 154 0 l 154 154 l 0 154 l 0 963 l 154 963 l 154 1117 z "},"Т":{"ha":926,"x_min":0,"x_max":846,"o":"m 0 1117 l 846 1117 l 846 926 l 537 926 l 537 0 l 309 0 l 309 926 l 0 926 l 0 1117 z "},"У":{"ha":926,"x_min":0,"x_max":846,"o":"m 0 1117 l 229 1117 l 229 809 l 383 809 l 383 500 l 463 500 l 463 809 l 617 809 l 617 1117 l 846 1117 l 846 772 l 692 772 l 692 463 l 537 463 l 537 154 l 383 154 l 383 0 l 154 0 l 154 192 l 309 192 l 309 463 l 154 463 l 154 772 l 0 772 l 0 1117 z "},"Ф":{"ha":926,"x_min":0,"x_max":846,"o":"m 309 1117 l 537 1117 l 537 963 l 692 963 l 692 809 l 846 809 l 846 309 l 692 309 l 692 154 l 537 154 l 537 0 l 309 0 l 309 154 l 154 154 l 154 309 l 0 309 l 0 809 l 154 809 l 154 963 l 309 963 l 309 1117 m 209 781 l 209 336 l 327 336 l 327 781 l 209 781 m 518 781 l 518 336 l 635 336 l 635 781 l 518 781 z "},"Х":{"ha":926,"x_min":0,"x_max":846,"o":"m 0 1117 l 229 1117 l 229 809 l 383 809 l 383 654 l 463 654 l 463 809 l 617 809 l 617 1117 l 846 1117 l 846 772 l 692 772 l 692 617 l 537 617 l 537 500 l 692 500 l 692 346 l 846 346 l 846 0 l 617 0 l 617 309 l 463 309 l 463 463 l 383 463 l 383 309 l 229 309 l 229 0 l 0 0 l 0 346 l 154 346 l 154 500 l 309 500 l 309 617 l 154 617 l 154 772 l 0 772 l 0 1117 z "},"Ц":{"ha":926,"x_min":0,"x_max":846,"o":"m 0 1117 l 229 1117 l 229 192 l 463 192 l 463 1117 l 692 1117 l 692 192 l 846 192 l 846 -154 l 617 -154 l 617 0 l 0 0 l 0 1117 z "},"Ч":{"ha":926,"x_min":0,"x_max":846,"o":"m 0 1117 l 229 1117 l 229 500 l 617 500 l 617 1117 l 846 1117 l 846 0 l 617 0 l 617 309 l 154 309 l 154 463 l 0 463 l 0 1117 z "},"Ш":{"ha":926,"x_min":0,"x_max":846,"o":"m 0 1117 l 229 1117 l 229 192 l 309 192 l 309 1117 l 537 1117 l 537 192 l 617 192 l 617 1117 l 846 1117 l 846 0 l 0 0 l 0 1117 z "},"Щ":{"ha":926,"x_min":0,"x_max":846,"o":"m 0 1117 l 229 1117 l 229 192 l 309 192 l 309 1117 l 537 1117 l 537 192 l 617 192 l 617 1117 l 846 1117 l 846 -154 l 617 -154 l 617 0 l 0 0 l 0 1117 z "},"Ъ":{"ha":926,"x_min":0,"x_max":846,"o":"m 0 1117 l 383 1117 l 383 654 l 692 654 l 692 500 l 846 500 l 846 154 l 692 154 l 692 0 l 154 0 l 154 926 l 0 926 l 0 1117 m 364 473 l 364 182 l 635 182 l 635 473 l 364 473 z "},"Ы":{"ha":926,"x_min":0,"x_max":846,"o":"m 0 1117 l 229 1117 l 229 654 l 537 654 l 537 500 l 617 500 l 617 1117 l 846 1117 l 846 0 l 617 0 l 617 154 l 537 154 l 537 0 l 0 0 l 0 1117 m 209 473 l 209 182 l 481 182 l 481 473 l 209 473 z "},"Ь":{"ha":926,"x_min":0,"x_max":846,"o":"m 0 1117 l 229 1117 l 229 654 l 692 654 l 692 500 l 846 500 l 846 154 l 692 154 l 692 0 l 0 0 l 0 1117 m 209 473 l 209 182 l 635 182 l 635 473 l 209 473 z "},"Э":{"ha":926,"x_min":0,"x_max":846,"o":"m 154 1117 l 692 1117 l 692 963 l 846 963 l 846 154 l 692 154 l 692 0 l 154 0 l 154 154 l 0 154 l 0 346 l 229 346 l 229 192 l 617 192 l 617 463 l 154 463 l 154 654 l 617 654 l 617 926 l 229 926 l 229 772 l 0 772 l 0 963 l 154 963 l 154 1117 z "},"Ю":{"ha":926,"x_min":0,"x_max":846,"o":"m 0 1117 l 229 1117 l 229 654 l 309 654 l 309 963 l 463 963 l 463 1117 l 692 1117 l 692 963 l 846 963 l 846 154 l 692 154 l 692 0 l 463 0 l 463 154 l 309 154 l 309 463 l 229 463 l 229 0 l 0 0 l 0 1117 m 518 936 l 518 182 l 635 182 l 635 936 l 518 936 z "},"Я":{"ha":926,"x_min":0,"x_max":846,"o":"m 154 1117 l 846 1117 l 846 0 l 617 0 l 617 463 l 229 463 l 229 0 l 0 0 l 0 500 l 154 500 l 154 617 l 0 617 l 0 963 l 154 963 l 154 1117 m 209 936 l 209 645 l 635 645 l 635 936 l 209 936 z "},"а":{"ha":926,"x_min":0,"x_max":846,"o":"m 154 809 l 692 809 l 692 654 l 846 654 l 846 0 l 154 0 l 154 154 l 0 154 l 0 346 l 154 346 l 154 500 l 617 500 l 617 617 l 154 617 l 154 809 m 209 318 l 209 182 l 635 182 l 635 318 l 209 318 z "},"б":{"ha":926,"x_min":0,"x_max":846,"o":"m 154 1117 l 692 1117 l 692 926 l 229 926 l 229 654 l 309 654 l 309 809 l 692 809 l 692 654 l 846 654 l 846 154 l 692 154 l 692 0 l 154 0 l 154 154 l 0 154 l 0 963 l 154 963 l 154 1117 m 364 627 l 364 473 l 209 473 l 209 182 l 635 182 l 635 627 l 364 627 z "},"в":{"ha":926,"x_min":154,"x_max":846,"o":"m 154 809 l 692 809 l 692 654 l 846 654 l 846 463 l 692 463 l 692 346 l 846 346 l 846 154 l 692 154 l 692 0 l 154 0 l 154 809 m 364 627 l 364 491 l 635 491 l 635 627 l 364 627 m 364 318 l 364 182 l 635 182 l 635 318 l 364 318 z "},"г":{"ha":926,"x_min":154,"x_max":846,"o":"m 154 809 l 846 809 l 846 617 l 383 617 l 383 0 l 154 0 l 154 809 z "},"д":{"ha":926,"x_min":0,"x_max":846,"o":"m 154 809 l 846 809 l 846 -154 l 617 -154 l 617 0 l 229 0 l 229 -154 l 0 -154 l 0 346 l 154 346 l 154 809 m 364 627 l 364 318 l 209 318 l 209 182 l 635 182 l 635 627 l 364 627 z "},"е":{"ha":926,"x_min":0,"x_max":846,"o":"m 154 809 l 692 809 l 692 654 l 846 654 l 846 309 l 229 309 l 229 192 l 846 192 l 846 0 l 154 0 l 154 154 l 0 154 l 0 654 l 154 654 l 154 809 m 209 627 l 209 491 l 635 491 l 635 627 l 209 627 z "},"ж":{"ha":926,"x_min":0,"x_max":846,"o":"m 0 809 l 229 809 l 229 500 l 309 500 l 309 809 l 537 809 l 537 500 l 617 500 l 617 809 l 846 809 l 846 463 l 692 463 l 692 346 l 846 346 l 846 0 l 617 0 l 617 309 l 537 309 l 537 0 l 309 0 l 309 309 l 229 309 l 229 0 l 0 0 l 0 346 l 154 346 l 154 463 l 0 463 l 0 809 z "},"з":{"ha":926,"x_min":0,"x_max":846,"o":"m 154 809 l 692 809 l 692 654 l 846 654 l 846 463 l 692 463 l 692 346 l 846 346 l 846 154 l 692 154 l 692 0 l 154 0 l 154 154 l 0 154 l 0 346 l 229 346 l 229 192 l 617 192 l 617 309 l 309 309 l 309 500 l 617 500 l 617 617 l 229 617 l 229 463 l 0 463 l 0 654 l 154 654 l 154 809 z "},"и":{"ha":926,"x_min":0,"x_max":846,"o":"m 0 809 l 229 809 l 229 346 l 309 346 l 309 500 l 463 500 l 463 654 l 617 654 l 617 809 l 846 809 l 846 0 l 617 0 l 617 463 l 537 463 l 537 309 l 383 309 l 383 154 l 229 154 l 229 0 l 0 0 l 0 809 z "},"й":{"ha":926,"x_min":0,"x_max":846,"o":"m 154 1272 l 383 1272 l 383 1117 l 463 1117 l 463 1272 l 692 1272 l 692 1080 l 537 1080 l 537 926 l 309 926 l 309 1080 l 154 1080 l 154 1272 m 0 809 l 229 809 l 229 346 l 309 346 l 309 500 l 463 500 l 463 654 l 617 654 l 617 809 l 846 809 l 846 0 l 617 0 l 617 463 l 537 463 l 537 309 l 383 309 l 383 154 l 229 154 l 229 0 l 0 0 l 0 809 z "},"к":{"ha":926,"x_min":0,"x_max":846,"o":"m 0 809 l 229 809 l 229 500 l 463 500 l 463 654 l 617 654 l 617 809 l 846 809 l 846 617 l 692 617 l 692 463 l 537 463 l 537 346 l 692 346 l 692 192 l 846 192 l 846 0 l 617 0 l 617 154 l 463 154 l 463 309 l 229 309 l 229 0 l 0 0 l 0 809 z "},"л":{"ha":926,"x_min":0,"x_max":846,"o":"m 154 809 l 846 809 l 846 0 l 617 0 l 617 617 l 383 617 l 383 309 l 229 309 l 229 0 l 0 0 l 0 346 l 154 346 l 154 809 z "},"м":{"ha":926,"x_min":0,"x_max":846,"o":"m 0 809 l 229 809 l 229 654 l 383 654 l 383 500 l 463 500 l 463 654 l 617 654 l 617 809 l 846 809 l 846 0 l 617 0 l 617 463 l 537 463 l 537 309 l 309 309 l 309 463 l 229 463 l 229 0 l 0 0 l 0 809 z "},"н":{"ha":926,"x_min":0,"x_max":846,"o":"m 0 809 l 229 809 l 229 500 l 617 500 l 617 809 l 846 809 l 846 0 l 617 0 l 617 309 l 229 309 l 229 0 l 0 0 l 0 809 z "},"о":{"ha":926,"x_min":0,"x_max":846,"o":"m 154 809 l 692 809 l 692 654 l 846 654 l 846 154 l 692 154 l 692 0 l 154 0 l 154 154 l 0 154 l 0 654 l 154 654 l 154 809 m 209 627 l 209 182 l 635 182 l 635 627 l 209 627 z "},"п":{"ha":926,"x_min":0,"x_max":846,"o":"m 0 809 l 846 809 l 846 0 l 617 0 l 617 617 l 229 617 l 229 0 l 0 0 l 0 809 z "},"р":{"ha":926,"x_min":0,"x_max":846,"o":"m 0 809 l 229 809 l 229 654 l 309 654 l 309 809 l 692 809 l 692 654 l 846 654 l 846 309 l 692 309 l 692 154 l 229 154 l 229 -154 l 0 -154 l 0 809 m 364 627 l 364 473 l 209 473 l 209 336 l 635 336 l 635 627 l 364 627 z "},"с":{"ha":926,"x_min":0,"x_max":846,"o":"m 154 809 l 692 809 l 692 654 l 846 654 l 846 463 l 617 463 l 617 617 l 229 617 l 229 192 l 617 192 l 617 346 l 846 346 l 846 154 l 692 154 l 692 0 l 154 0 l 154 154 l 0 154 l 0 654 l 154 654 l 154 809 z "},"т":{"ha":926,"x_min":0,"x_max":846,"o":"m 0 809 l 846 809 l 846 617 l 537 617 l 537 0 l 309 0 l 309 617 l 0 617 l 0 809 z "},"у":{"ha":926,"x_min":0,"x_max":846,"o":"m 0 809 l 229 809 l 229 500 l 383 500 l 383 192 l 463 192 l 463 500 l 617 500 l 617 809 l 846 809 l 846 463 l 692 463 l 692 154 l 537 154 l 537 -154 l 383 -154 l 383 -309 l 154 -309 l 154 -117 l 309 -117 l 309 154 l 154 154 l 154 463 l 0 463 l 0 809 z "},"ф":{"ha":926,"x_min":0,"x_max":846,"o":"m 309 1117 l 537 1117 l 537 809 l 692 809 l 692 654 l 846 654 l 846 154 l 692 154 l 692 0 l 537 0 l 537 -309 l 309 -309 l 309 0 l 154 0 l 154 154 l 0 154 l 0 654 l 154 654 l 154 809 l 309 809 l 309 1117 m 209 627 l 209 182 l 327 182 l 327 627 l 209 627 m 518 627 l 518 182 l 635 182 l 635 627 l 518 627 z "},"х":{"ha":926,"x_min":0,"x_max":846,"o":"m 0 809 l 383 809 l 383 500 l 463 500 l 463 809 l 846 809 l 846 617 l 692 617 l 692 463 l 537 463 l 537 346 l 692 346 l 692 192 l 846 192 l 846 0 l 463 0 l 463 309 l 383 309 l 383 0 l 0 0 l 0 192 l 154 192 l 154 346 l 309 346 l 309 463 l 154 463 l 154 617 l 0 617 l 0 809 z "},"ц":{"ha":926,"x_min":0,"x_max":846,"o":"m 0 809 l 229 809 l 229 192 l 463 192 l 463 809 l 692 809 l 692 192 l 846 192 l 846 -154 l 617 -154 l 617 0 l 0 0 l 0 809 z "},"ч":{"ha":926,"x_min":0,"x_max":846,"o":"m 0 809 l 229 809 l 229 346 l 617 346 l 617 809 l 846 809 l 846 0 l 617 0 l 617 154 l 154 154 l 154 309 l 0 309 l 0 809 z "},"ш":{"ha":926,"x_min":0,"x_max":846,"o":"m 0 809 l 229 809 l 229 192 l 309 192 l 309 809 l 537 809 l 537 192 l 617 192 l 617 809 l 846 809 l 846 0 l 0 0 l 0 809 z "},"щ":{"ha":926,"x_min":0,"x_max":846,"o":"m 0 809 l 229 809 l 229 192 l 309 192 l 309 809 l 537 809 l 537 192 l 617 192 l 617 809 l 846 809 l 846 -154 l 617 -154 l 617 0 l 0 0 l 0 809 z "},"ъ":{"ha":926,"x_min":0,"x_max":846,"o":"m 0 809 l 383 809 l 383 654 l 692 654 l 692 500 l 846 500 l 846 154 l 692 154 l 692 0 l 154 0 l 154 617 l 0 617 l 0 809 m 364 473 l 364 182 l 635 182 l 635 473 l 364 473 z "},"ы":{"ha":926,"x_min":0,"x_max":846,"o":"m 0 809 l 229 809 l 229 654 l 537 654 l 537 500 l 617 500 l 617 809 l 846 809 l 846 0 l 617 0 l 617 154 l 537 154 l 537 0 l 0 0 l 0 809 m 209 473 l 209 182 l 481 182 l 481 473 l 209 473 z "},"ь":{"ha":926,"x_min":0,"x_max":846,"o":"m 0 809 l 229 809 l 229 654 l 692 654 l 692 500 l 846 500 l 846 154 l 692 154 l 692 0 l 0 0 l 0 809 m 209 473 l 209 182 l 635 182 l 635 473 l 209 473 z "},"э":{"ha":926,"x_min":0,"x_max":846,"o":"m 154 809 l 692 809 l 692 654 l 846 654 l 846 154 l 692 154 l 692 0 l 154 0 l 154 154 l 0 154 l 0 346 l 229 346 l 229 192 l 617 192 l 617 309 l 309 309 l 309 500 l 617 500 l 617 617 l 229 617 l 229 463 l 0 463 l 0 654 l 154 654 l 154 809 z "},"ю":{"ha":926,"x_min":0,"x_max":846,"o":"m 0 809 l 229 809 l 229 500 l 309 500 l 309 654 l 463 654 l 463 809 l 692 809 l 692 654 l 846 654 l 846 154 l 692 154 l 692 0 l 463 0 l 463 154 l 309 154 l 309 309 l 229 309 l 229 0 l 0 0 l 0 809 m 518 627 l 518 182 l 635 182 l 635 627 l 518 627 z "},"я":{"ha":926,"x_min":0,"x_max":846,"o":"m 154 809 l 846 809 l 846 0 l 617 0 l 617 309 l 229 309 l 229 0 l 0 0 l 0 346 l 154 346 l 154 463 l 0 463 l 0 654 l 154 654 l 154 809 m 209 627 l 209 491 l 635 491 l 635 627 l 209 627 z "},"ѐ":{"ha":926,"x_min":0,"x_max":846,"o":"m 309 1272 l 537 1272 l 537 1117 l 692 1117 l 692 926 l 463 926 l 463 1080 l 309 1080 l 309 1272 m 154 809 l 692 809 l 692 654 l 846 654 l 846 309 l 229 309 l 229 192 l 846 192 l 846 0 l 154 0 l 154 154 l 0 154 l 0 654 l 154 654 l 154 809 m 209 627 l 209 491 l 635 491 l 635 627 l 209 627 z "},"ё":{"ha":926,"x_min":0,"x_max":846,"o":"m 154 1117 l 383 1117 l 383 926 l 154 926 l 154 1117 m 463 1117 l 692 1117 l 692 926 l 463 926 l 463 1117 m 154 809 l 692 809 l 692 654 l 846 654 l 846 309 l 229 309 l 229 192 l 846 192 l 846 0 l 154 0 l 154 154 l 0 154 l 0 654 l 154 654 l 154 809 m 209 627 l 209 491 l 635 491 l 635 627 l 209 627 z "},"ђ":{"ha":926,"x_min":0,"x_max":846,"o":"m 154 1117 l 383 1117 l 383 963 l 537 963 l 537 772 l 383 772 l 383 500 l 463 500 l 463 654 l 692 654 l 692 500 l 846 500 l 846 0 l 692 0 l 692 -154 l 463 -154 l 463 37 l 617 37 l 617 463 l 537 463 l 537 309 l 383 309 l 383 0 l 154 0 l 154 772 l 0 772 l 0 963 l 154 963 l 154 1117 z "},"ѓ":{"ha":926,"x_min":154,"x_max":846,"o":"m 463 1272 l 692 1272 l 692 1080 l 537 1080 l 537 926 l 309 926 l 309 1117 l 463 1117 l 463 1272 m 154 809 l 846 809 l 846 617 l 383 617 l 383 0 l 154 0 l 154 809 z "},"є":{"ha":926,"x_min":0,"x_max":846,"o":"m 154 809 l 692 809 l 692 654 l 846 654 l 846 463 l 617 463 l 617 617 l 229 617 l 229 500 l 537 500 l 537 309 l 229 309 l 229 192 l 617 192 l 617 346 l 846 346 l 846 154 l 692 154 l 692 0 l 154 0 l 154 154 l 0 154 l 0 654 l 154 654 l 154 809 z "},"ѕ":{"ha":926,"x_min":0,"x_max":846,"o":"m 154 809 l 846 809 l 846 617 l 229 617 l 229 500 l 692 500 l 692 346 l 846 346 l 846 154 l 692 154 l 692 0 l 0 0 l 0 192 l 617 192 l 617 309 l 154 309 l 154 463 l 0 463 l 0 654 l 154 654 l 154 809 z "},"і":{"ha":926,"x_min":154,"x_max":692,"o":"m 309 1117 l 537 1117 l 537 926 l 309 926 l 309 1117 m 154 809 l 537 809 l 537 192 l 692 192 l 692 0 l 154 0 l 154 192 l 309 192 l 309 617 l 154 617 l 154 809 z "},"ї":{"ha":926,"x_min":154,"x_max":692,"o":"m 154 1117 l 383 1117 l 383 926 l 154 926 l 154 1117 m 463 1117 l 692 1117 l 692 926 l 463 926 l 463 1117 m 154 809 l 537 809 l 537 192 l 692 192 l 692 0 l 154 0 l 154 192 l 309 192 l 309 617 l 154 617 l 154 809 z "},"ј":{"ha":926,"x_min":0,"x_max":692,"o":"m 463 1117 l 692 1117 l 692 926 l 463 926 l 463 1117 m 309 809 l 692 809 l 692 0 l 537 0 l 537 -154 l 154 -154 l 154 0 l 0 0 l 0 192 l 229 192 l 229 37 l 463 37 l 463 617 l 309 617 l 309 809 z "},"љ":{"ha":926,"x_min":0,"x_max":846,"o":"m 154 809 l 537 809 l 537 500 l 692 500 l 692 346 l 846 346 l 846 154 l 692 154 l 692 0 l 309 0 l 309 617 l 229 617 l 229 0 l 0 0 l 0 654 l 154 654 l 154 809 m 518 318 l 518 182 l 635 182 l 635 318 l 518 318 z "},"њ":{"ha":926,"x_min":0,"x_max":846,"o":"m 0 809 l 229 809 l 229 500 l 309 500 l 309 809 l 537 809 l 537 500 l 692 500 l 692 346 l 846 346 l 846 154 l 692 154 l 692 0 l 309 0 l 309 309 l 229 309 l 229 0 l 0 0 l 0 809 m 518 318 l 518 182 l 635 182 l 635 318 l 518 318 z "},"ћ":{"ha":926,"x_min":0,"x_max":846,"o":"m 154 1117 l 383 1117 l 383 963 l 537 963 l 537 772 l 383 772 l 383 500 l 463 500 l 463 654 l 692 654 l 692 500 l 846 500 l 846 0 l 617 0 l 617 463 l 537 463 l 537 309 l 383 309 l 383 0 l 154 0 l 154 772 l 0 772 l 0 963 l 154 963 l 154 1117 z "},"ќ":{"ha":926,"x_min":0,"x_max":846,"o":"m 463 1272 l 692 1272 l 692 1080 l 537 1080 l 537 926 l 309 926 l 309 1117 l 463 1117 l 463 1272 m 0 809 l 229 809 l 229 500 l 463 500 l 463 654 l 617 654 l 617 809 l 846 809 l 846 617 l 692 617 l 692 463 l 537 463 l 537 346 l 692 346 l 692 192 l 846 192 l 846 0 l 617 0 l 617 154 l 463 154 l 463 309 l 229 309 l 229 0 l 0 0 l 0 809 z "},"ѝ":{"ha":926,"x_min":0,"x_max":846,"o":"m 309 1272 l 537 1272 l 537 1117 l 692 1117 l 692 926 l 463 926 l 463 1080 l 309 1080 l 309 1272 m 0 809 l 229 809 l 229 346 l 309 346 l 309 500 l 463 500 l 463 654 l 617 654 l 617 809 l 846 809 l 846 0 l 617 0 l 617 463 l 537 463 l 537 309 l 383 309 l 383 154 l 229 154 l 229 0 l 0 0 l 0 809 z "},"ў":{"ha":926,"x_min":0,"x_max":846,"o":"m 154 1272 l 383 1272 l 383 1117 l 463 1117 l 463 1272 l 692 1272 l 692 1080 l 537 1080 l 537 926 l 309 926 l 309 1080 l 154 1080 l 154 1272 m 0 809 l 229 809 l 229 500 l 383 500 l 383 192 l 463 192 l 463 500 l 617 500 l 617 809 l 846 809 l 846 463 l 692 463 l 692 154 l 537 154 l 537 -154 l 383 -154 l 383 -309 l 154 -309 l 154 -117 l 309 -117 l 309 154 l 154 154 l 154 463 l 0 463 l 0 809 z "},"џ":{"ha":926,"x_min":0,"x_max":846,"o":"m 0 809 l 229 809 l 229 192 l 617 192 l 617 809 l 846 809 l 846 0 l 537 0 l 537 -154 l 309 -154 l 309 0 l 0 0 l 0 809 z "},"⁰":{"ha":926,"x_min":154,"x_max":692,"o":"m 309 1117 l 537 1117 l 537 963 l 692 963 l 692 617 l 537 617 l 537 463 l 309 463 l 309 617 l 154 617 l 154 963 l 309 963 l 309 1117 m 364 936 l 364 645 l 481 645 l 481 936 l 364 936 z "},"ⁱ":{"ha":926,"x_min":309,"x_max":537,"o":"m 309 1117 l 537 1117 l 537 926 l 309 926 l 309 1117 m 309 809 l 537 809 l 537 463 l 309 463 l 309 809 z "},"⁴":{"ha":926,"x_min":154,"x_max":692,"o":"m 463 1117 l 692 1117 l 692 463 l 463 463 l 463 617 l 154 617 l 154 963 l 383 963 l 383 809 l 463 809 l 463 1117 z "},"⁵":{"ha":926,"x_min":154,"x_max":692,"o":"m 154 1117 l 692 1117 l 692 926 l 383 926 l 383 809 l 692 809 l 692 617 l 537 617 l 537 463 l 154 463 l 154 654 l 309 654 l 309 772 l 154 772 l 154 1117 z "},"⁶":{"ha":926,"x_min":154,"x_max":692,"o":"m 309 1117 l 537 1117 l 537 926 l 383 926 l 383 809 l 692 809 l 692 617 l 537 617 l 537 463 l 309 463 l 309 617 l 154 617 l 154 963 l 309 963 l 309 1117 z "},"⁷":{"ha":926,"x_min":154,"x_max":692,"o":"m 154 1117 l 692 1117 l 692 772 l 537 772 l 537 463 l 309 463 l 309 809 l 463 809 l 463 926 l 154 926 l 154 1117 z "},"⁸":{"ha":926,"x_min":154,"x_max":692,"o":"m 309 1272 l 537 1272 l 537 1117 l 692 1117 l 692 926 l 537 926 l 537 809 l 692 809 l 692 617 l 537 617 l 537 463 l 309 463 l 309 617 l 154 617 l 154 809 l 309 809 l 309 926 l 154 926 l 154 1117 l 309 1117 l 309 1272 m 364 1090 l 364 953 l 481 953 l 481 1090 l 364 1090 m 364 781 l 364 645 l 481 645 l 481 781 l 364 781 z "},"⁹":{"ha":926,"x_min":154,"x_max":692,"o":"m 309 1117 l 537 1117 l 537 963 l 692 963 l 692 617 l 537 617 l 537 463 l 309 463 l 309 654 l 463 654 l 463 772 l 154 772 l 154 963 l 309 963 l 309 1117 z "},"⁺":{"ha":926,"x_min":154,"x_max":692,"o":"m 309 1117 l 537 1117 l 537 963 l 692 963 l 692 772 l 537 772 l 537 617 l 309 617 l 309 772 l 154 772 l 154 963 l 309 963 l 309 1117 z "},"⁻":{"ha":926,"x_min":154,"x_max":692,"o":"m 154 963 l 692 963 l 692 772 l 154 772 l 154 963 z "},"⁼":{"ha":926,"x_min":154,"x_max":692,"o":"m 154 1117 l 692 1117 l 692 926 l 154 926 l 154 1117 m 154 809 l 692 809 l 692 617 l 154 617 l 154 809 z "},"⁽":{"ha":926,"x_min":309,"x_max":692,"o":"m 463 1272 l 692 1272 l 692 1080 l 537 1080 l 537 500 l 692 500 l 692 309 l 463 309 l 463 463 l 309 463 l 309 1117 l 463 1117 l 463 1272 z "},"⁾":{"ha":926,"x_min":154,"x_max":537,"o":"m 154 1272 l 383 1272 l 383 1117 l 537 1117 l 537 463 l 383 463 l 383 309 l 154 309 l 154 500 l 309 500 l 309 1080 l 154 1080 l 154 1272 z "},"ⁿ":{"ha":926,"x_min":0,"x_max":692,"o":"m 0 1117 l 229 1117 l 229 963 l 309 963 l 309 1117 l 537 1117 l 537 963 l 692 963 l 692 463 l 463 463 l 463 926 l 383 926 l 383 772 l 229 772 l 229 463 l 0 463 l 0 1117 z "},"₀":{"ha":926,"x_min":154,"x_max":692,"o":"m 309 346 l 537 346 l 537 192 l 692 192 l 692 -154 l 537 -154 l 537 -309 l 309 -309 l 309 -154 l 154 -154 l 154 192 l 309 192 l 309 346 m 364 164 l 364 -127 l 481 -127 l 481 164 l 364 164 z "},"₁":{"ha":926,"x_min":154,"x_max":692,"o":"m 309 346 l 537 346 l 537 -117 l 692 -117 l 692 -309 l 154 -309 l 154 -117 l 309 -117 l 309 0 l 154 0 l 154 192 l 309 192 l 309 346 z "},"₂":{"ha":926,"x_min":154,"x_max":692,"o":"m 154 346 l 537 346 l 537 192 l 692 192 l 692 0 l 537 0 l 537 -117 l 692 -117 l 692 -309 l 154 -309 l 154 -117 l 309 -117 l 309 37 l 463 37 l 463 154 l 154 154 l 154 346 z "},"₃":{"ha":926,"x_min":154,"x_max":692,"o":"m 154 346 l 537 346 l 537 192 l 692 192 l 692 -154 l 537 -154 l 537 -309 l 154 -309 l 154 -117 l 463 -117 l 463 0 l 309 0 l 309 154 l 154 154 l 154 346 z "},"₄":{"ha":926,"x_min":154,"x_max":692,"o":"m 463 346 l 692 346 l 692 -309 l 463 -309 l 463 -154 l 154 -154 l 154 192 l 383 192 l 383 37 l 463 37 l 463 346 z "},"₅":{"ha":926,"x_min":154,"x_max":692,"o":"m 154 346 l 692 346 l 692 154 l 383 154 l 383 37 l 692 37 l 692 -154 l 537 -154 l 537 -309 l 154 -309 l 154 -117 l 309 -117 l 309 0 l 154 0 l 154 346 z "},"₆":{"ha":926,"x_min":154,"x_max":692,"o":"m 309 346 l 537 346 l 537 154 l 383 154 l 383 37 l 692 37 l 692 -154 l 537 -154 l 537 -309 l 309 -309 l 309 -154 l 154 -154 l 154 192 l 309 192 l 309 346 z "},"₇":{"ha":926,"x_min":154,"x_max":692,"o":"m 154 346 l 692 346 l 692 0 l 537 0 l 537 -309 l 309 -309 l 309 37 l 463 37 l 463 154 l 154 154 l 154 346 z "},"₈":{"ha":926,"x_min":154,"x_max":692,"o":"m 309 500 l 537 500 l 537 346 l 692 346 l 692 154 l 537 154 l 537 37 l 692 37 l 692 -154 l 537 -154 l 537 -309 l 309 -309 l 309 -154 l 154 -154 l 154 37 l 309 37 l 309 154 l 154 154 l 154 346 l 309 346 l 309 500 m 364 318 l 364 182 l 481 182 l 481 318 l 364 318 m 364 10 l 364 -127 l 481 -127 l 481 10 l 364 10 z "},"₉":{"ha":926,"x_min":154,"x_max":692,"o":"m 309 346 l 537 346 l 537 192 l 692 192 l 692 -154 l 537 -154 l 537 -309 l 309 -309 l 309 -117 l 463 -117 l 463 0 l 154 0 l 154 192 l 309 192 l 309 346 z "},"₊":{"ha":926,"x_min":154,"x_max":692,"o":"m 309 346 l 537 346 l 537 192 l 692 192 l 692 0 l 537 0 l 537 -154 l 309 -154 l 309 0 l 154 0 l 154 192 l 309 192 l 309 346 z "},"₋":{"ha":926,"x_min":154,"x_max":692,"o":"m 154 192 l 692 192 l 692 0 l 154 0 l 154 192 z "},"₌":{"ha":926,"x_min":154,"x_max":692,"o":"m 154 346 l 692 346 l 692 154 l 154 154 l 154 346 m 154 37 l 692 37 l 692 -154 l 154 -154 l 154 37 z "},"₍":{"ha":926,"x_min":309,"x_max":692,"o":"m 463 500 l 692 500 l 692 309 l 537 309 l 537 -117 l 692 -117 l 692 -309 l 463 -309 l 463 -154 l 309 -154 l 309 346 l 463 346 l 463 500 z "},"₎":{"ha":926,"x_min":154,"x_max":537,"o":"m 154 500 l 383 500 l 383 346 l 537 346 l 537 -154 l 383 -154 l 383 -309 l 154 -309 l 154 -117 l 309 -117 l 309 309 l 154 309 l 154 500 z "},"ₐ":{"ha":926,"x_min":154,"x_max":846,"o":"m 309 500 l 692 500 l 692 37 l 846 37 l 846 -154 l 617 -154 l 617 0 l 537 0 l 537 -154 l 309 -154 l 309 0 l 154 0 l 154 346 l 309 346 l 309 500 m 364 318 l 364 28 l 481 28 l 481 318 l 364 318 z "},"ₑ":{"ha":926,"x_min":154,"x_max":692,"o":"m 309 500 l 537 500 l 537 346 l 692 346 l 692 154 l 383 154 l 383 37 l 692 37 l 692 -154 l 309 -154 l 309 0 l 154 0 l 154 346 l 309 346 l 309 500 z "},"ₒ":{"ha":926,"x_min":0,"x_max":692,"o":"m 154 500 l 537 500 l 537 346 l 692 346 l 692 0 l 537 0 l 537 -154 l 154 -154 l 154 0 l 0 0 l 0 346 l 154 346 l 154 500 m 209 318 l 209 28 l 481 28 l 481 318 l 209 318 z "},"ₓ":{"ha":926,"x_min":0,"x_max":692,"o":"m 0 500 l 229 500 l 229 346 l 463 346 l 463 500 l 692 500 l 692 309 l 537 309 l 537 37 l 692 37 l 692 -154 l 463 -154 l 463 0 l 229 0 l 229 -154 l 0 -154 l 0 37 l 154 37 l 154 309 l 0 309 l 0 500 z "},"ₕ":{"ha":926,"x_min":0,"x_max":692,"o":"m 0 654 l 229 654 l 229 192 l 309 192 l 309 346 l 537 346 l 537 192 l 692 192 l 692 -154 l 463 -154 l 463 154 l 383 154 l 383 0 l 229 0 l 229 -154 l 0 -154 l 0 654 z "},"ₖ":{"ha":926,"x_min":154,"x_max":692,"o":"m 154 654 l 383 654 l 383 192 l 463 192 l 463 346 l 692 346 l 692 154 l 537 154 l 537 37 l 692 37 l 692 -154 l 463 -154 l 463 0 l 383 0 l 383 -154 l 154 -154 l 154 654 z "},"ₗ":{"ha":926,"x_min":309,"x_max":692,"o":"m 309 654 l 537 654 l 537 37 l 692 37 l 692 -154 l 463 -154 l 463 0 l 309 0 l 309 654 z "},"ₘ":{"ha":926,"x_min":0,"x_max":846,"o":"m 0 500 l 383 500 l 383 346 l 463 346 l 463 500 l 692 500 l 692 346 l 846 346 l 846 -154 l 617 -154 l 617 309 l 537 309 l 537 -154 l 309 -154 l 309 309 l 229 309 l 229 -154 l 0 -154 l 0 500 z "},"ₙ":{"ha":926,"x_min":0,"x_max":692,"o":"m 0 500 l 229 500 l 229 346 l 309 346 l 309 500 l 537 500 l 537 346 l 692 346 l 692 -154 l 463 -154 l 463 309 l 383 309 l 383 154 l 229 154 l 229 -154 l 0 -154 l 0 500 z "},"ₚ":{"ha":926,"x_min":0,"x_max":692,"o":"m 0 500 l 229 500 l 229 346 l 309 346 l 309 500 l 537 500 l 537 346 l 692 346 l 692 0 l 537 0 l 537 -154 l 229 -154 l 229 -309 l 0 -309 l 0 500 m 364 318 l 364 164 l 209 164 l 209 28 l 481 28 l 481 318 l 364 318 z "},"ₛ":{"ha":926,"x_min":154,"x_max":692,"o":"m 309 500 l 692 500 l 692 309 l 383 309 l 383 192 l 692 192 l 692 0 l 537 0 l 537 -154 l 154 -154 l 154 37 l 309 37 l 309 154 l 154 154 l 154 346 l 309 346 l 309 500 z "},"ₜ":{"ha":926,"x_min":154,"x_max":692,"o":"m 309 654 l 537 654 l 537 500 l 692 500 l 692 309 l 537 309 l 537 37 l 692 37 l 692 -154 l 463 -154 l 463 0 l 309 0 l 309 309 l 154 309 l 154 500 l 309 500 l 309 654 z "},"⠁":{"ha":926,"x_min":154,"x_max":383,"o":"m 154 963 l 383 963 l 383 772 l 154 772 l 154 963 z "},"⠂":{"ha":926,"x_min":154,"x_max":383,"o":"m 154 654 l 383 654 l 383 463 l 154 463 l 154 654 z "},"⠃":{"ha":926,"x_min":154,"x_max":383,"o":"m 154 963 l 383 963 l 383 772 l 154 772 l 154 963 m 154 654 l 383 654 l 383 463 l 154 463 l 154 654 z "},"⠄":{"ha":926,"x_min":154,"x_max":383,"o":"m 154 346 l 383 346 l 383 154 l 154 154 l 154 346 z "},"⠅":{"ha":926,"x_min":154,"x_max":383,"o":"m 154 963 l 383 963 l 383 772 l 154 772 l 154 963 m 154 346 l 383 346 l 383 154 l 154 154 l 154 346 z "},"⠆":{"ha":926,"x_min":154,"x_max":383,"o":"m 154 654 l 383 654 l 383 463 l 154 463 l 154 654 m 154 346 l 383 346 l 383 154 l 154 154 l 154 346 z "},"⠇":{"ha":926,"x_min":154,"x_max":383,"o":"m 154 963 l 383 963 l 383 772 l 154 772 l 154 963 m 154 654 l 383 654 l 383 463 l 154 463 l 154 654 m 154 346 l 383 346 l 383 154 l 154 154 l 154 346 z "},"⠈":{"ha":926,"x_min":463,"x_max":692,"o":"m 463 963 l 692 963 l 692 772 l 463 772 l 463 963 z "},"⠉":{"ha":926,"x_min":154,"x_max":692,"o":"m 154 963 l 383 963 l 383 772 l 154 772 l 154 963 m 463 963 l 692 963 l 692 772 l 463 772 l 463 963 z "},"⠊":{"ha":926,"x_min":154,"x_max":692,"o":"m 463 963 l 692 963 l 692 772 l 463 772 l 463 963 m 154 654 l 383 654 l 383 463 l 154 463 l 154 654 z "},"⠋":{"ha":926,"x_min":154,"x_max":692,"o":"m 154 963 l 383 963 l 383 772 l 154 772 l 154 963 m 463 963 l 692 963 l 692 772 l 463 772 l 463 963 m 154 654 l 383 654 l 383 463 l 154 463 l 154 654 z "},"⠌":{"ha":926,"x_min":154,"x_max":692,"o":"m 463 963 l 692 963 l 692 772 l 463 772 l 463 963 m 154 346 l 383 346 l 383 154 l 154 154 l 154 346 z "},"⠍":{"ha":926,"x_min":154,"x_max":692,"o":"m 154 963 l 383 963 l 383 772 l 154 772 l 154 963 m 463 963 l 692 963 l 692 772 l 463 772 l 463 963 m 154 346 l 383 346 l 383 154 l 154 154 l 154 346 z "},"⠎":{"ha":926,"x_min":154,"x_max":692,"o":"m 463 963 l 692 963 l 692 772 l 463 772 l 463 963 m 154 654 l 383 654 l 383 463 l 154 463 l 154 654 m 154 346 l 383 346 l 383 154 l 154 154 l 154 346 z "},"⠏":{"ha":926,"x_min":154,"x_max":692,"o":"m 154 963 l 383 963 l 383 772 l 154 772 l 154 963 m 463 963 l 692 963 l 692 772 l 463 772 l 463 963 m 154 654 l 383 654 l 383 463 l 154 463 l 154 654 m 154 346 l 383 346 l 383 154 l 154 154 l 154 346 z "},"⠐":{"ha":926,"x_min":463,"x_max":692,"o":"m 463 654 l 692 654 l 692 463 l 463 463 l 463 654 z "},"⠑":{"ha":926,"x_min":154,"x_max":692,"o":"m 154 963 l 383 963 l 383 772 l 154 772 l 154 963 m 463 654 l 692 654 l 692 463 l 463 463 l 463 654 z "},"⠒":{"ha":926,"x_min":154,"x_max":692,"o":"m 154 654 l 383 654 l 383 463 l 154 463 l 154 654 m 463 654 l 692 654 l 692 463 l 463 463 l 463 654 z "},"⠓":{"ha":926,"x_min":154,"x_max":692,"o":"m 154 963 l 383 963 l 383 772 l 154 772 l 154 963 m 154 654 l 383 654 l 383 463 l 154 463 l 154 654 m 463 654 l 692 654 l 692 463 l 463 463 l 463 654 z "},"⠔":{"ha":926,"x_min":154,"x_max":692,"o":"m 463 654 l 692 654 l 692 463 l 463 463 l 463 654 m 154 346 l 383 346 l 383 154 l 154 154 l 154 346 z "},"⠕":{"ha":926,"x_min":154,"x_max":692,"o":"m 154 963 l 383 963 l 383 772 l 154 772 l 154 963 m 463 654 l 692 654 l 692 463 l 463 463 l 463 654 m 154 346 l 383 346 l 383 154 l 154 154 l 154 346 z "},"⠖":{"ha":926,"x_min":154,"x_max":692,"o":"m 154 654 l 383 654 l 383 463 l 154 463 l 154 654 m 463 654 l 692 654 l 692 463 l 463 463 l 463 654 m 154 346 l 383 346 l 383 154 l 154 154 l 154 346 z "},"⠗":{"ha":926,"x_min":154,"x_max":692,"o":"m 154 963 l 383 963 l 383 772 l 154 772 l 154 963 m 154 654 l 383 654 l 383 463 l 154 463 l 154 654 m 463 654 l 692 654 l 692 463 l 463 463 l 463 654 m 154 346 l 383 346 l 383 154 l 154 154 l 154 346 z "},"⠘":{"ha":926,"x_min":463,"x_max":692,"o":"m 463 963 l 692 963 l 692 772 l 463 772 l 463 963 m 463 654 l 692 654 l 692 463 l 463 463 l 463 654 z "},"⠙":{"ha":926,"x_min":154,"x_max":692,"o":"m 154 963 l 383 963 l 383 772 l 154 772 l 154 963 m 463 963 l 692 963 l 692 772 l 463 772 l 463 963 m 463 654 l 692 654 l 692 463 l 463 463 l 463 654 z "},"⠚":{"ha":926,"x_min":154,"x_max":692,"o":"m 463 963 l 692 963 l 692 772 l 463 772 l 463 963 m 154 654 l 383 654 l 383 463 l 154 463 l 154 654 m 463 654 l 692 654 l 692 463 l 463 463 l 463 654 z "},"⠛":{"ha":926,"x_min":154,"x_max":692,"o":"m 154 963 l 383 963 l 383 772 l 154 772 l 154 963 m 463 963 l 692 963 l 692 772 l 463 772 l 463 963 m 154 654 l 383 654 l 383 463 l 154 463 l 154 654 m 463 654 l 692 654 l 692 463 l 463 463 l 463 654 z "},"⠜":{"ha":926,"x_min":154,"x_max":692,"o":"m 463 963 l 692 963 l 692 772 l 463 772 l 463 963 m 463 654 l 692 654 l 692 463 l 463 463 l 463 654 m 154 346 l 383 346 l 383 154 l 154 154 l 154 346 z "},"⠝":{"ha":926,"x_min":154,"x_max":692,"o":"m 154 963 l 383 963 l 383 772 l 154 772 l 154 963 m 463 963 l 692 963 l 692 772 l 463 772 l 463 963 m 463 654 l 692 654 l 692 463 l 463 463 l 463 654 m 154 346 l 383 346 l 383 154 l 154 154 l 154 346 z "},"⠞":{"ha":926,"x_min":154,"x_max":692,"o":"m 463 963 l 692 963 l 692 772 l 463 772 l 463 963 m 154 654 l 383 654 l 383 463 l 154 463 l 154 654 m 463 654 l 692 654 l 692 463 l 463 463 l 463 654 m 154 346 l 383 346 l 383 154 l 154 154 l 154 346 z "},"⠟":{"ha":926,"x_min":154,"x_max":692,"o":"m 154 963 l 383 963 l 383 772 l 154 772 l 154 963 m 463 963 l 692 963 l 692 772 l 463 772 l 463 963 m 154 654 l 383 654 l 383 463 l 154 463 l 154 654 m 463 654 l 692 654 l 692 463 l 463 463 l 463 654 m 154 346 l 383 346 l 383 154 l 154 154 l 154 346 z "},"⠠":{"ha":926,"x_min":463,"x_max":692,"o":"m 463 346 l 692 346 l 692 154 l 463 154 l 463 346 z "},"⠡":{"ha":926,"x_min":154,"x_max":692,"o":"m 154 963 l 383 963 l 383 772 l 154 772 l 154 963 m 463 346 l 692 346 l 692 154 l 463 154 l 463 346 z "},"⠢":{"ha":926,"x_min":154,"x_max":692,"o":"m 154 654 l 383 654 l 383 463 l 154 463 l 154 654 m 463 346 l 692 346 l 692 154 l 463 154 l 463 346 z "},"⠣":{"ha":926,"x_min":154,"x_max":692,"o":"m 154 963 l 383 963 l 383 772 l 154 772 l 154 963 m 154 654 l 383 654 l 383 463 l 154 463 l 154 654 m 463 346 l 692 346 l 692 154 l 463 154 l 463 346 z "},"⠤":{"ha":926,"x_min":154,"x_max":692,"o":"m 154 346 l 383 346 l 383 154 l 154 154 l 154 346 m 463 346 l 692 346 l 692 154 l 463 154 l 463 346 z "},"⠥":{"ha":926,"x_min":154,"x_max":692,"o":"m 154 963 l 383 963 l 383 772 l 154 772 l 154 963 m 154 346 l 383 346 l 383 154 l 154 154 l 154 346 m 463 346 l 692 346 l 692 154 l 463 154 l 463 346 z "},"⠦":{"ha":926,"x_min":154,"x_max":692,"o":"m 154 654 l 383 654 l 383 463 l 154 463 l 154 654 m 154 346 l 383 346 l 383 154 l 154 154 l 154 346 m 463 346 l 692 346 l 692 154 l 463 154 l 463 346 z "},"⠧":{"ha":926,"x_min":154,"x_max":692,"o":"m 154 963 l 383 963 l 383 772 l 154 772 l 154 963 m 154 654 l 383 654 l 383 463 l 154 463 l 154 654 m 154 346 l 383 346 l 383 154 l 154 154 l 154 346 m 463 346 l 692 346 l 692 154 l 463 154 l 463 346 z "},"⠨":{"ha":926,"x_min":463,"x_max":692,"o":"m 463 963 l 692 963 l 692 772 l 463 772 l 463 963 m 463 346 l 692 346 l 692 154 l 463 154 l 463 346 z "},"⠩":{"ha":926,"x_min":154,"x_max":692,"o":"m 154 963 l 383 963 l 383 772 l 154 772 l 154 963 m 463 963 l 692 963 l 692 772 l 463 772 l 463 963 m 463 346 l 692 346 l 692 154 l 463 154 l 463 346 z "},"⠪":{"ha":926,"x_min":154,"x_max":692,"o":"m 463 963 l 692 963 l 692 772 l 463 772 l 463 963 m 154 654 l 383 654 l 383 463 l 154 463 l 154 654 m 463 346 l 692 346 l 692 154 l 463 154 l 463 346 z "},"⠫":{"ha":926,"x_min":154,"x_max":692,"o":"m 154 963 l 383 963 l 383 772 l 154 772 l 154 963 m 463 963 l 692 963 l 692 772 l 463 772 l 463 963 m 154 654 l 383 654 l 383 463 l 154 463 l 154 654 m 463 346 l 692 346 l 692 154 l 463 154 l 463 346 z "},"⠬":{"ha":926,"x_min":154,"x_max":692,"o":"m 463 963 l 692 963 l 692 772 l 463 772 l 463 963 m 154 346 l 383 346 l 383 154 l 154 154 l 154 346 m 463 346 l 692 346 l 692 154 l 463 154 l 463 346 z "},"⠭":{"ha":926,"x_min":154,"x_max":692,"o":"m 154 963 l 383 963 l 383 772 l 154 772 l 154 963 m 463 963 l 692 963 l 692 772 l 463 772 l 463 963 m 154 346 l 383 346 l 383 154 l 154 154 l 154 346 m 463 346 l 692 346 l 692 154 l 463 154 l 463 346 z "},"⠮":{"ha":926,"x_min":154,"x_max":692,"o":"m 463 963 l 692 963 l 692 772 l 463 772 l 463 963 m 154 654 l 383 654 l 383 463 l 154 463 l 154 654 m 154 346 l 383 346 l 383 154 l 154 154 l 154 346 m 463 346 l 692 346 l 692 154 l 463 154 l 463 346 z "},"⠯":{"ha":926,"x_min":154,"x_max":692,"o":"m 154 963 l 383 963 l 383 772 l 154 772 l 154 963 m 463 963 l 692 963 l 692 772 l 463 772 l 463 963 m 154 654 l 383 654 l 383 463 l 154 463 l 154 654 m 154 346 l 383 346 l 383 154 l 154 154 l 154 346 m 463 346 l 692 346 l 692 154 l 463 154 l 463 346 z "},"⠰":{"ha":926,"x_min":463,"x_max":692,"o":"m 463 654 l 692 654 l 692 463 l 463 463 l 463 654 m 463 346 l 692 346 l 692 154 l 463 154 l 463 346 z "},"⠱":{"ha":926,"x_min":154,"x_max":692,"o":"m 154 963 l 383 963 l 383 772 l 154 772 l 154 963 m 463 654 l 692 654 l 692 463 l 463 463 l 463 654 m 463 346 l 692 346 l 692 154 l 463 154 l 463 346 z "},"⠲":{"ha":926,"x_min":154,"x_max":692,"o":"m 154 654 l 383 654 l 383 463 l 154 463 l 154 654 m 463 654 l 692 654 l 692 463 l 463 463 l 463 654 m 463 346 l 692 346 l 692 154 l 463 154 l 463 346 z "},"⠳":{"ha":926,"x_min":154,"x_max":692,"o":"m 154 963 l 383 963 l 383 772 l 154 772 l 154 963 m 154 654 l 383 654 l 383 463 l 154 463 l 154 654 m 463 654 l 692 654 l 692 463 l 463 463 l 463 654 m 463 346 l 692 346 l 692 154 l 463 154 l 463 346 z "},"⠴":{"ha":926,"x_min":154,"x_max":692,"o":"m 463 654 l 692 654 l 692 463 l 463 463 l 463 654 m 154 346 l 383 346 l 383 154 l 154 154 l 154 346 m 463 346 l 692 346 l 692 154 l 463 154 l 463 346 z "},"⠵":{"ha":926,"x_min":154,"x_max":692,"o":"m 154 963 l 383 963 l 383 772 l 154 772 l 154 963 m 463 654 l 692 654 l 692 463 l 463 463 l 463 654 m 154 346 l 383 346 l 383 154 l 154 154 l 154 346 m 463 346 l 692 346 l 692 154 l 463 154 l 463 346 z "},"⠶":{"ha":926,"x_min":154,"x_max":692,"o":"m 154 654 l 383 654 l 383 463 l 154 463 l 154 654 m 463 654 l 692 654 l 692 463 l 463 463 l 463 654 m 154 346 l 383 346 l 383 154 l 154 154 l 154 346 m 463 346 l 692 346 l 692 154 l 463 154 l 463 346 z "},"⠷":{"ha":926,"x_min":154,"x_max":692,"o":"m 154 963 l 383 963 l 383 772 l 154 772 l 154 963 m 154 654 l 383 654 l 383 463 l 154 463 l 154 654 m 463 654 l 692 654 l 692 463 l 463 463 l 463 654 m 154 346 l 383 346 l 383 154 l 154 154 l 154 346 m 463 346 l 692 346 l 692 154 l 463 154 l 463 346 z "},"⠸":{"ha":926,"x_min":463,"x_max":692,"o":"m 463 963 l 692 963 l 692 772 l 463 772 l 463 963 m 463 654 l 692 654 l 692 463 l 463 463 l 463 654 m 463 346 l 692 346 l 692 154 l 463 154 l 463 346 z "},"⠹":{"ha":926,"x_min":154,"x_max":692,"o":"m 154 963 l 383 963 l 383 772 l 154 772 l 154 963 m 463 963 l 692 963 l 692 772 l 463 772 l 463 963 m 463 654 l 692 654 l 692 463 l 463 463 l 463 654 m 463 346 l 692 346 l 692 154 l 463 154 l 463 346 z "},"⠺":{"ha":926,"x_min":154,"x_max":692,"o":"m 463 963 l 692 963 l 692 772 l 463 772 l 463 963 m 154 654 l 383 654 l 383 463 l 154 463 l 154 654 m 463 654 l 692 654 l 692 463 l 463 463 l 463 654 m 463 346 l 692 346 l 692 154 l 463 154 l 463 346 z "},"⠻":{"ha":926,"x_min":154,"x_max":692,"o":"m 154 963 l 383 963 l 383 772 l 154 772 l 154 963 m 463 963 l 692 963 l 692 772 l 463 772 l 463 963 m 154 654 l 383 654 l 383 463 l 154 463 l 154 654 m 463 654 l 692 654 l 692 463 l 463 463 l 463 654 m 463 346 l 692 346 l 692 154 l 463 154 l 463 346 z "},"⠼":{"ha":926,"x_min":154,"x_max":692,"o":"m 463 963 l 692 963 l 692 772 l 463 772 l 463 963 m 463 654 l 692 654 l 692 463 l 463 463 l 463 654 m 154 346 l 383 346 l 383 154 l 154 154 l 154 346 m 463 346 l 692 346 l 692 154 l 463 154 l 463 346 z "},"⠽":{"ha":926,"x_min":154,"x_max":692,"o":"m 154 963 l 383 963 l 383 772 l 154 772 l 154 963 m 463 963 l 692 963 l 692 772 l 463 772 l 463 963 m 463 654 l 692 654 l 692 463 l 463 463 l 463 654 m 154 346 l 383 346 l 383 154 l 154 154 l 154 346 m 463 346 l 692 346 l 692 154 l 463 154 l 463 346 z "},"⠾":{"ha":926,"x_min":154,"x_max":692,"o":"m 463 963 l 692 963 l 692 772 l 463 772 l 463 963 m 154 654 l 383 654 l 383 463 l 154 463 l 154 654 m 463 654 l 692 654 l 692 463 l 463 463 l 463 654 m 154 346 l 383 346 l 383 154 l 154 154 l 154 346 m 463 346 l 692 346 l 692 154 l 463 154 l 463 346 z "},"⠿":{"ha":926,"x_min":154,"x_max":692,"o":"m 154 963 l 383 963 l 383 772 l 154 772 l 154 963 m 463 963 l 692 963 l 692 772 l 463 772 l 463 963 m 154 654 l 383 654 l 383 463 l 154 463 l 154 654 m 463 654 l 692 654 l 692 463 l 463 463 l 463 654 m 154 346 l 383 346 l 383 154 l 154 154 l 154 346 m 463 346 l 692 346 l 692 154 l 463 154 l 463 346 z "},"⡀":{"ha":926,"x_min":154,"x_max":383,"o":"m 154 37 l 383 37 l 383 -154 l 154 -154 l 154 37 z "},"⡁":{"ha":926,"x_min":154,"x_max":383,"o":"m 154 963 l 383 963 l 383 772 l 154 772 l 154 963 m 154 37 l 383 37 l 383 -154 l 154 -154 l 154 37 z "},"⡂":{"ha":926,"x_min":154,"x_max":383,"o":"m 154 654 l 383 654 l 383 463 l 154 463 l 154 654 m 154 37 l 383 37 l 383 -154 l 154 -154 l 154 37 z "},"⡃":{"ha":926,"x_min":154,"x_max":383,"o":"m 154 963 l 383 963 l 383 772 l 154 772 l 154 963 m 154 654 l 383 654 l 383 463 l 154 463 l 154 654 m 154 37 l 383 37 l 383 -154 l 154 -154 l 154 37 z "},"⡄":{"ha":926,"x_min":154,"x_max":383,"o":"m 154 346 l 383 346 l 383 154 l 154 154 l 154 346 m 154 37 l 383 37 l 383 -154 l 154 -154 l 154 37 z "},"⡅":{"ha":926,"x_min":154,"x_max":383,"o":"m 154 963 l 383 963 l 383 772 l 154 772 l 154 963 m 154 346 l 383 346 l 383 154 l 154 154 l 154 346 m 154 37 l 383 37 l 383 -154 l 154 -154 l 154 37 z "},"⡆":{"ha":926,"x_min":154,"x_max":383,"o":"m 154 654 l 383 654 l 383 463 l 154 463 l 154 654 m 154 346 l 383 346 l 383 154 l 154 154 l 154 346 m 154 37 l 383 37 l 383 -154 l 154 -154 l 154 37 z "},"⡇":{"ha":926,"x_min":154,"x_max":383,"o":"m 154 963 l 383 963 l 383 772 l 154 772 l 154 963 m 154 654 l 383 654 l 383 463 l 154 463 l 154 654 m 154 346 l 383 346 l 383 154 l 154 154 l 154 346 m 154 37 l 383 37 l 383 -154 l 154 -154 l 154 37 z "},"⡈":{"ha":926,"x_min":154,"x_max":692,"o":"m 463 963 l 692 963 l 692 772 l 463 772 l 463 963 m 154 37 l 383 37 l 383 -154 l 154 -154 l 154 37 z "},"⡉":{"ha":926,"x_min":154,"x_max":692,"o":"m 154 963 l 383 963 l 383 772 l 154 772 l 154 963 m 463 963 l 692 963 l 692 772 l 463 772 l 463 963 m 154 37 l 383 37 l 383 -154 l 154 -154 l 154 37 z "},"⡊":{"ha":926,"x_min":154,"x_max":692,"o":"m 463 963 l 692 963 l 692 772 l 463 772 l 463 963 m 154 654 l 383 654 l 383 463 l 154 463 l 154 654 m 154 37 l 383 37 l 383 -154 l 154 -154 l 154 37 z "},"⡋":{"ha":926,"x_min":154,"x_max":692,"o":"m 154 963 l 383 963 l 383 772 l 154 772 l 154 963 m 463 963 l 692 963 l 692 772 l 463 772 l 463 963 m 154 654 l 383 654 l 383 463 l 154 463 l 154 654 m 154 37 l 383 37 l 383 -154 l 154 -154 l 154 37 z "},"⡌":{"ha":926,"x_min":154,"x_max":692,"o":"m 463 963 l 692 963 l 692 772 l 463 772 l 463 963 m 154 346 l 383 346 l 383 154 l 154 154 l 154 346 m 154 37 l 383 37 l 383 -154 l 154 -154 l 154 37 z "},"⡍":{"ha":926,"x_min":154,"x_max":692,"o":"m 154 963 l 383 963 l 383 772 l 154 772 l 154 963 m 463 963 l 692 963 l 692 772 l 463 772 l 463 963 m 154 346 l 383 346 l 383 154 l 154 154 l 154 346 m 154 37 l 383 37 l 383 -154 l 154 -154 l 154 37 z "},"⡎":{"ha":926,"x_min":154,"x_max":692,"o":"m 463 963 l 692 963 l 692 772 l 463 772 l 463 963 m 154 654 l 383 654 l 383 463 l 154 463 l 154 654 m 154 346 l 383 346 l 383 154 l 154 154 l 154 346 m 154 37 l 383 37 l 383 -154 l 154 -154 l 154 37 z "},"⡏":{"ha":926,"x_min":154,"x_max":692,"o":"m 154 963 l 383 963 l 383 772 l 154 772 l 154 963 m 463 963 l 692 963 l 692 772 l 463 772 l 463 963 m 154 654 l 383 654 l 383 463 l 154 463 l 154 654 m 154 346 l 383 346 l 383 154 l 154 154 l 154 346 m 154 37 l 383 37 l 383 -154 l 154 -154 l 154 37 z "},"⡐":{"ha":926,"x_min":154,"x_max":692,"o":"m 463 654 l 692 654 l 692 463 l 463 463 l 463 654 m 154 37 l 383 37 l 383 -154 l 154 -154 l 154 37 z "},"⡑":{"ha":926,"x_min":154,"x_max":692,"o":"m 154 963 l 383 963 l 383 772 l 154 772 l 154 963 m 463 654 l 692 654 l 692 463 l 463 463 l 463 654 m 154 37 l 383 37 l 383 -154 l 154 -154 l 154 37 z "},"⡒":{"ha":926,"x_min":154,"x_max":692,"o":"m 154 654 l 383 654 l 383 463 l 154 463 l 154 654 m 463 654 l 692 654 l 692 463 l 463 463 l 463 654 m 154 37 l 383 37 l 383 -154 l 154 -154 l 154 37 z "},"⡓":{"ha":926,"x_min":154,"x_max":692,"o":"m 154 963 l 383 963 l 383 772 l 154 772 l 154 963 m 154 654 l 383 654 l 383 463 l 154 463 l 154 654 m 463 654 l 692 654 l 692 463 l 463 463 l 463 654 m 154 37 l 383 37 l 383 -154 l 154 -154 l 154 37 z "},"⡔":{"ha":926,"x_min":154,"x_max":692,"o":"m 463 654 l 692 654 l 692 463 l 463 463 l 463 654 m 154 346 l 383 346 l 383 154 l 154 154 l 154 346 m 154 37 l 383 37 l 383 -154 l 154 -154 l 154 37 z "},"⡕":{"ha":926,"x_min":154,"x_max":692,"o":"m 154 963 l 383 963 l 383 772 l 154 772 l 154 963 m 463 654 l 692 654 l 692 463 l 463 463 l 463 654 m 154 346 l 383 346 l 383 154 l 154 154 l 154 346 m 154 37 l 383 37 l 383 -154 l 154 -154 l 154 37 z "},"⡖":{"ha":926,"x_min":154,"x_max":692,"o":"m 154 654 l 383 654 l 383 463 l 154 463 l 154 654 m 463 654 l 692 654 l 692 463 l 463 463 l 463 654 m 154 346 l 383 346 l 383 154 l 154 154 l 154 346 m 154 37 l 383 37 l 383 -154 l 154 -154 l 154 37 z "},"⡗":{"ha":926,"x_min":154,"x_max":692,"o":"m 154 963 l 383 963 l 383 772 l 154 772 l 154 963 m 154 654 l 383 654 l 383 463 l 154 463 l 154 654 m 463 654 l 692 654 l 692 463 l 463 463 l 463 654 m 154 346 l 383 346 l 383 154 l 154 154 l 154 346 m 154 37 l 383 37 l 383 -154 l 154 -154 l 154 37 z "},"⡘":{"ha":926,"x_min":154,"x_max":692,"o":"m 463 963 l 692 963 l 692 772 l 463 772 l 463 963 m 463 654 l 692 654 l 692 463 l 463 463 l 463 654 m 154 37 l 383 37 l 383 -154 l 154 -154 l 154 37 z "},"⡙":{"ha":926,"x_min":154,"x_max":692,"o":"m 154 963 l 383 963 l 383 772 l 154 772 l 154 963 m 463 963 l 692 963 l 692 772 l 463 772 l 463 963 m 463 654 l 692 654 l 692 463 l 463 463 l 463 654 m 154 37 l 383 37 l 383 -154 l 154 -154 l 154 37 z "},"⡚":{"ha":926,"x_min":154,"x_max":692,"o":"m 463 963 l 692 963 l 692 772 l 463 772 l 463 963 m 154 654 l 383 654 l 383 463 l 154 463 l 154 654 m 463 654 l 692 654 l 692 463 l 463 463 l 463 654 m 154 37 l 383 37 l 383 -154 l 154 -154 l 154 37 z "},"⡛":{"ha":926,"x_min":154,"x_max":692,"o":"m 154 963 l 383 963 l 383 772 l 154 772 l 154 963 m 463 963 l 692 963 l 692 772 l 463 772 l 463 963 m 154 654 l 383 654 l 383 463 l 154 463 l 154 654 m 463 654 l 692 654 l 692 463 l 463 463 l 463 654 m 154 37 l 383 37 l 383 -154 l 154 -154 l 154 37 z "},"⡜":{"ha":926,"x_min":154,"x_max":692,"o":"m 463 963 l 692 963 l 692 772 l 463 772 l 463 963 m 463 654 l 692 654 l 692 463 l 463 463 l 463 654 m 154 346 l 383 346 l 383 154 l 154 154 l 154 346 m 154 37 l 383 37 l 383 -154 l 154 -154 l 154 37 z "},"⡝":{"ha":926,"x_min":154,"x_max":692,"o":"m 154 963 l 383 963 l 383 772 l 154 772 l 154 963 m 463 963 l 692 963 l 692 772 l 463 772 l 463 963 m 463 654 l 692 654 l 692 463 l 463 463 l 463 654 m 154 346 l 383 346 l 383 154 l 154 154 l 154 346 m 154 37 l 383 37 l 383 -154 l 154 -154 l 154 37 z "},"⡞":{"ha":926,"x_min":154,"x_max":692,"o":"m 463 963 l 692 963 l 692 772 l 463 772 l 463 963 m 154 654 l 383 654 l 383 463 l 154 463 l 154 654 m 463 654 l 692 654 l 692 463 l 463 463 l 463 654 m 154 346 l 383 346 l 383 154 l 154 154 l 154 346 m 154 37 l 383 37 l 383 -154 l 154 -154 l 154 37 z "},"⡟":{"ha":926,"x_min":154,"x_max":692,"o":"m 154 963 l 383 963 l 383 772 l 154 772 l 154 963 m 463 963 l 692 963 l 692 772 l 463 772 l 463 963 m 154 654 l 383 654 l 383 463 l 154 463 l 154 654 m 463 654 l 692 654 l 692 463 l 463 463 l 463 654 m 154 346 l 383 346 l 383 154 l 154 154 l 154 346 m 154 37 l 383 37 l 383 -154 l 154 -154 l 154 37 z "},"⡠":{"ha":926,"x_min":154,"x_max":692,"o":"m 463 346 l 692 346 l 692 154 l 463 154 l 463 346 m 154 37 l 383 37 l 383 -154 l 154 -154 l 154 37 z "},"⡡":{"ha":926,"x_min":154,"x_max":692,"o":"m 154 963 l 383 963 l 383 772 l 154 772 l 154 963 m 463 346 l 692 346 l 692 154 l 463 154 l 463 346 m 154 37 l 383 37 l 383 -154 l 154 -154 l 154 37 z "},"⡢":{"ha":926,"x_min":154,"x_max":692,"o":"m 154 654 l 383 654 l 383 463 l 154 463 l 154 654 m 463 346 l 692 346 l 692 154 l 463 154 l 463 346 m 154 37 l 383 37 l 383 -154 l 154 -154 l 154 37 z "},"⡣":{"ha":926,"x_min":154,"x_max":692,"o":"m 154 963 l 383 963 l 383 772 l 154 772 l 154 963 m 154 654 l 383 654 l 383 463 l 154 463 l 154 654 m 463 346 l 692 346 l 692 154 l 463 154 l 463 346 m 154 37 l 383 37 l 383 -154 l 154 -154 l 154 37 z "},"⡤":{"ha":926,"x_min":154,"x_max":692,"o":"m 154 346 l 383 346 l 383 154 l 154 154 l 154 346 m 463 346 l 692 346 l 692 154 l 463 154 l 463 346 m 154 37 l 383 37 l 383 -154 l 154 -154 l 154 37 z "},"⡥":{"ha":926,"x_min":154,"x_max":692,"o":"m 154 963 l 383 963 l 383 772 l 154 772 l 154 963 m 154 346 l 383 346 l 383 154 l 154 154 l 154 346 m 463 346 l 692 346 l 692 154 l 463 154 l 463 346 m 154 37 l 383 37 l 383 -154 l 154 -154 l 154 37 z "},"⡦":{"ha":926,"x_min":154,"x_max":692,"o":"m 154 654 l 383 654 l 383 463 l 154 463 l 154 654 m 154 346 l 383 346 l 383 154 l 154 154 l 154 346 m 463 346 l 692 346 l 692 154 l 463 154 l 463 346 m 154 37 l 383 37 l 383 -154 l 154 -154 l 154 37 z "},"⡧":{"ha":926,"x_min":154,"x_max":692,"o":"m 154 963 l 383 963 l 383 772 l 154 772 l 154 963 m 154 654 l 383 654 l 383 463 l 154 463 l 154 654 m 154 346 l 383 346 l 383 154 l 154 154 l 154 346 m 463 346 l 692 346 l 692 154 l 463 154 l 463 346 m 154 37 l 383 37 l 383 -154 l 154 -154 l 154 37 z "},"⡨":{"ha":926,"x_min":154,"x_max":692,"o":"m 463 963 l 692 963 l 692 772 l 463 772 l 463 963 m 463 346 l 692 346 l 692 154 l 463 154 l 463 346 m 154 37 l 383 37 l 383 -154 l 154 -154 l 154 37 z "},"⡩":{"ha":926,"x_min":154,"x_max":692,"o":"m 154 963 l 383 963 l 383 772 l 154 772 l 154 963 m 463 963 l 692 963 l 692 772 l 463 772 l 463 963 m 463 346 l 692 346 l 692 154 l 463 154 l 463 346 m 154 37 l 383 37 l 383 -154 l 154 -154 l 154 37 z "},"⡪":{"ha":926,"x_min":154,"x_max":692,"o":"m 463 963 l 692 963 l 692 772 l 463 772 l 463 963 m 154 654 l 383 654 l 383 463 l 154 463 l 154 654 m 463 346 l 692 346 l 692 154 l 463 154 l 463 346 m 154 37 l 383 37 l 383 -154 l 154 -154 l 154 37 z "},"⡫":{"ha":926,"x_min":154,"x_max":692,"o":"m 154 963 l 383 963 l 383 772 l 154 772 l 154 963 m 463 963 l 692 963 l 692 772 l 463 772 l 463 963 m 154 654 l 383 654 l 383 463 l 154 463 l 154 654 m 463 346 l 692 346 l 692 154 l 463 154 l 463 346 m 154 37 l 383 37 l 383 -154 l 154 -154 l 154 37 z "},"⡬":{"ha":926,"x_min":154,"x_max":692,"o":"m 463 963 l 692 963 l 692 772 l 463 772 l 463 963 m 154 346 l 383 346 l 383 154 l 154 154 l 154 346 m 463 346 l 692 346 l 692 154 l 463 154 l 463 346 m 154 37 l 383 37 l 383 -154 l 154 -154 l 154 37 z "},"⡭":{"ha":926,"x_min":154,"x_max":692,"o":"m 154 963 l 383 963 l 383 772 l 154 772 l 154 963 m 463 963 l 692 963 l 692 772 l 463 772 l 463 963 m 154 346 l 383 346 l 383 154 l 154 154 l 154 346 m 463 346 l 692 346 l 692 154 l 463 154 l 463 346 m 154 37 l 383 37 l 383 -154 l 154 -154 l 154 37 z "},"⡮":{"ha":926,"x_min":154,"x_max":692,"o":"m 463 963 l 692 963 l 692 772 l 463 772 l 463 963 m 154 654 l 383 654 l 383 463 l 154 463 l 154 654 m 154 346 l 383 346 l 383 154 l 154 154 l 154 346 m 463 346 l 692 346 l 692 154 l 463 154 l 463 346 m 154 37 l 383 37 l 383 -154 l 154 -154 l 154 37 z "},"⡯":{"ha":926,"x_min":154,"x_max":692,"o":"m 154 963 l 383 963 l 383 772 l 154 772 l 154 963 m 463 963 l 692 963 l 692 772 l 463 772 l 463 963 m 154 654 l 383 654 l 383 463 l 154 463 l 154 654 m 154 346 l 383 346 l 383 154 l 154 154 l 154 346 m 463 346 l 692 346 l 692 154 l 463 154 l 463 346 m 154 37 l 383 37 l 383 -154 l 154 -154 l 154 37 z "},"⡰":{"ha":926,"x_min":154,"x_max":692,"o":"m 463 654 l 692 654 l 692 463 l 463 463 l 463 654 m 463 346 l 692 346 l 692 154 l 463 154 l 463 346 m 154 37 l 383 37 l 383 -154 l 154 -154 l 154 37 z "},"⡱":{"ha":926,"x_min":154,"x_max":692,"o":"m 154 963 l 383 963 l 383 772 l 154 772 l 154 963 m 463 654 l 692 654 l 692 463 l 463 463 l 463 654 m 463 346 l 692 346 l 692 154 l 463 154 l 463 346 m 154 37 l 383 37 l 383 -154 l 154 -154 l 154 37 z "},"⡲":{"ha":926,"x_min":154,"x_max":692,"o":"m 154 654 l 383 654 l 383 463 l 154 463 l 154 654 m 463 654 l 692 654 l 692 463 l 463 463 l 463 654 m 463 346 l 692 346 l 692 154 l 463 154 l 463 346 m 154 37 l 383 37 l 383 -154 l 154 -154 l 154 37 z "},"⡳":{"ha":926,"x_min":154,"x_max":692,"o":"m 154 963 l 383 963 l 383 772 l 154 772 l 154 963 m 154 654 l 383 654 l 383 463 l 154 463 l 154 654 m 463 654 l 692 654 l 692 463 l 463 463 l 463 654 m 463 346 l 692 346 l 692 154 l 463 154 l 463 346 m 154 37 l 383 37 l 383 -154 l 154 -154 l 154 37 z "},"⡴":{"ha":926,"x_min":154,"x_max":692,"o":"m 463 654 l 692 654 l 692 463 l 463 463 l 463 654 m 154 346 l 383 346 l 383 154 l 154 154 l 154 346 m 463 346 l 692 346 l 692 154 l 463 154 l 463 346 m 154 37 l 383 37 l 383 -154 l 154 -154 l 154 37 z "},"⡵":{"ha":926,"x_min":154,"x_max":692,"o":"m 154 963 l 383 963 l 383 772 l 154 772 l 154 963 m 463 654 l 692 654 l 692 463 l 463 463 l 463 654 m 154 346 l 383 346 l 383 154 l 154 154 l 154 346 m 463 346 l 692 346 l 692 154 l 463 154 l 463 346 m 154 37 l 383 37 l 383 -154 l 154 -154 l 154 37 z "},"⡶":{"ha":926,"x_min":154,"x_max":692,"o":"m 154 654 l 383 654 l 383 463 l 154 463 l 154 654 m 463 654 l 692 654 l 692 463 l 463 463 l 463 654 m 154 346 l 383 346 l 383 154 l 154 154 l 154 346 m 463 346 l 692 346 l 692 154 l 463 154 l 463 346 m 154 37 l 383 37 l 383 -154 l 154 -154 l 154 37 z "},"⡷":{"ha":926,"x_min":154,"x_max":692,"o":"m 154 963 l 383 963 l 383 772 l 154 772 l 154 963 m 154 654 l 383 654 l 383 463 l 154 463 l 154 654 m 463 654 l 692 654 l 692 463 l 463 463 l 463 654 m 154 346 l 383 346 l 383 154 l 154 154 l 154 346 m 463 346 l 692 346 l 692 154 l 463 154 l 463 346 m 154 37 l 383 37 l 383 -154 l 154 -154 l 154 37 z "},"⡸":{"ha":926,"x_min":154,"x_max":692,"o":"m 463 963 l 692 963 l 692 772 l 463 772 l 463 963 m 463 654 l 692 654 l 692 463 l 463 463 l 463 654 m 463 346 l 692 346 l 692 154 l 463 154 l 463 346 m 154 37 l 383 37 l 383 -154 l 154 -154 l 154 37 z "},"⡹":{"ha":926,"x_min":154,"x_max":692,"o":"m 154 963 l 383 963 l 383 772 l 154 772 l 154 963 m 463 963 l 692 963 l 692 772 l 463 772 l 463 963 m 463 654 l 692 654 l 692 463 l 463 463 l 463 654 m 463 346 l 692 346 l 692 154 l 463 154 l 463 346 m 154 37 l 383 37 l 383 -154 l 154 -154 l 154 37 z "},"⡺":{"ha":926,"x_min":154,"x_max":692,"o":"m 463 963 l 692 963 l 692 772 l 463 772 l 463 963 m 154 654 l 383 654 l 383 463 l 154 463 l 154 654 m 463 654 l 692 654 l 692 463 l 463 463 l 463 654 m 463 346 l 692 346 l 692 154 l 463 154 l 463 346 m 154 37 l 383 37 l 383 -154 l 154 -154 l 154 37 z "},"⡻":{"ha":926,"x_min":154,"x_max":692,"o":"m 154 963 l 383 963 l 383 772 l 154 772 l 154 963 m 463 963 l 692 963 l 692 772 l 463 772 l 463 963 m 154 654 l 383 654 l 383 463 l 154 463 l 154 654 m 463 654 l 692 654 l 692 463 l 463 463 l 463 654 m 463 346 l 692 346 l 692 154 l 463 154 l 463 346 m 154 37 l 383 37 l 383 -154 l 154 -154 l 154 37 z "},"⡼":{"ha":926,"x_min":154,"x_max":692,"o":"m 463 963 l 692 963 l 692 772 l 463 772 l 463 963 m 463 654 l 692 654 l 692 463 l 463 463 l 463 654 m 154 346 l 383 346 l 383 154 l 154 154 l 154 346 m 463 346 l 692 346 l 692 154 l 463 154 l 463 346 m 154 37 l 383 37 l 383 -154 l 154 -154 l 154 37 z "},"⡽":{"ha":926,"x_min":154,"x_max":692,"o":"m 154 963 l 383 963 l 383 772 l 154 772 l 154 963 m 463 963 l 692 963 l 692 772 l 463 772 l 463 963 m 463 654 l 692 654 l 692 463 l 463 463 l 463 654 m 154 346 l 383 346 l 383 154 l 154 154 l 154 346 m 463 346 l 692 346 l 692 154 l 463 154 l 463 346 m 154 37 l 383 37 l 383 -154 l 154 -154 l 154 37 z "},"⡾":{"ha":926,"x_min":154,"x_max":692,"o":"m 463 963 l 692 963 l 692 772 l 463 772 l 463 963 m 154 654 l 383 654 l 383 463 l 154 463 l 154 654 m 463 654 l 692 654 l 692 463 l 463 463 l 463 654 m 154 346 l 383 346 l 383 154 l 154 154 l 154 346 m 463 346 l 692 346 l 692 154 l 463 154 l 463 346 m 154 37 l 383 37 l 383 -154 l 154 -154 l 154 37 z "},"⡿":{"ha":926,"x_min":154,"x_max":692,"o":"m 154 963 l 383 963 l 383 772 l 154 772 l 154 963 m 463 963 l 692 963 l 692 772 l 463 772 l 463 963 m 154 654 l 383 654 l 383 463 l 154 463 l 154 654 m 463 654 l 692 654 l 692 463 l 463 463 l 463 654 m 154 346 l 383 346 l 383 154 l 154 154 l 154 346 m 463 346 l 692 346 l 692 154 l 463 154 l 463 346 m 154 37 l 383 37 l 383 -154 l 154 -154 l 154 37 z "},"⢀":{"ha":926,"x_min":463,"x_max":692,"o":"m 463 37 l 692 37 l 692 -154 l 463 -154 l 463 37 z "},"⢁":{"ha":926,"x_min":154,"x_max":692,"o":"m 154 963 l 383 963 l 383 772 l 154 772 l 154 963 m 463 37 l 692 37 l 692 -154 l 463 -154 l 463 37 z "},"⢂":{"ha":926,"x_min":154,"x_max":692,"o":"m 154 654 l 383 654 l 383 463 l 154 463 l 154 654 m 463 37 l 692 37 l 692 -154 l 463 -154 l 463 37 z "},"⢃":{"ha":926,"x_min":154,"x_max":692,"o":"m 154 963 l 383 963 l 383 772 l 154 772 l 154 963 m 154 654 l 383 654 l 383 463 l 154 463 l 154 654 m 463 37 l 692 37 l 692 -154 l 463 -154 l 463 37 z "},"⢄":{"ha":926,"x_min":154,"x_max":692,"o":"m 154 346 l 383 346 l 383 154 l 154 154 l 154 346 m 463 37 l 692 37 l 692 -154 l 463 -154 l 463 37 z "},"⢅":{"ha":926,"x_min":154,"x_max":692,"o":"m 154 963 l 383 963 l 383 772 l 154 772 l 154 963 m 154 346 l 383 346 l 383 154 l 154 154 l 154 346 m 463 37 l 692 37 l 692 -154 l 463 -154 l 463 37 z "},"⢆":{"ha":926,"x_min":154,"x_max":692,"o":"m 154 654 l 383 654 l 383 463 l 154 463 l 154 654 m 154 346 l 383 346 l 383 154 l 154 154 l 154 346 m 463 37 l 692 37 l 692 -154 l 463 -154 l 463 37 z "},"⢇":{"ha":926,"x_min":154,"x_max":692,"o":"m 154 963 l 383 963 l 383 772 l 154 772 l 154 963 m 154 654 l 383 654 l 383 463 l 154 463 l 154 654 m 154 346 l 383 346 l 383 154 l 154 154 l 154 346 m 463 37 l 692 37 l 692 -154 l 463 -154 l 463 37 z "},"⢈":{"ha":926,"x_min":463,"x_max":692,"o":"m 463 963 l 692 963 l 692 772 l 463 772 l 463 963 m 463 37 l 692 37 l 692 -154 l 463 -154 l 463 37 z "},"⢉":{"ha":926,"x_min":154,"x_max":692,"o":"m 154 963 l 383 963 l 383 772 l 154 772 l 154 963 m 463 963 l 692 963 l 692 772 l 463 772 l 463 963 m 463 37 l 692 37 l 692 -154 l 463 -154 l 463 37 z "},"⢊":{"ha":926,"x_min":154,"x_max":692,"o":"m 463 963 l 692 963 l 692 772 l 463 772 l 463 963 m 154 654 l 383 654 l 383 463 l 154 463 l 154 654 m 463 37 l 692 37 l 692 -154 l 463 -154 l 463 37 z "},"⢋":{"ha":926,"x_min":154,"x_max":692,"o":"m 154 963 l 383 963 l 383 772 l 154 772 l 154 963 m 463 963 l 692 963 l 692 772 l 463 772 l 463 963 m 154 654 l 383 654 l 383 463 l 154 463 l 154 654 m 463 37 l 692 37 l 692 -154 l 463 -154 l 463 37 z "},"⢌":{"ha":926,"x_min":154,"x_max":692,"o":"m 463 963 l 692 963 l 692 772 l 463 772 l 463 963 m 154 346 l 383 346 l 383 154 l 154 154 l 154 346 m 463 37 l 692 37 l 692 -154 l 463 -154 l 463 37 z "},"⢍":{"ha":926,"x_min":154,"x_max":692,"o":"m 154 963 l 383 963 l 383 772 l 154 772 l 154 963 m 463 963 l 692 963 l 692 772 l 463 772 l 463 963 m 154 346 l 383 346 l 383 154 l 154 154 l 154 346 m 463 37 l 692 37 l 692 -154 l 463 -154 l 463 37 z "},"⢎":{"ha":926,"x_min":154,"x_max":692,"o":"m 463 963 l 692 963 l 692 772 l 463 772 l 463 963 m 154 654 l 383 654 l 383 463 l 154 463 l 154 654 m 154 346 l 383 346 l 383 154 l 154 154 l 154 346 m 463 37 l 692 37 l 692 -154 l 463 -154 l 463 37 z "},"⢏":{"ha":926,"x_min":154,"x_max":692,"o":"m 154 963 l 383 963 l 383 772 l 154 772 l 154 963 m 463 963 l 692 963 l 692 772 l 463 772 l 463 963 m 154 654 l 383 654 l 383 463 l 154 463 l 154 654 m 154 346 l 383 346 l 383 154 l 154 154 l 154 346 m 463 37 l 692 37 l 692 -154 l 463 -154 l 463 37 z "},"⢐":{"ha":926,"x_min":463,"x_max":692,"o":"m 463 654 l 692 654 l 692 463 l 463 463 l 463 654 m 463 37 l 692 37 l 692 -154 l 463 -154 l 463 37 z "},"⢑":{"ha":926,"x_min":154,"x_max":692,"o":"m 154 963 l 383 963 l 383 772 l 154 772 l 154 963 m 463 654 l 692 654 l 692 463 l 463 463 l 463 654 m 463 37 l 692 37 l 692 -154 l 463 -154 l 463 37 z "},"⢒":{"ha":926,"x_min":154,"x_max":692,"o":"m 154 654 l 383 654 l 383 463 l 154 463 l 154 654 m 463 654 l 692 654 l 692 463 l 463 463 l 463 654 m 463 37 l 692 37 l 692 -154 l 463 -154 l 463 37 z "},"⢓":{"ha":926,"x_min":154,"x_max":692,"o":"m 154 963 l 383 963 l 383 772 l 154 772 l 154 963 m 154 654 l 383 654 l 383 463 l 154 463 l 154 654 m 463 654 l 692 654 l 692 463 l 463 463 l 463 654 m 463 37 l 692 37 l 692 -154 l 463 -154 l 463 37 z "},"⢔":{"ha":926,"x_min":154,"x_max":692,"o":"m 463 654 l 692 654 l 692 463 l 463 463 l 463 654 m 154 346 l 383 346 l 383 154 l 154 154 l 154 346 m 463 37 l 692 37 l 692 -154 l 463 -154 l 463 37 z "},"⢕":{"ha":926,"x_min":154,"x_max":692,"o":"m 154 963 l 383 963 l 383 772 l 154 772 l 154 963 m 463 654 l 692 654 l 692 463 l 463 463 l 463 654 m 154 346 l 383 346 l 383 154 l 154 154 l 154 346 m 463 37 l 692 37 l 692 -154 l 463 -154 l 463 37 z "},"⢖":{"ha":926,"x_min":154,"x_max":692,"o":"m 154 654 l 383 654 l 383 463 l 154 463 l 154 654 m 463 654 l 692 654 l 692 463 l 463 463 l 463 654 m 154 346 l 383 346 l 383 154 l 154 154 l 154 346 m 463 37 l 692 37 l 692 -154 l 463 -154 l 463 37 z "},"⢗":{"ha":926,"x_min":154,"x_max":692,"o":"m 154 963 l 383 963 l 383 772 l 154 772 l 154 963 m 154 654 l 383 654 l 383 463 l 154 463 l 154 654 m 463 654 l 692 654 l 692 463 l 463 463 l 463 654 m 154 346 l 383 346 l 383 154 l 154 154 l 154 346 m 463 37 l 692 37 l 692 -154 l 463 -154 l 463 37 z "},"⢘":{"ha":926,"x_min":463,"x_max":692,"o":"m 463 963 l 692 963 l 692 772 l 463 772 l 463 963 m 463 654 l 692 654 l 692 463 l 463 463 l 463 654 m 463 37 l 692 37 l 692 -154 l 463 -154 l 463 37 z "},"⢙":{"ha":926,"x_min":154,"x_max":692,"o":"m 154 963 l 383 963 l 383 772 l 154 772 l 154 963 m 463 963 l 692 963 l 692 772 l 463 772 l 463 963 m 463 654 l 692 654 l 692 463 l 463 463 l 463 654 m 463 37 l 692 37 l 692 -154 l 463 -154 l 463 37 z "},"⢚":{"ha":926,"x_min":154,"x_max":692,"o":"m 463 963 l 692 963 l 692 772 l 463 772 l 463 963 m 154 654 l 383 654 l 383 463 l 154 463 l 154 654 m 463 654 l 692 654 l 692 463 l 463 463 l 463 654 m 463 37 l 692 37 l 692 -154 l 463 -154 l 463 37 z "},"⢛":{"ha":926,"x_min":154,"x_max":692,"o":"m 154 963 l 383 963 l 383 772 l 154 772 l 154 963 m 463 963 l 692 963 l 692 772 l 463 772 l 463 963 m 154 654 l 383 654 l 383 463 l 154 463 l 154 654 m 463 654 l 692 654 l 692 463 l 463 463 l 463 654 m 463 37 l 692 37 l 692 -154 l 463 -154 l 463 37 z "},"⢜":{"ha":926,"x_min":154,"x_max":692,"o":"m 463 963 l 692 963 l 692 772 l 463 772 l 463 963 m 463 654 l 692 654 l 692 463 l 463 463 l 463 654 m 154 346 l 383 346 l 383 154 l 154 154 l 154 346 m 463 37 l 692 37 l 692 -154 l 463 -154 l 463 37 z "},"⢝":{"ha":926,"x_min":154,"x_max":692,"o":"m 154 963 l 383 963 l 383 772 l 154 772 l 154 963 m 463 963 l 692 963 l 692 772 l 463 772 l 463 963 m 463 654 l 692 654 l 692 463 l 463 463 l 463 654 m 154 346 l 383 346 l 383 154 l 154 154 l 154 346 m 463 37 l 692 37 l 692 -154 l 463 -154 l 463 37 z "},"⢞":{"ha":926,"x_min":154,"x_max":692,"o":"m 463 963 l 692 963 l 692 772 l 463 772 l 463 963 m 154 654 l 383 654 l 383 463 l 154 463 l 154 654 m 463 654 l 692 654 l 692 463 l 463 463 l 463 654 m 154 346 l 383 346 l 383 154 l 154 154 l 154 346 m 463 37 l 692 37 l 692 -154 l 463 -154 l 463 37 z "},"⢟":{"ha":926,"x_min":154,"x_max":692,"o":"m 154 963 l 383 963 l 383 772 l 154 772 l 154 963 m 463 963 l 692 963 l 692 772 l 463 772 l 463 963 m 154 654 l 383 654 l 383 463 l 154 463 l 154 654 m 463 654 l 692 654 l 692 463 l 463 463 l 463 654 m 154 346 l 383 346 l 383 154 l 154 154 l 154 346 m 463 37 l 692 37 l 692 -154 l 463 -154 l 463 37 z "},"⢠":{"ha":926,"x_min":463,"x_max":692,"o":"m 463 346 l 692 346 l 692 154 l 463 154 l 463 346 m 463 37 l 692 37 l 692 -154 l 463 -154 l 463 37 z "},"⢡":{"ha":926,"x_min":154,"x_max":692,"o":"m 154 963 l 383 963 l 383 772 l 154 772 l 154 963 m 463 346 l 692 346 l 692 154 l 463 154 l 463 346 m 463 37 l 692 37 l 692 -154 l 463 -154 l 463 37 z "},"⢢":{"ha":926,"x_min":154,"x_max":692,"o":"m 154 654 l 383 654 l 383 463 l 154 463 l 154 654 m 463 346 l 692 346 l 692 154 l 463 154 l 463 346 m 463 37 l 692 37 l 692 -154 l 463 -154 l 463 37 z "},"⢣":{"ha":926,"x_min":154,"x_max":692,"o":"m 154 963 l 383 963 l 383 772 l 154 772 l 154 963 m 154 654 l 383 654 l 383 463 l 154 463 l 154 654 m 463 346 l 692 346 l 692 154 l 463 154 l 463 346 m 463 37 l 692 37 l 692 -154 l 463 -154 l 463 37 z "},"⢤":{"ha":926,"x_min":154,"x_max":692,"o":"m 154 346 l 383 346 l 383 154 l 154 154 l 154 346 m 463 346 l 692 346 l 692 154 l 463 154 l 463 346 m 463 37 l 692 37 l 692 -154 l 463 -154 l 463 37 z "},"⢥":{"ha":926,"x_min":154,"x_max":692,"o":"m 154 963 l 383 963 l 383 772 l 154 772 l 154 963 m 154 346 l 383 346 l 383 154 l 154 154 l 154 346 m 463 346 l 692 346 l 692 154 l 463 154 l 463 346 m 463 37 l 692 37 l 692 -154 l 463 -154 l 463 37 z "},"⢦":{"ha":926,"x_min":154,"x_max":692,"o":"m 154 654 l 383 654 l 383 463 l 154 463 l 154 654 m 154 346 l 383 346 l 383 154 l 154 154 l 154 346 m 463 346 l 692 346 l 692 154 l 463 154 l 463 346 m 463 37 l 692 37 l 692 -154 l 463 -154 l 463 37 z "},"⢧":{"ha":926,"x_min":154,"x_max":692,"o":"m 154 963 l 383 963 l 383 772 l 154 772 l 154 963 m 154 654 l 383 654 l 383 463 l 154 463 l 154 654 m 154 346 l 383 346 l 383 154 l 154 154 l 154 346 m 463 346 l 692 346 l 692 154 l 463 154 l 463 346 m 463 37 l 692 37 l 692 -154 l 463 -154 l 463 37 z "},"⢨":{"ha":926,"x_min":463,"x_max":692,"o":"m 463 963 l 692 963 l 692 772 l 463 772 l 463 963 m 463 346 l 692 346 l 692 154 l 463 154 l 463 346 m 463 37 l 692 37 l 692 -154 l 463 -154 l 463 37 z "},"⢩":{"ha":926,"x_min":154,"x_max":692,"o":"m 154 963 l 383 963 l 383 772 l 154 772 l 154 963 m 463 963 l 692 963 l 692 772 l 463 772 l 463 963 m 463 346 l 692 346 l 692 154 l 463 154 l 463 346 m 463 37 l 692 37 l 692 -154 l 463 -154 l 463 37 z "},"⢪":{"ha":926,"x_min":154,"x_max":692,"o":"m 463 963 l 692 963 l 692 772 l 463 772 l 463 963 m 154 654 l 383 654 l 383 463 l 154 463 l 154 654 m 463 346 l 692 346 l 692 154 l 463 154 l 463 346 m 463 37 l 692 37 l 692 -154 l 463 -154 l 463 37 z "},"⢫":{"ha":926,"x_min":154,"x_max":692,"o":"m 154 963 l 383 963 l 383 772 l 154 772 l 154 963 m 463 963 l 692 963 l 692 772 l 463 772 l 463 963 m 154 654 l 383 654 l 383 463 l 154 463 l 154 654 m 463 346 l 692 346 l 692 154 l 463 154 l 463 346 m 463 37 l 692 37 l 692 -154 l 463 -154 l 463 37 z "},"⢬":{"ha":926,"x_min":154,"x_max":692,"o":"m 463 963 l 692 963 l 692 772 l 463 772 l 463 963 m 154 346 l 383 346 l 383 154 l 154 154 l 154 346 m 463 346 l 692 346 l 692 154 l 463 154 l 463 346 m 463 37 l 692 37 l 692 -154 l 463 -154 l 463 37 z "},"⢭":{"ha":926,"x_min":154,"x_max":692,"o":"m 154 963 l 383 963 l 383 772 l 154 772 l 154 963 m 463 963 l 692 963 l 692 772 l 463 772 l 463 963 m 154 346 l 383 346 l 383 154 l 154 154 l 154 346 m 463 346 l 692 346 l 692 154 l 463 154 l 463 346 m 463 37 l 692 37 l 692 -154 l 463 -154 l 463 37 z "},"⢮":{"ha":926,"x_min":154,"x_max":692,"o":"m 463 963 l 692 963 l 692 772 l 463 772 l 463 963 m 154 654 l 383 654 l 383 463 l 154 463 l 154 654 m 154 346 l 383 346 l 383 154 l 154 154 l 154 346 m 463 346 l 692 346 l 692 154 l 463 154 l 463 346 m 463 37 l 692 37 l 692 -154 l 463 -154 l 463 37 z "},"⢯":{"ha":926,"x_min":154,"x_max":692,"o":"m 154 963 l 383 963 l 383 772 l 154 772 l 154 963 m 463 963 l 692 963 l 692 772 l 463 772 l 463 963 m 154 654 l 383 654 l 383 463 l 154 463 l 154 654 m 154 346 l 383 346 l 383 154 l 154 154 l 154 346 m 463 346 l 692 346 l 692 154 l 463 154 l 463 346 m 463 37 l 692 37 l 692 -154 l 463 -154 l 463 37 z "},"⢰":{"ha":926,"x_min":463,"x_max":692,"o":"m 463 654 l 692 654 l 692 463 l 463 463 l 463 654 m 463 346 l 692 346 l 692 154 l 463 154 l 463 346 m 463 37 l 692 37 l 692 -154 l 463 -154 l 463 37 z "},"⢱":{"ha":926,"x_min":154,"x_max":692,"o":"m 154 963 l 383 963 l 383 772 l 154 772 l 154 963 m 463 654 l 692 654 l 692 463 l 463 463 l 463 654 m 463 346 l 692 346 l 692 154 l 463 154 l 463 346 m 463 37 l 692 37 l 692 -154 l 463 -154 l 463 37 z "},"⢲":{"ha":926,"x_min":154,"x_max":692,"o":"m 154 654 l 383 654 l 383 463 l 154 463 l 154 654 m 463 654 l 692 654 l 692 463 l 463 463 l 463 654 m 463 346 l 692 346 l 692 154 l 463 154 l 463 346 m 463 37 l 692 37 l 692 -154 l 463 -154 l 463 37 z "},"⢳":{"ha":926,"x_min":154,"x_max":692,"o":"m 154 963 l 383 963 l 383 772 l 154 772 l 154 963 m 154 654 l 383 654 l 383 463 l 154 463 l 154 654 m 463 654 l 692 654 l 692 463 l 463 463 l 463 654 m 463 346 l 692 346 l 692 154 l 463 154 l 463 346 m 463 37 l 692 37 l 692 -154 l 463 -154 l 463 37 z "},"⢴":{"ha":926,"x_min":154,"x_max":692,"o":"m 463 654 l 692 654 l 692 463 l 463 463 l 463 654 m 154 346 l 383 346 l 383 154 l 154 154 l 154 346 m 463 346 l 692 346 l 692 154 l 463 154 l 463 346 m 463 37 l 692 37 l 692 -154 l 463 -154 l 463 37 z "},"⢵":{"ha":926,"x_min":154,"x_max":692,"o":"m 154 963 l 383 963 l 383 772 l 154 772 l 154 963 m 463 654 l 692 654 l 692 463 l 463 463 l 463 654 m 154 346 l 383 346 l 383 154 l 154 154 l 154 346 m 463 346 l 692 346 l 692 154 l 463 154 l 463 346 m 463 37 l 692 37 l 692 -154 l 463 -154 l 463 37 z "},"⢶":{"ha":926,"x_min":154,"x_max":692,"o":"m 154 654 l 383 654 l 383 463 l 154 463 l 154 654 m 463 654 l 692 654 l 692 463 l 463 463 l 463 654 m 154 346 l 383 346 l 383 154 l 154 154 l 154 346 m 463 346 l 692 346 l 692 154 l 463 154 l 463 346 m 463 37 l 692 37 l 692 -154 l 463 -154 l 463 37 z "},"⢷":{"ha":926,"x_min":154,"x_max":692,"o":"m 154 963 l 383 963 l 383 772 l 154 772 l 154 963 m 154 654 l 383 654 l 383 463 l 154 463 l 154 654 m 463 654 l 692 654 l 692 463 l 463 463 l 463 654 m 154 346 l 383 346 l 383 154 l 154 154 l 154 346 m 463 346 l 692 346 l 692 154 l 463 154 l 463 346 m 463 37 l 692 37 l 692 -154 l 463 -154 l 463 37 z "},"⢸":{"ha":926,"x_min":463,"x_max":692,"o":"m 463 963 l 692 963 l 692 772 l 463 772 l 463 963 m 463 654 l 692 654 l 692 463 l 463 463 l 463 654 m 463 346 l 692 346 l 692 154 l 463 154 l 463 346 m 463 37 l 692 37 l 692 -154 l 463 -154 l 463 37 z "},"⢹":{"ha":926,"x_min":154,"x_max":692,"o":"m 154 963 l 383 963 l 383 772 l 154 772 l 154 963 m 463 963 l 692 963 l 692 772 l 463 772 l 463 963 m 463 654 l 692 654 l 692 463 l 463 463 l 463 654 m 463 346 l 692 346 l 692 154 l 463 154 l 463 346 m 463 37 l 692 37 l 692 -154 l 463 -154 l 463 37 z "},"⢺":{"ha":926,"x_min":154,"x_max":692,"o":"m 463 963 l 692 963 l 692 772 l 463 772 l 463 963 m 154 654 l 383 654 l 383 463 l 154 463 l 154 654 m 463 654 l 692 654 l 692 463 l 463 463 l 463 654 m 463 346 l 692 346 l 692 154 l 463 154 l 463 346 m 463 37 l 692 37 l 692 -154 l 463 -154 l 463 37 z "},"⢻":{"ha":926,"x_min":154,"x_max":692,"o":"m 154 963 l 383 963 l 383 772 l 154 772 l 154 963 m 463 963 l 692 963 l 692 772 l 463 772 l 463 963 m 154 654 l 383 654 l 383 463 l 154 463 l 154 654 m 463 654 l 692 654 l 692 463 l 463 463 l 463 654 m 463 346 l 692 346 l 692 154 l 463 154 l 463 346 m 463 37 l 692 37 l 692 -154 l 463 -154 l 463 37 z "},"⢼":{"ha":926,"x_min":154,"x_max":692,"o":"m 463 963 l 692 963 l 692 772 l 463 772 l 463 963 m 463 654 l 692 654 l 692 463 l 463 463 l 463 654 m 154 346 l 383 346 l 383 154 l 154 154 l 154 346 m 463 346 l 692 346 l 692 154 l 463 154 l 463 346 m 463 37 l 692 37 l 692 -154 l 463 -154 l 463 37 z "},"⢽":{"ha":926,"x_min":154,"x_max":692,"o":"m 154 963 l 383 963 l 383 772 l 154 772 l 154 963 m 463 963 l 692 963 l 692 772 l 463 772 l 463 963 m 463 654 l 692 654 l 692 463 l 463 463 l 463 654 m 154 346 l 383 346 l 383 154 l 154 154 l 154 346 m 463 346 l 692 346 l 692 154 l 463 154 l 463 346 m 463 37 l 692 37 l 692 -154 l 463 -154 l 463 37 z "},"⢾":{"ha":926,"x_min":154,"x_max":692,"o":"m 463 963 l 692 963 l 692 772 l 463 772 l 463 963 m 154 654 l 383 654 l 383 463 l 154 463 l 154 654 m 463 654 l 692 654 l 692 463 l 463 463 l 463 654 m 154 346 l 383 346 l 383 154 l 154 154 l 154 346 m 463 346 l 692 346 l 692 154 l 463 154 l 463 346 m 463 37 l 692 37 l 692 -154 l 463 -154 l 463 37 z "},"⢿":{"ha":926,"x_min":154,"x_max":692,"o":"m 154 963 l 383 963 l 383 772 l 154 772 l 154 963 m 463 963 l 692 963 l 692 772 l 463 772 l 463 963 m 154 654 l 383 654 l 383 463 l 154 463 l 154 654 m 463 654 l 692 654 l 692 463 l 463 463 l 463 654 m 154 346 l 383 346 l 383 154 l 154 154 l 154 346 m 463 346 l 692 346 l 692 154 l 463 154 l 463 346 m 463 37 l 692 37 l 692 -154 l 463 -154 l 463 37 z "},"⣀":{"ha":926,"x_min":154,"x_max":692,"o":"m 154 37 l 383 37 l 383 -154 l 154 -154 l 154 37 m 463 37 l 692 37 l 692 -154 l 463 -154 l 463 37 z "},"⣁":{"ha":926,"x_min":154,"x_max":692,"o":"m 154 963 l 383 963 l 383 772 l 154 772 l 154 963 m 154 37 l 383 37 l 383 -154 l 154 -154 l 154 37 m 463 37 l 692 37 l 692 -154 l 463 -154 l 463 37 z "},"⣂":{"ha":926,"x_min":154,"x_max":692,"o":"m 154 654 l 383 654 l 383 463 l 154 463 l 154 654 m 154 37 l 383 37 l 383 -154 l 154 -154 l 154 37 m 463 37 l 692 37 l 692 -154 l 463 -154 l 463 37 z "},"⣃":{"ha":926,"x_min":154,"x_max":692,"o":"m 154 963 l 383 963 l 383 772 l 154 772 l 154 963 m 154 654 l 383 654 l 383 463 l 154 463 l 154 654 m 154 37 l 383 37 l 383 -154 l 154 -154 l 154 37 m 463 37 l 692 37 l 692 -154 l 463 -154 l 463 37 z "},"⣄":{"ha":926,"x_min":154,"x_max":692,"o":"m 154 346 l 383 346 l 383 154 l 154 154 l 154 346 m 154 37 l 383 37 l 383 -154 l 154 -154 l 154 37 m 463 37 l 692 37 l 692 -154 l 463 -154 l 463 37 z "},"⣅":{"ha":926,"x_min":154,"x_max":692,"o":"m 154 963 l 383 963 l 383 772 l 154 772 l 154 963 m 154 346 l 383 346 l 383 154 l 154 154 l 154 346 m 154 37 l 383 37 l 383 -154 l 154 -154 l 154 37 m 463 37 l 692 37 l 692 -154 l 463 -154 l 463 37 z "},"⣆":{"ha":926,"x_min":154,"x_max":692,"o":"m 154 654 l 383 654 l 383 463 l 154 463 l 154 654 m 154 346 l 383 346 l 383 154 l 154 154 l 154 346 m 154 37 l 383 37 l 383 -154 l 154 -154 l 154 37 m 463 37 l 692 37 l 692 -154 l 463 -154 l 463 37 z "},"⣇":{"ha":926,"x_min":154,"x_max":692,"o":"m 154 963 l 383 963 l 383 772 l 154 772 l 154 963 m 154 654 l 383 654 l 383 463 l 154 463 l 154 654 m 154 346 l 383 346 l 383 154 l 154 154 l 154 346 m 154 37 l 383 37 l 383 -154 l 154 -154 l 154 37 m 463 37 l 692 37 l 692 -154 l 463 -154 l 463 37 z "},"⣈":{"ha":926,"x_min":154,"x_max":692,"o":"m 463 963 l 692 963 l 692 772 l 463 772 l 463 963 m 154 37 l 383 37 l 383 -154 l 154 -154 l 154 37 m 463 37 l 692 37 l 692 -154 l 463 -154 l 463 37 z "},"⣉":{"ha":926,"x_min":154,"x_max":692,"o":"m 154 963 l 383 963 l 383 772 l 154 772 l 154 963 m 463 963 l 692 963 l 692 772 l 463 772 l 463 963 m 154 37 l 383 37 l 383 -154 l 154 -154 l 154 37 m 463 37 l 692 37 l 692 -154 l 463 -154 l 463 37 z "},"⣊":{"ha":926,"x_min":154,"x_max":692,"o":"m 463 963 l 692 963 l 692 772 l 463 772 l 463 963 m 154 654 l 383 654 l 383 463 l 154 463 l 154 654 m 154 37 l 383 37 l 383 -154 l 154 -154 l 154 37 m 463 37 l 692 37 l 692 -154 l 463 -154 l 463 37 z "},"⣋":{"ha":926,"x_min":154,"x_max":692,"o":"m 154 963 l 383 963 l 383 772 l 154 772 l 154 963 m 463 963 l 692 963 l 692 772 l 463 772 l 463 963 m 154 654 l 383 654 l 383 463 l 154 463 l 154 654 m 154 37 l 383 37 l 383 -154 l 154 -154 l 154 37 m 463 37 l 692 37 l 692 -154 l 463 -154 l 463 37 z "},"⣌":{"ha":926,"x_min":154,"x_max":692,"o":"m 463 963 l 692 963 l 692 772 l 463 772 l 463 963 m 154 346 l 383 346 l 383 154 l 154 154 l 154 346 m 154 37 l 383 37 l 383 -154 l 154 -154 l 154 37 m 463 37 l 692 37 l 692 -154 l 463 -154 l 463 37 z "},"⣍":{"ha":926,"x_min":154,"x_max":692,"o":"m 154 963 l 383 963 l 383 772 l 154 772 l 154 963 m 463 963 l 692 963 l 692 772 l 463 772 l 463 963 m 154 346 l 383 346 l 383 154 l 154 154 l 154 346 m 154 37 l 383 37 l 383 -154 l 154 -154 l 154 37 m 463 37 l 692 37 l 692 -154 l 463 -154 l 463 37 z "},"⣎":{"ha":926,"x_min":154,"x_max":692,"o":"m 463 963 l 692 963 l 692 772 l 463 772 l 463 963 m 154 654 l 383 654 l 383 463 l 154 463 l 154 654 m 154 346 l 383 346 l 383 154 l 154 154 l 154 346 m 154 37 l 383 37 l 383 -154 l 154 -154 l 154 37 m 463 37 l 692 37 l 692 -154 l 463 -154 l 463 37 z "},"⣏":{"ha":926,"x_min":154,"x_max":692,"o":"m 154 963 l 383 963 l 383 772 l 154 772 l 154 963 m 463 963 l 692 963 l 692 772 l 463 772 l 463 963 m 154 654 l 383 654 l 383 463 l 154 463 l 154 654 m 154 346 l 383 346 l 383 154 l 154 154 l 154 346 m 154 37 l 383 37 l 383 -154 l 154 -154 l 154 37 m 463 37 l 692 37 l 692 -154 l 463 -154 l 463 37 z "},"⣐":{"ha":926,"x_min":154,"x_max":692,"o":"m 463 654 l 692 654 l 692 463 l 463 463 l 463 654 m 154 37 l 383 37 l 383 -154 l 154 -154 l 154 37 m 463 37 l 692 37 l 692 -154 l 463 -154 l 463 37 z "},"⣑":{"ha":926,"x_min":154,"x_max":692,"o":"m 154 963 l 383 963 l 383 772 l 154 772 l 154 963 m 463 654 l 692 654 l 692 463 l 463 463 l 463 654 m 154 37 l 383 37 l 383 -154 l 154 -154 l 154 37 m 463 37 l 692 37 l 692 -154 l 463 -154 l 463 37 z "},"⣒":{"ha":926,"x_min":154,"x_max":692,"o":"m 154 654 l 383 654 l 383 463 l 154 463 l 154 654 m 463 654 l 692 654 l 692 463 l 463 463 l 463 654 m 154 37 l 383 37 l 383 -154 l 154 -154 l 154 37 m 463 37 l 692 37 l 692 -154 l 463 -154 l 463 37 z "},"⣓":{"ha":926,"x_min":154,"x_max":692,"o":"m 154 963 l 383 963 l 383 772 l 154 772 l 154 963 m 154 654 l 383 654 l 383 463 l 154 463 l 154 654 m 463 654 l 692 654 l 692 463 l 463 463 l 463 654 m 154 37 l 383 37 l 383 -154 l 154 -154 l 154 37 m 463 37 l 692 37 l 692 -154 l 463 -154 l 463 37 z "},"⣔":{"ha":926,"x_min":154,"x_max":692,"o":"m 463 654 l 692 654 l 692 463 l 463 463 l 463 654 m 154 346 l 383 346 l 383 154 l 154 154 l 154 346 m 154 37 l 383 37 l 383 -154 l 154 -154 l 154 37 m 463 37 l 692 37 l 692 -154 l 463 -154 l 463 37 z "},"⣕":{"ha":926,"x_min":154,"x_max":692,"o":"m 154 963 l 383 963 l 383 772 l 154 772 l 154 963 m 463 654 l 692 654 l 692 463 l 463 463 l 463 654 m 154 346 l 383 346 l 383 154 l 154 154 l 154 346 m 154 37 l 383 37 l 383 -154 l 154 -154 l 154 37 m 463 37 l 692 37 l 692 -154 l 463 -154 l 463 37 z "},"⣖":{"ha":926,"x_min":154,"x_max":692,"o":"m 154 654 l 383 654 l 383 463 l 154 463 l 154 654 m 463 654 l 692 654 l 692 463 l 463 463 l 463 654 m 154 346 l 383 346 l 383 154 l 154 154 l 154 346 m 154 37 l 383 37 l 383 -154 l 154 -154 l 154 37 m 463 37 l 692 37 l 692 -154 l 463 -154 l 463 37 z "},"⣗":{"ha":926,"x_min":154,"x_max":692,"o":"m 154 963 l 383 963 l 383 772 l 154 772 l 154 963 m 154 654 l 383 654 l 383 463 l 154 463 l 154 654 m 463 654 l 692 654 l 692 463 l 463 463 l 463 654 m 154 346 l 383 346 l 383 154 l 154 154 l 154 346 m 154 37 l 383 37 l 383 -154 l 154 -154 l 154 37 m 463 37 l 692 37 l 692 -154 l 463 -154 l 463 37 z "},"⣘":{"ha":926,"x_min":154,"x_max":692,"o":"m 463 963 l 692 963 l 692 772 l 463 772 l 463 963 m 463 654 l 692 654 l 692 463 l 463 463 l 463 654 m 154 37 l 383 37 l 383 -154 l 154 -154 l 154 37 m 463 37 l 692 37 l 692 -154 l 463 -154 l 463 37 z "},"⣙":{"ha":926,"x_min":154,"x_max":692,"o":"m 154 963 l 383 963 l 383 772 l 154 772 l 154 963 m 463 963 l 692 963 l 692 772 l 463 772 l 463 963 m 463 654 l 692 654 l 692 463 l 463 463 l 463 654 m 154 37 l 383 37 l 383 -154 l 154 -154 l 154 37 m 463 37 l 692 37 l 692 -154 l 463 -154 l 463 37 z "},"⣚":{"ha":926,"x_min":154,"x_max":692,"o":"m 463 963 l 692 963 l 692 772 l 463 772 l 463 963 m 154 654 l 383 654 l 383 463 l 154 463 l 154 654 m 463 654 l 692 654 l 692 463 l 463 463 l 463 654 m 154 37 l 383 37 l 383 -154 l 154 -154 l 154 37 m 463 37 l 692 37 l 692 -154 l 463 -154 l 463 37 z "},"⣛":{"ha":926,"x_min":154,"x_max":692,"o":"m 154 963 l 383 963 l 383 772 l 154 772 l 154 963 m 463 963 l 692 963 l 692 772 l 463 772 l 463 963 m 154 654 l 383 654 l 383 463 l 154 463 l 154 654 m 463 654 l 692 654 l 692 463 l 463 463 l 463 654 m 154 37 l 383 37 l 383 -154 l 154 -154 l 154 37 m 463 37 l 692 37 l 692 -154 l 463 -154 l 463 37 z "},"⣜":{"ha":926,"x_min":154,"x_max":692,"o":"m 463 963 l 692 963 l 692 772 l 463 772 l 463 963 m 463 654 l 692 654 l 692 463 l 463 463 l 463 654 m 154 346 l 383 346 l 383 154 l 154 154 l 154 346 m 154 37 l 383 37 l 383 -154 l 154 -154 l 154 37 m 463 37 l 692 37 l 692 -154 l 463 -154 l 463 37 z "},"⣝":{"ha":926,"x_min":154,"x_max":692,"o":"m 154 963 l 383 963 l 383 772 l 154 772 l 154 963 m 463 963 l 692 963 l 692 772 l 463 772 l 463 963 m 463 654 l 692 654 l 692 463 l 463 463 l 463 654 m 154 346 l 383 346 l 383 154 l 154 154 l 154 346 m 154 37 l 383 37 l 383 -154 l 154 -154 l 154 37 m 463 37 l 692 37 l 692 -154 l 463 -154 l 463 37 z "},"⣞":{"ha":926,"x_min":154,"x_max":692,"o":"m 463 963 l 692 963 l 692 772 l 463 772 l 463 963 m 154 654 l 383 654 l 383 463 l 154 463 l 154 654 m 463 654 l 692 654 l 692 463 l 463 463 l 463 654 m 154 346 l 383 346 l 383 154 l 154 154 l 154 346 m 154 37 l 383 37 l 383 -154 l 154 -154 l 154 37 m 463 37 l 692 37 l 692 -154 l 463 -154 l 463 37 z "},"⣟":{"ha":926,"x_min":154,"x_max":692,"o":"m 154 963 l 383 963 l 383 772 l 154 772 l 154 963 m 463 963 l 692 963 l 692 772 l 463 772 l 463 963 m 154 654 l 383 654 l 383 463 l 154 463 l 154 654 m 463 654 l 692 654 l 692 463 l 463 463 l 463 654 m 154 346 l 383 346 l 383 154 l 154 154 l 154 346 m 154 37 l 383 37 l 383 -154 l 154 -154 l 154 37 m 463 37 l 692 37 l 692 -154 l 463 -154 l 463 37 z "},"⣠":{"ha":926,"x_min":154,"x_max":692,"o":"m 463 346 l 692 346 l 692 154 l 463 154 l 463 346 m 154 37 l 383 37 l 383 -154 l 154 -154 l 154 37 m 463 37 l 692 37 l 692 -154 l 463 -154 l 463 37 z "},"⣡":{"ha":926,"x_min":154,"x_max":692,"o":"m 154 963 l 383 963 l 383 772 l 154 772 l 154 963 m 463 346 l 692 346 l 692 154 l 463 154 l 463 346 m 154 37 l 383 37 l 383 -154 l 154 -154 l 154 37 m 463 37 l 692 37 l 692 -154 l 463 -154 l 463 37 z "},"⣢":{"ha":926,"x_min":154,"x_max":692,"o":"m 154 654 l 383 654 l 383 463 l 154 463 l 154 654 m 463 346 l 692 346 l 692 154 l 463 154 l 463 346 m 154 37 l 383 37 l 383 -154 l 154 -154 l 154 37 m 463 37 l 692 37 l 692 -154 l 463 -154 l 463 37 z "},"⣣":{"ha":926,"x_min":154,"x_max":692,"o":"m 154 963 l 383 963 l 383 772 l 154 772 l 154 963 m 154 654 l 383 654 l 383 463 l 154 463 l 154 654 m 463 346 l 692 346 l 692 154 l 463 154 l 463 346 m 154 37 l 383 37 l 383 -154 l 154 -154 l 154 37 m 463 37 l 692 37 l 692 -154 l 463 -154 l 463 37 z "},"⣤":{"ha":926,"x_min":154,"x_max":692,"o":"m 154 346 l 383 346 l 383 154 l 154 154 l 154 346 m 463 346 l 692 346 l 692 154 l 463 154 l 463 346 m 154 37 l 383 37 l 383 -154 l 154 -154 l 154 37 m 463 37 l 692 37 l 692 -154 l 463 -154 l 463 37 z "},"⣥":{"ha":926,"x_min":154,"x_max":692,"o":"m 154 963 l 383 963 l 383 772 l 154 772 l 154 963 m 154 346 l 383 346 l 383 154 l 154 154 l 154 346 m 463 346 l 692 346 l 692 154 l 463 154 l 463 346 m 154 37 l 383 37 l 383 -154 l 154 -154 l 154 37 m 463 37 l 692 37 l 692 -154 l 463 -154 l 463 37 z "},"⣦":{"ha":926,"x_min":154,"x_max":692,"o":"m 154 654 l 383 654 l 383 463 l 154 463 l 154 654 m 154 346 l 383 346 l 383 154 l 154 154 l 154 346 m 463 346 l 692 346 l 692 154 l 463 154 l 463 346 m 154 37 l 383 37 l 383 -154 l 154 -154 l 154 37 m 463 37 l 692 37 l 692 -154 l 463 -154 l 463 37 z "},"⣧":{"ha":926,"x_min":154,"x_max":692,"o":"m 154 963 l 383 963 l 383 772 l 154 772 l 154 963 m 154 654 l 383 654 l 383 463 l 154 463 l 154 654 m 154 346 l 383 346 l 383 154 l 154 154 l 154 346 m 463 346 l 692 346 l 692 154 l 463 154 l 463 346 m 154 37 l 383 37 l 383 -154 l 154 -154 l 154 37 m 463 37 l 692 37 l 692 -154 l 463 -154 l 463 37 z "},"⣨":{"ha":926,"x_min":154,"x_max":692,"o":"m 463 963 l 692 963 l 692 772 l 463 772 l 463 963 m 463 346 l 692 346 l 692 154 l 463 154 l 463 346 m 154 37 l 383 37 l 383 -154 l 154 -154 l 154 37 m 463 37 l 692 37 l 692 -154 l 463 -154 l 463 37 z "},"⣩":{"ha":926,"x_min":154,"x_max":692,"o":"m 154 963 l 383 963 l 383 772 l 154 772 l 154 963 m 463 963 l 692 963 l 692 772 l 463 772 l 463 963 m 463 346 l 692 346 l 692 154 l 463 154 l 463 346 m 154 37 l 383 37 l 383 -154 l 154 -154 l 154 37 m 463 37 l 692 37 l 692 -154 l 463 -154 l 463 37 z "},"⣪":{"ha":926,"x_min":154,"x_max":692,"o":"m 463 963 l 692 963 l 692 772 l 463 772 l 463 963 m 154 654 l 383 654 l 383 463 l 154 463 l 154 654 m 463 346 l 692 346 l 692 154 l 463 154 l 463 346 m 154 37 l 383 37 l 383 -154 l 154 -154 l 154 37 m 463 37 l 692 37 l 692 -154 l 463 -154 l 463 37 z "},"⣫":{"ha":926,"x_min":154,"x_max":692,"o":"m 154 963 l 383 963 l 383 772 l 154 772 l 154 963 m 463 963 l 692 963 l 692 772 l 463 772 l 463 963 m 154 654 l 383 654 l 383 463 l 154 463 l 154 654 m 463 346 l 692 346 l 692 154 l 463 154 l 463 346 m 154 37 l 383 37 l 383 -154 l 154 -154 l 154 37 m 463 37 l 692 37 l 692 -154 l 463 -154 l 463 37 z "},"⣬":{"ha":926,"x_min":154,"x_max":692,"o":"m 463 963 l 692 963 l 692 772 l 463 772 l 463 963 m 154 346 l 383 346 l 383 154 l 154 154 l 154 346 m 463 346 l 692 346 l 692 154 l 463 154 l 463 346 m 154 37 l 383 37 l 383 -154 l 154 -154 l 154 37 m 463 37 l 692 37 l 692 -154 l 463 -154 l 463 37 z "},"⣭":{"ha":926,"x_min":154,"x_max":692,"o":"m 154 963 l 383 963 l 383 772 l 154 772 l 154 963 m 463 963 l 692 963 l 692 772 l 463 772 l 463 963 m 154 346 l 383 346 l 383 154 l 154 154 l 154 346 m 463 346 l 692 346 l 692 154 l 463 154 l 463 346 m 154 37 l 383 37 l 383 -154 l 154 -154 l 154 37 m 463 37 l 692 37 l 692 -154 l 463 -154 l 463 37 z "},"⣮":{"ha":926,"x_min":154,"x_max":692,"o":"m 463 963 l 692 963 l 692 772 l 463 772 l 463 963 m 154 654 l 383 654 l 383 463 l 154 463 l 154 654 m 154 346 l 383 346 l 383 154 l 154 154 l 154 346 m 463 346 l 692 346 l 692 154 l 463 154 l 463 346 m 154 37 l 383 37 l 383 -154 l 154 -154 l 154 37 m 463 37 l 692 37 l 692 -154 l 463 -154 l 463 37 z "},"⣯":{"ha":926,"x_min":154,"x_max":692,"o":"m 154 963 l 383 963 l 383 772 l 154 772 l 154 963 m 463 963 l 692 963 l 692 772 l 463 772 l 463 963 m 154 654 l 383 654 l 383 463 l 154 463 l 154 654 m 154 346 l 383 346 l 383 154 l 154 154 l 154 346 m 463 346 l 692 346 l 692 154 l 463 154 l 463 346 m 154 37 l 383 37 l 383 -154 l 154 -154 l 154 37 m 463 37 l 692 37 l 692 -154 l 463 -154 l 463 37 z "},"⣰":{"ha":926,"x_min":154,"x_max":692,"o":"m 463 654 l 692 654 l 692 463 l 463 463 l 463 654 m 463 346 l 692 346 l 692 154 l 463 154 l 463 346 m 154 37 l 383 37 l 383 -154 l 154 -154 l 154 37 m 463 37 l 692 37 l 692 -154 l 463 -154 l 463 37 z "},"⣱":{"ha":926,"x_min":154,"x_max":692,"o":"m 154 963 l 383 963 l 383 772 l 154 772 l 154 963 m 463 654 l 692 654 l 692 463 l 463 463 l 463 654 m 463 346 l 692 346 l 692 154 l 463 154 l 463 346 m 154 37 l 383 37 l 383 -154 l 154 -154 l 154 37 m 463 37 l 692 37 l 692 -154 l 463 -154 l 463 37 z "},"⣲":{"ha":926,"x_min":154,"x_max":692,"o":"m 154 654 l 383 654 l 383 463 l 154 463 l 154 654 m 463 654 l 692 654 l 692 463 l 463 463 l 463 654 m 463 346 l 692 346 l 692 154 l 463 154 l 463 346 m 154 37 l 383 37 l 383 -154 l 154 -154 l 154 37 m 463 37 l 692 37 l 692 -154 l 463 -154 l 463 37 z "},"⣳":{"ha":926,"x_min":154,"x_max":692,"o":"m 154 963 l 383 963 l 383 772 l 154 772 l 154 963 m 154 654 l 383 654 l 383 463 l 154 463 l 154 654 m 463 654 l 692 654 l 692 463 l 463 463 l 463 654 m 463 346 l 692 346 l 692 154 l 463 154 l 463 346 m 154 37 l 383 37 l 383 -154 l 154 -154 l 154 37 m 463 37 l 692 37 l 692 -154 l 463 -154 l 463 37 z "},"⣴":{"ha":926,"x_min":154,"x_max":692,"o":"m 463 654 l 692 654 l 692 463 l 463 463 l 463 654 m 154 346 l 383 346 l 383 154 l 154 154 l 154 346 m 463 346 l 692 346 l 692 154 l 463 154 l 463 346 m 154 37 l 383 37 l 383 -154 l 154 -154 l 154 37 m 463 37 l 692 37 l 692 -154 l 463 -154 l 463 37 z "},"⣵":{"ha":926,"x_min":154,"x_max":692,"o":"m 154 963 l 383 963 l 383 772 l 154 772 l 154 963 m 463 654 l 692 654 l 692 463 l 463 463 l 463 654 m 154 346 l 383 346 l 383 154 l 154 154 l 154 346 m 463 346 l 692 346 l 692 154 l 463 154 l 463 346 m 154 37 l 383 37 l 383 -154 l 154 -154 l 154 37 m 463 37 l 692 37 l 692 -154 l 463 -154 l 463 37 z "},"⣶":{"ha":926,"x_min":154,"x_max":692,"o":"m 154 654 l 383 654 l 383 463 l 154 463 l 154 654 m 463 654 l 692 654 l 692 463 l 463 463 l 463 654 m 154 346 l 383 346 l 383 154 l 154 154 l 154 346 m 463 346 l 692 346 l 692 154 l 463 154 l 463 346 m 154 37 l 383 37 l 383 -154 l 154 -154 l 154 37 m 463 37 l 692 37 l 692 -154 l 463 -154 l 463 37 z "},"⣷":{"ha":926,"x_min":154,"x_max":692,"o":"m 154 963 l 383 963 l 383 772 l 154 772 l 154 963 m 154 654 l 383 654 l 383 463 l 154 463 l 154 654 m 463 654 l 692 654 l 692 463 l 463 463 l 463 654 m 154 346 l 383 346 l 383 154 l 154 154 l 154 346 m 463 346 l 692 346 l 692 154 l 463 154 l 463 346 m 154 37 l 383 37 l 383 -154 l 154 -154 l 154 37 m 463 37 l 692 37 l 692 -154 l 463 -154 l 463 37 z "},"⣸":{"ha":926,"x_min":154,"x_max":692,"o":"m 463 963 l 692 963 l 692 772 l 463 772 l 463 963 m 463 654 l 692 654 l 692 463 l 463 463 l 463 654 m 463 346 l 692 346 l 692 154 l 463 154 l 463 346 m 154 37 l 383 37 l 383 -154 l 154 -154 l 154 37 m 463 37 l 692 37 l 692 -154 l 463 -154 l 463 37 z "},"⣹":{"ha":926,"x_min":154,"x_max":692,"o":"m 154 963 l 383 963 l 383 772 l 154 772 l 154 963 m 463 963 l 692 963 l 692 772 l 463 772 l 463 963 m 463 654 l 692 654 l 692 463 l 463 463 l 463 654 m 463 346 l 692 346 l 692 154 l 463 154 l 463 346 m 154 37 l 383 37 l 383 -154 l 154 -154 l 154 37 m 463 37 l 692 37 l 692 -154 l 463 -154 l 463 37 z "},"⣺":{"ha":926,"x_min":154,"x_max":692,"o":"m 463 963 l 692 963 l 692 772 l 463 772 l 463 963 m 154 654 l 383 654 l 383 463 l 154 463 l 154 654 m 463 654 l 692 654 l 692 463 l 463 463 l 463 654 m 463 346 l 692 346 l 692 154 l 463 154 l 463 346 m 154 37 l 383 37 l 383 -154 l 154 -154 l 154 37 m 463 37 l 692 37 l 692 -154 l 463 -154 l 463 37 z "},"⣻":{"ha":926,"x_min":154,"x_max":692,"o":"m 154 963 l 383 963 l 383 772 l 154 772 l 154 963 m 463 963 l 692 963 l 692 772 l 463 772 l 463 963 m 154 654 l 383 654 l 383 463 l 154 463 l 154 654 m 463 654 l 692 654 l 692 463 l 463 463 l 463 654 m 463 346 l 692 346 l 692 154 l 463 154 l 463 346 m 154 37 l 383 37 l 383 -154 l 154 -154 l 154 37 m 463 37 l 692 37 l 692 -154 l 463 -154 l 463 37 z "},"⣼":{"ha":926,"x_min":154,"x_max":692,"o":"m 463 963 l 692 963 l 692 772 l 463 772 l 463 963 m 463 654 l 692 654 l 692 463 l 463 463 l 463 654 m 154 346 l 383 346 l 383 154 l 154 154 l 154 346 m 463 346 l 692 346 l 692 154 l 463 154 l 463 346 m 154 37 l 383 37 l 383 -154 l 154 -154 l 154 37 m 463 37 l 692 37 l 692 -154 l 463 -154 l 463 37 z "},"⣽":{"ha":926,"x_min":154,"x_max":692,"o":"m 154 963 l 383 963 l 383 772 l 154 772 l 154 963 m 463 963 l 692 963 l 692 772 l 463 772 l 463 963 m 463 654 l 692 654 l 692 463 l 463 463 l 463 654 m 154 346 l 383 346 l 383 154 l 154 154 l 154 346 m 463 346 l 692 346 l 692 154 l 463 154 l 463 346 m 154 37 l 383 37 l 383 -154 l 154 -154 l 154 37 m 463 37 l 692 37 l 692 -154 l 463 -154 l 463 37 z "},"⣾":{"ha":926,"x_min":154,"x_max":692,"o":"m 463 963 l 692 963 l 692 772 l 463 772 l 463 963 m 154 654 l 383 654 l 383 463 l 154 463 l 154 654 m 463 654 l 692 654 l 692 463 l 463 463 l 463 654 m 154 346 l 383 346 l 383 154 l 154 154 l 154 346 m 463 346 l 692 346 l 692 154 l 463 154 l 463 346 m 154 37 l 383 37 l 383 -154 l 154 -154 l 154 37 m 463 37 l 692 37 l 692 -154 l 463 -154 l 463 37 z "},"⣿":{"ha":926,"x_min":154,"x_max":692,"o":"m 154 963 l 383 963 l 383 772 l 154 772 l 154 963 m 463 963 l 692 963 l 692 772 l 463 772 l 463 963 m 154 654 l 383 654 l 383 463 l 154 463 l 154 654 m 463 654 l 692 654 l 692 463 l 463 463 l 463 654 m 154 346 l 383 346 l 383 154 l 154 154 l 154 346 m 463 346 l 692 346 l 692 154 l 463 154 l 463 346 m 154 37 l 383 37 l 383 -154 l 154 -154 l 154 37 m 463 37 l 692 37 l 692 -154 l 463 -154 l 463 37 z "},"⬀":{"ha":926,"x_min":0,"x_max":846,"o":"m 154 1117 l 846 1117 l 846 463 l 617 463 l 617 617 l 537 617 l 537 463 l 383 463 l 383 309 l 154 309 l 154 463 l 0 463 l 0 654 l 154 654 l 154 809 l 309 809 l 309 926 l 154 926 l 154 1117 m 518 936 l 518 799 l 635 799 l 635 936 l 518 936 m 364 781 l 364 645 l 481 645 l 481 781 l 364 781 m 209 627 l 209 491 l 327 491 l 327 627 l 209 627 z "},"⬁":{"ha":926,"x_min":0,"x_max":846,"o":"m 0 1117 l 692 1117 l 692 926 l 537 926 l 537 809 l 692 809 l 692 654 l 846 654 l 846 463 l 692 463 l 692 309 l 463 309 l 463 463 l 309 463 l 309 617 l 229 617 l 229 463 l 0 463 l 0 1117 m 209 936 l 209 799 l 327 799 l 327 936 l 209 936 m 364 781 l 364 645 l 481 645 l 481 781 l 364 781 m 518 627 l 518 491 l 635 491 l 635 627 l 518 627 z "},"⬂":{"ha":926,"x_min":0,"x_max":846,"o":"m 154 809 l 383 809 l 383 654 l 537 654 l 537 500 l 617 500 l 617 654 l 846 654 l 846 0 l 154 0 l 154 192 l 309 192 l 309 309 l 154 309 l 154 463 l 0 463 l 0 654 l 154 654 l 154 809 m 209 627 l 209 491 l 327 491 l 327 627 l 209 627 m 364 473 l 364 336 l 481 336 l 481 473 l 364 473 m 518 318 l 518 182 l 635 182 l 635 318 l 518 318 z "},"⬃":{"ha":926,"x_min":0,"x_max":846,"o":"m 463 809 l 692 809 l 692 654 l 846 654 l 846 463 l 692 463 l 692 309 l 537 309 l 537 192 l 692 192 l 692 0 l 0 0 l 0 654 l 229 654 l 229 500 l 309 500 l 309 654 l 463 654 l 463 809 m 518 627 l 518 491 l 635 491 l 635 627 l 518 627 m 364 473 l 364 336 l 481 336 l 481 473 l 364 473 m 209 318 l 209 182 l 327 182 l 327 318 l 209 318 z "},"⬅":{"ha":926,"x_min":0,"x_max":846,"o":"m 309 963 l 537 963 l 537 809 l 846 809 l 846 309 l 537 309 l 537 154 l 309 154 l 309 309 l 154 309 l 154 463 l 0 463 l 0 654 l 154 654 l 154 809 l 309 809 l 309 963 z "},"⬆":{"ha":926,"x_min":0,"x_max":846,"o":"m 309 1117 l 537 1117 l 537 963 l 692 963 l 692 809 l 846 809 l 846 617 l 692 617 l 692 0 l 154 0 l 154 617 l 0 617 l 0 809 l 154 809 l 154 963 l 309 963 l 309 1117 z "},"⬇":{"ha":926,"x_min":0,"x_max":846,"o":"m 154 1117 l 692 1117 l 692 500 l 846 500 l 846 309 l 692 309 l 692 154 l 537 154 l 537 0 l 309 0 l 309 154 l 154 154 l 154 309 l 0 309 l 0 500 l 154 500 l 154 1117 z "},"⬈":{"ha":926,"x_min":0,"x_max":846,"o":"m 154 1117 l 846 1117 l 846 463 l 617 463 l 617 617 l 537 617 l 537 463 l 383 463 l 383 309 l 154 309 l 154 463 l 0 463 l 0 654 l 154 654 l 154 809 l 309 809 l 309 926 l 154 926 l 154 1117 z "},"⬉":{"ha":926,"x_min":0,"x_max":846,"o":"m 0 1117 l 692 1117 l 692 926 l 537 926 l 537 809 l 692 809 l 692 654 l 846 654 l 846 463 l 692 463 l 692 309 l 463 309 l 463 463 l 309 463 l 309 617 l 229 617 l 229 463 l 0 463 l 0 1117 z "},"⬊":{"ha":926,"x_min":0,"x_max":846,"o":"m 154 809 l 383 809 l 383 654 l 537 654 l 537 500 l 617 500 l 617 654 l 846 654 l 846 0 l 154 0 l 154 192 l 309 192 l 309 309 l 154 309 l 154 463 l 0 463 l 0 654 l 154 654 l 154 809 z "},"⬋":{"ha":926,"x_min":0,"x_max":846,"o":"m 463 809 l 692 809 l 692 654 l 846 654 l 846 463 l 692 463 l 692 309 l 537 309 l 537 192 l 692 192 l 692 0 l 0 0 l 0 654 l 229 654 l 229 500 l 309 500 l 309 654 l 463 654 l 463 809 z "},"⬎":{"ha":926,"x_min":0,"x_max":846,"o":"m 0 809 l 537 809 l 537 500 l 846 500 l 846 309 l 692 309 l 692 154 l 537 154 l 537 0 l 309 0 l 309 154 l 154 154 l 154 309 l 0 309 l 0 500 l 309 500 l 309 617 l 0 617 l 0 809 z "},"⬏":{"ha":926,"x_min":0,"x_max":846,"o":"m 309 809 l 537 809 l 537 654 l 692 654 l 692 500 l 846 500 l 846 309 l 537 309 l 537 0 l 0 0 l 0 192 l 309 192 l 309 309 l 0 309 l 0 500 l 154 500 l 154 654 l 309 654 l 309 809 z "},"⬐":{"ha":926,"x_min":0,"x_max":846,"o":"m 309 809 l 846 809 l 846 617 l 537 617 l 537 500 l 846 500 l 846 309 l 692 309 l 692 154 l 537 154 l 537 0 l 309 0 l 309 154 l 154 154 l 154 309 l 0 309 l 0 500 l 309 500 l 309 809 z "},"⬑":{"ha":926,"x_min":0,"x_max":846,"o":"m 309 809 l 537 809 l 537 654 l 692 654 l 692 500 l 846 500 l 846 309 l 537 309 l 537 192 l 846 192 l 846 0 l 309 0 l 309 309 l 0 309 l 0 500 l 154 500 l 154 654 l 309 654 l 309 809 z "},"⬒":{"ha":926,"x_min":0,"x_max":846,"o":"m 0 809 l 846 809 l 846 0 l 0 0 l 0 809 m 209 473 l 209 182 l 635 182 l 635 473 l 209 473 z "},"⬓":{"ha":926,"x_min":0,"x_max":846,"o":"m 0 809 l 846 809 l 846 0 l 0 0 l 0 809 m 209 627 l 209 336 l 635 336 l 635 627 l 209 627 z "},"⬔":{"ha":926,"x_min":0,"x_max":846,"o":"m 0 809 l 846 809 l 846 0 l 0 0 l 0 809 m 209 627 l 209 182 l 635 182 l 635 318 l 481 318 l 481 473 l 327 473 l 327 627 l 209 627 z "},"⬕":{"ha":926,"x_min":0,"x_max":846,"o":"m 0 809 l 846 809 l 846 0 l 0 0 l 0 809 m 209 627 l 209 491 l 364 491 l 364 336 l 518 336 l 518 182 l 635 182 l 635 627 l 209 627 z "},"⬖":{"ha":926,"x_min":0,"x_max":846,"o":"m 309 809 l 537 809 l 537 654 l 692 654 l 692 500 l 846 500 l 846 309 l 692 309 l 692 154 l 537 154 l 537 0 l 309 0 l 309 154 l 154 154 l 154 309 l 0 309 l 0 500 l 154 500 l 154 654 l 309 654 l 309 809 m 364 627 l 364 182 l 481 182 l 481 336 l 635 336 l 635 473 l 481 473 l 481 627 l 364 627 z "},"⬗":{"ha":926,"x_min":0,"x_max":846,"o":"m 309 809 l 537 809 l 537 654 l 692 654 l 692 500 l 846 500 l 846 309 l 692 309 l 692 154 l 537 154 l 537 0 l 309 0 l 309 154 l 154 154 l 154 309 l 0 309 l 0 500 l 154 500 l 154 654 l 309 654 l 309 809 m 364 627 l 364 473 l 209 473 l 209 336 l 364 336 l 364 182 l 481 182 l 481 627 l 364 627 z "},"⬘":{"ha":926,"x_min":0,"x_max":846,"o":"m 309 809 l 537 809 l 537 654 l 692 654 l 692 500 l 846 500 l 846 309 l 692 309 l 692 154 l 537 154 l 537 0 l 309 0 l 309 154 l 154 154 l 154 309 l 0 309 l 0 500 l 154 500 l 154 654 l 309 654 l 309 809 m 209 473 l 209 336 l 364 336 l 364 182 l 481 182 l 481 336 l 635 336 l 635 473 l 209 473 z "},"⬙":{"ha":926,"x_min":0,"x_max":846,"o":"m 309 809 l 537 809 l 537 654 l 692 654 l 692 500 l 846 500 l 846 309 l 692 309 l 692 154 l 537 154 l 537 0 l 309 0 l 309 154 l 154 154 l 154 309 l 0 309 l 0 500 l 154 500 l 154 654 l 309 654 l 309 809 m 364 627 l 364 473 l 209 473 l 209 336 l 635 336 l 635 473 l 481 473 l 481 627 l 364 627 z "},"⬚":{"ha":926,"x_min":0,"x_max":846,"o":"m 0 809 l 229 809 l 229 617 l 0 617 l 0 809 m 309 809 l 537 809 l 537 617 l 309 617 l 309 809 m 617 809 l 846 809 l 846 617 l 617 617 l 617 809 m 0 500 l 229 500 l 229 309 l 0 309 l 0 500 m 617 500 l 846 500 l 846 309 l 617 309 l 617 500 m 0 192 l 229 192 l 229 0 l 0 0 l 0 192 m 309 192 l 537 192 l 537 0 l 309 0 l 309 192 m 617 192 l 846 192 l 846 0 l 617 0 l 617 192 z "},"⬛":{"ha":1852,"x_min":154,"x_max":1772,"o":"m 154 1426 l 1772 1426 l 1772 -154 l 154 -154 l 154 1426 z "},"⬜":{"ha":1852,"x_min":154,"x_max":1772,"o":"m 154 1426 l 1772 1426 l 1772 -154 l 154 -154 l 154 1426 m 364 1244 l 364 28 l 1561 28 l 1561 1244 l 364 1244 z "},"⬝":{"ha":926,"x_min":154,"x_max":692,"o":"m 154 809 l 692 809 l 692 309 l 154 309 l 154 809 z "},"⬞":{"ha":926,"x_min":154,"x_max":692,"o":"m 154 809 l 692 809 l 692 309 l 154 309 l 154 809 m 364 627 l 364 491 l 481 491 l 481 627 l 364 627 z "},"⬥":{"ha":926,"x_min":0,"x_max":846,"o":"m 309 809 l 537 809 l 537 654 l 692 654 l 692 500 l 846 500 l 846 309 l 692 309 l 692 154 l 537 154 l 537 0 l 309 0 l 309 154 l 154 154 l 154 309 l 0 309 l 0 500 l 154 500 l 154 654 l 309 654 l 309 809 z "},"⬦":{"ha":926,"x_min":0,"x_max":846,"o":"m 309 809 l 537 809 l 537 654 l 692 654 l 692 500 l 846 500 l 846 309 l 692 309 l 692 154 l 537 154 l 537 0 l 309 0 l 309 154 l 154 154 l 154 309 l 0 309 l 0 500 l 154 500 l 154 654 l 309 654 l 309 809 m 364 627 l 364 473 l 209 473 l 209 336 l 364 336 l 364 182 l 481 182 l 481 336 l 635 336 l 635 473 l 481 473 l 481 627 l 364 627 z "},"⬧":{"ha":926,"x_min":0,"x_max":846,"o":"m 309 1117 l 537 1117 l 537 963 l 692 963 l 692 654 l 846 654 l 846 463 l 692 463 l 692 154 l 537 154 l 537 0 l 309 0 l 309 154 l 154 154 l 154 463 l 0 463 l 0 654 l 154 654 l 154 963 l 309 963 l 309 1117 z "},"⬨":{"ha":926,"x_min":0,"x_max":846,"o":"m 309 1117 l 537 1117 l 537 963 l 692 963 l 692 654 l 846 654 l 846 463 l 692 463 l 692 154 l 537 154 l 537 0 l 309 0 l 309 154 l 154 154 l 154 463 l 0 463 l 0 654 l 154 654 l 154 963 l 309 963 l 309 1117 m 364 936 l 364 627 l 209 627 l 209 491 l 364 491 l 364 182 l 481 182 l 481 491 l 635 491 l 635 627 l 481 627 l 481 936 l 364 936 z "},"⭕":{"ha":1852,"x_min":154,"x_max":1618,"o":"m 463 1272 l 1309 1272 l 1309 1117 l 1463 1117 l 1463 963 l 1618 963 l 1618 154 l 1463 154 l 1463 0 l 1309 0 l 1309 -154 l 463 -154 l 463 0 l 309 0 l 309 154 l 154 154 l 154 963 l 309 963 l 309 1117 l 463 1117 l 463 1272 m 672 936 l 672 781 l 518 781 l 518 336 l 672 336 l 672 182 l 1098 182 l 1098 336 l 1252 336 l 1252 781 l 1098 781 l 1098 936 l 672 936 z "},"⭠":{"ha":926,"x_min":0,"x_max":846,"o":"m 309 963 l 537 963 l 537 654 l 846 654 l 846 463 l 537 463 l 537 154 l 309 154 l 309 309 l 154 309 l 154 463 l 0 463 l 0 654 l 154 654 l 154 809 l 309 809 l 309 963 z "},"⭡":{"ha":926,"x_min":0,"x_max":846,"o":"m 309 1117 l 537 1117 l 537 963 l 692 963 l 692 809 l 846 809 l 846 617 l 537 617 l 537 0 l 309 0 l 309 617 l 0 617 l 0 809 l 154 809 l 154 963 l 309 963 l 309 1117 z "},"⭢":{"ha":926,"x_min":0,"x_max":846,"o":"m 309 963 l 537 963 l 537 809 l 692 809 l 692 654 l 846 654 l 846 463 l 692 463 l 692 309 l 537 309 l 537 154 l 309 154 l 309 463 l 0 463 l 0 654 l 309 654 l 309 963 z "},"⭣":{"ha":926,"x_min":0,"x_max":846,"o":"m 309 1117 l 537 1117 l 537 500 l 846 500 l 846 309 l 692 309 l 692 154 l 537 154 l 537 0 l 309 0 l 309 154 l 154 154 l 154 309 l 0 309 l 0 500 l 309 500 l 309 1117 z "},"⭥":{"ha":926,"x_min":0,"x_max":846,"o":"m 309 1117 l 537 1117 l 537 963 l 692 963 l 692 809 l 846 809 l 846 617 l 537 617 l 537 500 l 846 500 l 846 309 l 692 309 l 692 154 l 537 154 l 537 0 l 309 0 l 309 154 l 154 154 l 154 309 l 0 309 l 0 500 l 309 500 l 309 617 l 0 617 l 0 809 l 154 809 l 154 963 l 309 963 l 309 1117 z "},"⭦":{"ha":926,"x_min":0,"x_max":846,"o":"m 0 1117 l 537 1117 l 537 926 l 383 926 l 383 809 l 537 809 l 537 654 l 692 654 l 692 500 l 846 500 l 846 309 l 617 309 l 617 463 l 463 463 l 463 617 l 309 617 l 309 772 l 229 772 l 229 617 l 0 617 l 0 1117 z "},"⭧":{"ha":926,"x_min":0,"x_max":846,"o":"m 309 1117 l 846 1117 l 846 617 l 617 617 l 617 772 l 537 772 l 537 617 l 383 617 l 383 463 l 229 463 l 229 309 l 0 309 l 0 500 l 154 500 l 154 654 l 309 654 l 309 809 l 463 809 l 463 926 l 309 926 l 309 1117 z "},"⭨":{"ha":926,"x_min":0,"x_max":846,"o":"m 0 809 l 229 809 l 229 654 l 383 654 l 383 500 l 537 500 l 537 346 l 617 346 l 617 500 l 846 500 l 846 0 l 309 0 l 309 192 l 463 192 l 463 309 l 309 309 l 309 463 l 154 463 l 154 617 l 0 617 l 0 809 z "},"⭩":{"ha":926,"x_min":0,"x_max":846,"o":"m 617 809 l 846 809 l 846 617 l 692 617 l 692 463 l 537 463 l 537 309 l 383 309 l 383 192 l 537 192 l 537 0 l 0 0 l 0 500 l 229 500 l 229 346 l 309 346 l 309 500 l 463 500 l 463 654 l 617 654 l 617 809 z "},"⭮":{"ha":926,"x_min":0,"x_max":846,"o":"m 0 963 l 537 963 l 537 463 l 309 463 l 309 617 l 229 617 l 229 346 l 617 346 l 617 809 l 846 809 l 846 309 l 692 309 l 692 154 l 154 154 l 154 309 l 0 309 l 0 654 l 154 654 l 154 772 l 0 772 l 0 963 z "},"⭯":{"ha":926,"x_min":0,"x_max":846,"o":"m 309 963 l 846 963 l 846 772 l 692 772 l 692 654 l 846 654 l 846 309 l 692 309 l 692 154 l 154 154 l 154 309 l 0 309 l 0 809 l 229 809 l 229 346 l 617 346 l 617 617 l 537 617 l 537 463 l 309 463 l 309 963 z "},"⮌":{"ha":926,"x_min":0,"x_max":846,"o":"m 309 1117 l 537 1117 l 537 809 l 692 809 l 692 654 l 846 654 l 846 154 l 692 154 l 692 0 l 0 0 l 0 192 l 617 192 l 617 617 l 537 617 l 537 309 l 309 309 l 309 463 l 154 463 l 154 617 l 0 617 l 0 809 l 154 809 l 154 963 l 309 963 l 309 1117 z "},"⮍":{"ha":926,"x_min":0,"x_max":846,"o":"m 309 1117 l 537 1117 l 537 963 l 692 963 l 692 809 l 846 809 l 846 617 l 537 617 l 537 154 l 383 154 l 383 0 l 154 0 l 154 154 l 0 154 l 0 500 l 229 500 l 229 192 l 309 192 l 309 617 l 0 617 l 0 809 l 154 809 l 154 963 l 309 963 l 309 1117 z "},"⮎":{"ha":926,"x_min":0,"x_max":846,"o":"m 154 1117 l 846 1117 l 846 926 l 229 926 l 229 500 l 309 500 l 309 809 l 537 809 l 537 654 l 692 654 l 692 500 l 846 500 l 846 309 l 692 309 l 692 154 l 537 154 l 537 0 l 309 0 l 309 309 l 154 309 l 154 463 l 0 463 l 0 963 l 154 963 l 154 1117 z "},"⮏":{"ha":926,"x_min":0,"x_max":846,"o":"m 463 1117 l 692 1117 l 692 963 l 846 963 l 846 617 l 617 617 l 617 926 l 537 926 l 537 500 l 846 500 l 846 309 l 692 309 l 692 154 l 537 154 l 537 0 l 309 0 l 309 154 l 154 154 l 154 309 l 0 309 l 0 500 l 309 500 l 309 963 l 463 963 l 463 1117 z "},"⮐":{"ha":926,"x_min":0,"x_max":846,"o":"m 463 1117 l 692 1117 l 692 963 l 846 963 l 846 309 l 383 309 l 383 192 l 537 192 l 537 0 l 309 0 l 309 154 l 154 154 l 154 309 l 0 309 l 0 500 l 154 500 l 154 654 l 309 654 l 309 809 l 537 809 l 537 617 l 383 617 l 383 500 l 617 500 l 617 926 l 463 926 l 463 1117 z "},"⮑":{"ha":926,"x_min":0,"x_max":846,"o":"m 154 1117 l 383 1117 l 383 926 l 229 926 l 229 500 l 463 500 l 463 617 l 309 617 l 309 809 l 537 809 l 537 654 l 692 654 l 692 500 l 846 500 l 846 309 l 692 309 l 692 154 l 537 154 l 537 0 l 309 0 l 309 192 l 463 192 l 463 309 l 0 309 l 0 963 l 154 963 l 154 1117 z "},"⮒":{"ha":926,"x_min":0,"x_max":846,"o":"m 0 1117 l 383 1117 l 383 926 l 0 926 l 0 1117 m 463 1117 l 846 1117 l 846 309 l 383 309 l 383 192 l 537 192 l 537 0 l 309 0 l 309 154 l 154 154 l 154 309 l 0 309 l 0 500 l 154 500 l 154 654 l 309 654 l 309 809 l 537 809 l 537 617 l 383 617 l 383 500 l 617 500 l 617 926 l 463 926 l 463 1117 z "},"⮓":{"ha":926,"x_min":0,"x_max":846,"o":"m 0 1117 l 383 1117 l 383 926 l 229 926 l 229 500 l 463 500 l 463 617 l 309 617 l 309 809 l 537 809 l 537 654 l 692 654 l 692 500 l 846 500 l 846 309 l 692 309 l 692 154 l 537 154 l 537 0 l 309 0 l 309 192 l 463 192 l 463 309 l 0 309 l 0 1117 m 463 1117 l 846 1117 l 846 926 l 463 926 l 463 1117 z "},"⮕":{"ha":926,"x_min":0,"x_max":846,"o":"m 309 963 l 537 963 l 537 809 l 692 809 l 692 654 l 846 654 l 846 463 l 692 463 l 692 309 l 537 309 l 537 154 l 309 154 l 309 309 l 0 309 l 0 809 l 309 809 l 309 963 z "},"⮬":{"ha":926,"x_min":0,"x_max":846,"o":"m 309 1117 l 537 1117 l 537 963 l 692 963 l 692 809 l 846 809 l 846 617 l 692 617 l 692 192 l 846 192 l 846 0 l 309 0 l 309 154 l 154 154 l 154 617 l 0 617 l 0 809 l 154 809 l 154 963 l 309 963 l 309 1117 z "},"⮭":{"ha":926,"x_min":0,"x_max":846,"o":"m 309 1117 l 537 1117 l 537 963 l 692 963 l 692 809 l 846 809 l 846 617 l 692 617 l 692 154 l 537 154 l 537 0 l 0 0 l 0 192 l 154 192 l 154 617 l 0 617 l 0 809 l 154 809 l 154 963 l 309 963 l 309 1117 z "},"⮮":{"ha":926,"x_min":0,"x_max":846,"o":"m 309 1117 l 846 1117 l 846 926 l 692 926 l 692 500 l 846 500 l 846 309 l 692 309 l 692 154 l 537 154 l 537 0 l 309 0 l 309 154 l 154 154 l 154 309 l 0 309 l 0 500 l 154 500 l 154 963 l 309 963 l 309 1117 z "},"⮯":{"ha":926,"x_min":0,"x_max":846,"o":"m 0 1117 l 537 1117 l 537 963 l 692 963 l 692 500 l 846 500 l 846 309 l 692 309 l 692 154 l 537 154 l 537 0 l 309 0 l 309 154 l 154 154 l 154 309 l 0 309 l 0 500 l 154 500 l 154 926 l 0 926 l 0 1117 z "},"⮺":{"ha":926,"x_min":0,"x_max":846,"o":"m 154 963 l 846 963 l 846 309 l 692 309 l 692 0 l 0 0 l 0 654 l 154 654 l 154 963 m 364 781 l 364 645 l 635 645 l 635 781 l 364 781 m 209 318 l 209 182 l 481 182 l 481 318 l 209 318 z "},"⮻":{"ha":926,"x_min":0,"x_max":846,"o":"m 154 963 l 846 963 l 846 309 l 692 309 l 692 0 l 0 0 l 0 654 l 154 654 l 154 963 m 209 318 l 209 182 l 481 182 l 481 318 l 209 318 z "},"⮼":{"ha":926,"x_min":0,"x_max":846,"o":"m 154 963 l 846 963 l 846 309 l 692 309 l 692 0 l 0 0 l 0 654 l 154 654 l 154 963 z "},"⯀":{"ha":926,"x_min":0,"x_max":846,"o":"m 0 963 l 846 963 l 846 154 l 0 154 l 0 963 z "},"⯁":{"ha":926,"x_min":0,"x_max":846,"o":"m 309 963 l 537 963 l 537 809 l 692 809 l 692 654 l 846 654 l 846 463 l 692 463 l 692 309 l 537 309 l 537 154 l 309 154 l 309 309 l 154 309 l 154 463 l 0 463 l 0 654 l 154 654 l 154 809 l 309 809 l 309 963 z "},"⯅":{"ha":926,"x_min":0,"x_max":846,"o":"m 309 963 l 537 963 l 537 654 l 692 654 l 692 346 l 846 346 l 846 154 l 0 154 l 0 346 l 154 346 l 154 654 l 309 654 l 309 963 z "},"⯆":{"ha":926,"x_min":0,"x_max":846,"o":"m 0 963 l 846 963 l 846 772 l 692 772 l 692 463 l 537 463 l 537 154 l 309 154 l 309 463 l 154 463 l 154 772 l 0 772 l 0 963 z "},"⯇":{"ha":926,"x_min":0,"x_max":846,"o":"m 617 963 l 846 963 l 846 154 l 617 154 l 617 309 l 309 309 l 309 463 l 0 463 l 0 654 l 309 654 l 309 809 l 617 809 l 617 963 z "},"⯈":{"ha":926,"x_min":0,"x_max":846,"o":"m 0 963 l 229 963 l 229 809 l 537 809 l 537 654 l 846 654 l 846 463 l 537 463 l 537 309 l 229 309 l 229 154 l 0 154 l 0 963 z "},"⯊":{"ha":926,"x_min":0,"x_max":846,"o":"m 154 1117 l 692 1117 l 692 963 l 846 963 l 846 617 l 0 617 l 0 963 l 154 963 l 154 1117 z "},"⯋":{"ha":926,"x_min":0,"x_max":846,"o":"m 0 500 l 846 500 l 846 154 l 692 154 l 692 0 l 154 0 l 154 154 l 0 154 l 0 500 z "},"⯑":{"ha":926,"x_min":0,"x_max":846,"o":"m 309 1117 l 537 1117 l 537 963 l 692 963 l 692 809 l 846 809 l 846 309 l 692 309 l 692 154 l 537 154 l 537 0 l 309 0 l 309 154 l 154 154 l 154 309 l 0 309 l 0 809 l 154 809 l 154 963 l 309 963 l 309 1117 m 364 936 l 364 799 l 481 799 l 481 936 l 364 936 m 518 781 l 518 645 l 635 645 l 635 781 l 518 781 m 364 627 l 364 491 l 481 491 l 481 627 l 364 627 m 364 318 l 364 182 l 481 182 l 481 318 l 364 318 z "},"⯒":{"ha":926,"x_min":0,"x_max":846,"o":"m 309 1117 l 537 1117 l 537 963 l 692 963 l 692 772 l 537 772 l 537 654 l 846 654 l 846 463 l 537 463 l 537 346 l 692 346 l 692 154 l 537 154 l 537 0 l 309 0 l 309 154 l 154 154 l 154 346 l 309 346 l 309 463 l 0 463 l 0 654 l 309 654 l 309 772 l 154 772 l 154 963 l 309 963 l 309 1117 z "},"⯾":{"ha":926,"x_min":0,"x_max":846,"o":"m 617 809 l 846 809 l 846 0 l 0 0 l 0 192 l 617 192 l 617 809 z "},"⯿":{"ha":926,"x_min":154,"x_max":692,"o":"m 154 1117 l 692 1117 l 692 772 l 537 772 l 537 654 l 692 654 l 692 463 l 537 463 l 537 346 l 692 346 l 692 0 l 154 0 l 154 346 l 309 346 l 309 772 l 154 772 l 154 1117 z "},"─":{"ha":926,"x_min":0,"x_max":1000,"o":"m 0 654 l 1000 654 l 1000 463 l 0 463 l 0 654 z "},"━":{"ha":926,"x_min":0,"x_max":1000,"o":"m 0 809 l 1000 809 l 1000 309 l 0 309 l 0 809 z "},"│":{"ha":926,"x_min":309,"x_max":537,"o":"m 309 1580 l 537 1580 l 537 -309 l 309 -309 l 309 1580 z "},"┃":{"ha":926,"x_min":154,"x_max":692,"o":"m 154 1580 l 692 1580 l 692 -309 l 154 -309 l 154 1580 z "},"┄":{"ha":926,"x_min":0,"x_max":846,"o":"m 0 654 l 229 654 l 229 463 l 0 463 l 0 654 m 309 654 l 537 654 l 537 463 l 309 463 l 309 654 m 617 654 l 846 654 l 846 463 l 617 463 l 617 654 z "},"┅":{"ha":926,"x_min":0,"x_max":846,"o":"m 0 809 l 229 809 l 229 309 l 0 309 l 0 809 m 309 809 l 537 809 l 537 309 l 309 309 l 309 809 m 617 809 l 846 809 l 846 309 l 617 309 l 617 809 z "},"┆":{"ha":926,"x_min":309,"x_max":537,"o":"m 309 1580 l 537 1580 l 537 1080 l 309 1080 l 309 1580 m 309 963 l 537 963 l 537 463 l 309 463 l 309 963 m 309 346 l 537 346 l 537 -154 l 309 -154 l 309 346 z "},"┇":{"ha":926,"x_min":154,"x_max":692,"o":"m 154 1580 l 692 1580 l 692 1080 l 154 1080 l 154 1580 m 154 963 l 692 963 l 692 463 l 154 463 l 154 963 m 154 346 l 692 346 l 692 -154 l 154 -154 l 154 346 z "},"┊":{"ha":926,"x_min":309,"x_max":537,"o":"m 309 1580 l 537 1580 l 537 1235 l 309 1235 l 309 1580 m 309 1117 l 537 1117 l 537 772 l 309 772 l 309 1117 m 309 654 l 537 654 l 537 309 l 309 309 l 309 654 m 309 192 l 537 192 l 537 -154 l 309 -154 l 309 192 z "},"┋":{"ha":926,"x_min":154,"x_max":692,"o":"m 154 1580 l 692 1580 l 692 1235 l 154 1235 l 154 1580 m 154 1117 l 692 1117 l 692 772 l 154 772 l 154 1117 m 154 654 l 692 654 l 692 309 l 154 309 l 154 654 m 154 192 l 692 192 l 692 -154 l 154 -154 l 154 192 z "},"┌":{"ha":926,"x_min":309,"x_max":1000,"o":"m 309 654 l 1000 654 l 1000 463 l 537 463 l 537 -309 l 309 -309 l 309 654 z "},"┍":{"ha":926,"x_min":309,"x_max":1000,"o":"m 309 809 l 1000 809 l 1000 309 l 537 309 l 537 -309 l 309 -309 l 309 809 z "},"┎":{"ha":926,"x_min":154,"x_max":1000,"o":"m 154 654 l 1000 654 l 1000 463 l 692 463 l 692 -309 l 154 -309 l 154 654 z "},"┏":{"ha":926,"x_min":154,"x_max":1000,"o":"m 154 809 l 1000 809 l 1000 309 l 692 309 l 692 -309 l 154 -309 l 154 809 z "},"┐":{"ha":926,"x_min":0,"x_max":537,"o":"m 0 654 l 537 654 l 537 -309 l 309 -309 l 309 463 l 0 463 l 0 654 z "},"┑":{"ha":926,"x_min":0,"x_max":537,"o":"m 0 809 l 537 809 l 537 -309 l 309 -309 l 309 309 l 0 309 l 0 809 z "},"┒":{"ha":926,"x_min":0,"x_max":692,"o":"m 0 654 l 692 654 l 692 -309 l 154 -309 l 154 463 l 0 463 l 0 654 z "},"┓":{"ha":926,"x_min":0,"x_max":692,"o":"m 0 809 l 692 809 l 692 -309 l 154 -309 l 154 309 l 0 309 l 0 809 z "},"└":{"ha":926,"x_min":309,"x_max":1000,"o":"m 309 1580 l 537 1580 l 537 654 l 1000 654 l 1000 463 l 309 463 l 309 1580 z "},"┕":{"ha":926,"x_min":309,"x_max":1000,"o":"m 309 1580 l 537 1580 l 537 809 l 1000 809 l 1000 309 l 309 309 l 309 1580 z "},"┖":{"ha":926,"x_min":154,"x_max":1000,"o":"m 154 1580 l 692 1580 l 692 654 l 1000 654 l 1000 463 l 154 463 l 154 1580 z "},"┗":{"ha":926,"x_min":154,"x_max":1000,"o":"m 154 1580 l 692 1580 l 692 809 l 1000 809 l 1000 309 l 154 309 l 154 1580 z "},"┘":{"ha":926,"x_min":0,"x_max":537,"o":"m 309 1580 l 537 1580 l 537 463 l 0 463 l 0 654 l 309 654 l 309 1580 z "},"┙":{"ha":926,"x_min":0,"x_max":537,"o":"m 309 1580 l 537 1580 l 537 309 l 0 309 l 0 809 l 309 809 l 309 1580 z "},"┚":{"ha":926,"x_min":0,"x_max":692,"o":"m 154 1580 l 692 1580 l 692 463 l 0 463 l 0 654 l 154 654 l 154 1580 z "},"┛":{"ha":926,"x_min":0,"x_max":692,"o":"m 154 1580 l 692 1580 l 692 309 l 0 309 l 0 809 l 154 809 l 154 1580 z "},"├":{"ha":926,"x_min":309,"x_max":1000,"o":"m 309 1580 l 537 1580 l 537 654 l 1000 654 l 1000 463 l 537 463 l 537 -309 l 309 -309 l 309 1580 z "},"┝":{"ha":926,"x_min":309,"x_max":1000,"o":"m 309 1580 l 537 1580 l 537 809 l 1000 809 l 1000 309 l 537 309 l 537 -309 l 309 -309 l 309 1580 z "},"┞":{"ha":926,"x_min":154,"x_max":1000,"o":"m 154 1580 l 692 1580 l 692 654 l 1000 654 l 1000 463 l 537 463 l 537 -309 l 309 -309 l 309 463 l 154 463 l 154 1580 z "},"┟":{"ha":926,"x_min":154,"x_max":1000,"o":"m 309 1580 l 537 1580 l 537 654 l 1000 654 l 1000 463 l 692 463 l 692 -309 l 154 -309 l 154 654 l 309 654 l 309 1580 z "},"┠":{"ha":926,"x_min":154,"x_max":1000,"o":"m 154 1580 l 692 1580 l 692 654 l 1000 654 l 1000 463 l 692 463 l 692 -309 l 154 -309 l 154 1580 z "},"┡":{"ha":926,"x_min":154,"x_max":1000,"o":"m 154 1580 l 692 1580 l 692 809 l 1000 809 l 1000 309 l 537 309 l 537 -309 l 309 -309 l 309 309 l 154 309 l 154 1580 z "},"┢":{"ha":926,"x_min":154,"x_max":1000,"o":"m 309 1580 l 537 1580 l 537 809 l 1000 809 l 1000 309 l 692 309 l 692 -309 l 154 -309 l 154 809 l 309 809 l 309 1580 z "},"┣":{"ha":926,"x_min":154,"x_max":1000,"o":"m 154 1580 l 692 1580 l 692 809 l 1000 809 l 1000 309 l 692 309 l 692 -309 l 154 -309 l 154 1580 z "},"┤":{"ha":926,"x_min":0,"x_max":537,"o":"m 309 1580 l 537 1580 l 537 -309 l 309 -309 l 309 463 l 0 463 l 0 654 l 309 654 l 309 1580 z "},"┥":{"ha":926,"x_min":0,"x_max":537,"o":"m 309 1580 l 537 1580 l 537 -309 l 309 -309 l 309 309 l 0 309 l 0 809 l 309 809 l 309 1580 z "},"┦":{"ha":926,"x_min":0,"x_max":692,"o":"m 154 1580 l 692 1580 l 692 463 l 537 463 l 537 -309 l 309 -309 l 309 463 l 0 463 l 0 654 l 154 654 l 154 1580 z "},"┧":{"ha":926,"x_min":0,"x_max":692,"o":"m 309 1580 l 537 1580 l 537 654 l 692 654 l 692 -309 l 154 -309 l 154 463 l 0 463 l 0 654 l 309 654 l 309 1580 z "},"┨":{"ha":926,"x_min":0,"x_max":692,"o":"m 154 1580 l 692 1580 l 692 -309 l 154 -309 l 154 463 l 0 463 l 0 654 l 154 654 l 154 1580 z "},"┩":{"ha":926,"x_min":0,"x_max":692,"o":"m 154 1580 l 692 1580 l 692 309 l 537 309 l 537 -309 l 309 -309 l 309 309 l 0 309 l 0 809 l 154 809 l 154 1580 z "},"┪":{"ha":926,"x_min":0,"x_max":692,"o":"m 309 1580 l 537 1580 l 537 809 l 692 809 l 692 -309 l 154 -309 l 154 309 l 0 309 l 0 809 l 309 809 l 309 1580 z "},"┫":{"ha":926,"x_min":0,"x_max":692,"o":"m 154 1580 l 692 1580 l 692 -309 l 154 -309 l 154 309 l 0 309 l 0 809 l 154 809 l 154 1580 z "},"┬":{"ha":926,"x_min":0,"x_max":1000,"o":"m 0 654 l 1000 654 l 1000 463 l 537 463 l 537 -309 l 309 -309 l 309 463 l 0 463 l 0 654 z "},"┭":{"ha":926,"x_min":0,"x_max":1000,"o":"m 0 809 l 537 809 l 537 654 l 1000 654 l 1000 463 l 537 463 l 537 -309 l 309 -309 l 309 309 l 0 309 l 0 809 z "},"┮":{"ha":926,"x_min":0,"x_max":1000,"o":"m 309 809 l 1000 809 l 1000 309 l 537 309 l 537 -309 l 309 -309 l 309 463 l 0 463 l 0 654 l 309 654 l 309 809 z "},"┯":{"ha":926,"x_min":0,"x_max":1000,"o":"m 0 809 l 1000 809 l 1000 309 l 537 309 l 537 -309 l 309 -309 l 309 309 l 0 309 l 0 809 z "},"┰":{"ha":926,"x_min":0,"x_max":1000,"o":"m 0 654 l 1000 654 l 1000 463 l 692 463 l 692 -309 l 154 -309 l 154 463 l 0 463 l 0 654 z "},"┱":{"ha":926,"x_min":0,"x_max":1000,"o":"m 0 809 l 692 809 l 692 654 l 1000 654 l 1000 463 l 692 463 l 692 -309 l 154 -309 l 154 309 l 0 309 l 0 809 z "},"┲":{"ha":926,"x_min":0,"x_max":1000,"o":"m 154 809 l 1000 809 l 1000 309 l 692 309 l 692 -309 l 154 -309 l 154 463 l 0 463 l 0 654 l 154 654 l 154 809 z "},"┳":{"ha":926,"x_min":0,"x_max":1000,"o":"m 0 809 l 1000 809 l 1000 309 l 692 309 l 692 -309 l 154 -309 l 154 309 l 0 309 l 0 809 z "},"┴":{"ha":926,"x_min":0,"x_max":1000,"o":"m 309 1580 l 537 1580 l 537 654 l 1000 654 l 1000 463 l 0 463 l 0 654 l 309 654 l 309 1580 z "},"┵":{"ha":926,"x_min":0,"x_max":1000,"o":"m 309 1580 l 537 1580 l 537 654 l 1000 654 l 1000 463 l 537 463 l 537 309 l 0 309 l 0 809 l 309 809 l 309 1580 z "},"┶":{"ha":926,"x_min":0,"x_max":1000,"o":"m 309 1580 l 537 1580 l 537 809 l 1000 809 l 1000 309 l 309 309 l 309 463 l 0 463 l 0 654 l 309 654 l 309 1580 z "},"┷":{"ha":926,"x_min":0,"x_max":1000,"o":"m 309 1580 l 537 1580 l 537 809 l 1000 809 l 1000 309 l 0 309 l 0 809 l 309 809 l 309 1580 z "},"┸":{"ha":926,"x_min":0,"x_max":1000,"o":"m 154 1580 l 692 1580 l 692 654 l 1000 654 l 1000 463 l 0 463 l 0 654 l 154 654 l 154 1580 z "},"┹":{"ha":926,"x_min":0,"x_max":1000,"o":"m 154 1580 l 692 1580 l 692 654 l 1000 654 l 1000 463 l 692 463 l 692 309 l 0 309 l 0 809 l 154 809 l 154 1580 z "},"┺":{"ha":926,"x_min":0,"x_max":1000,"o":"m 154 1580 l 692 1580 l 692 809 l 1000 809 l 1000 309 l 154 309 l 154 463 l 0 463 l 0 654 l 154 654 l 154 1580 z "},"┻":{"ha":926,"x_min":0,"x_max":1000,"o":"m 154 1580 l 692 1580 l 692 809 l 1000 809 l 1000 309 l 0 309 l 0 809 l 154 809 l 154 1580 z "},"┼":{"ha":926,"x_min":0,"x_max":1000,"o":"m 309 1580 l 537 1580 l 537 654 l 1000 654 l 1000 463 l 537 463 l 537 -309 l 309 -309 l 309 463 l 0 463 l 0 654 l 309 654 l 309 1580 z "},"┽":{"ha":926,"x_min":0,"x_max":1000,"o":"m 309 1580 l 537 1580 l 537 654 l 1000 654 l 1000 463 l 537 463 l 537 -309 l 309 -309 l 309 309 l 0 309 l 0 809 l 309 809 l 309 1580 z "},"┾":{"ha":926,"x_min":0,"x_max":1000,"o":"m 309 1580 l 537 1580 l 537 809 l 1000 809 l 1000 309 l 537 309 l 537 -309 l 309 -309 l 309 463 l 0 463 l 0 654 l 309 654 l 309 1580 z "},"┿":{"ha":926,"x_min":0,"x_max":1000,"o":"m 309 1580 l 537 1580 l 537 809 l 1000 809 l 1000 309 l 537 309 l 537 -309 l 309 -309 l 309 309 l 0 309 l 0 809 l 309 809 l 309 1580 z "},"╀":{"ha":926,"x_min":0,"x_max":1000,"o":"m 154 1580 l 692 1580 l 692 654 l 1000 654 l 1000 463 l 537 463 l 537 -309 l 309 -309 l 309 463 l 0 463 l 0 654 l 154 654 l 154 1580 z "},"╁":{"ha":926,"x_min":0,"x_max":1000,"o":"m 309 1580 l 537 1580 l 537 654 l 1000 654 l 1000 463 l 692 463 l 692 -309 l 154 -309 l 154 463 l 0 463 l 0 654 l 309 654 l 309 1580 z "},"╂":{"ha":926,"x_min":0,"x_max":1000,"o":"m 154 1580 l 692 1580 l 692 654 l 1000 654 l 1000 463 l 692 463 l 692 -309 l 154 -309 l 154 463 l 0 463 l 0 654 l 154 654 l 154 1580 z "},"╃":{"ha":926,"x_min":0,"x_max":1000,"o":"m 154 1580 l 692 1580 l 692 654 l 1000 654 l 1000 463 l 692 463 l 692 309 l 537 309 l 537 -309 l 309 -309 l 309 309 l 0 309 l 0 809 l 154 809 l 154 1580 z "},"╄":{"ha":926,"x_min":0,"x_max":1000,"o":"m 154 1580 l 692 1580 l 692 809 l 1000 809 l 1000 309 l 537 309 l 537 -309 l 309 -309 l 309 309 l 154 309 l 154 463 l 0 463 l 0 654 l 154 654 l 154 1580 z "},"╅":{"ha":926,"x_min":0,"x_max":1000,"o":"m 309 1580 l 537 1580 l 537 809 l 692 809 l 692 654 l 1000 654 l 1000 463 l 692 463 l 692 -309 l 154 -309 l 154 309 l 0 309 l 0 809 l 309 809 l 309 1580 z "},"╆":{"ha":926,"x_min":0,"x_max":1000,"o":"m 309 1580 l 537 1580 l 537 809 l 1000 809 l 1000 309 l 692 309 l 692 -309 l 154 -309 l 154 463 l 0 463 l 0 654 l 154 654 l 154 809 l 309 809 l 309 1580 z "},"╇":{"ha":926,"x_min":0,"x_max":1000,"o":"m 154 1580 l 692 1580 l 692 809 l 1000 809 l 1000 309 l 537 309 l 537 -309 l 309 -309 l 309 309 l 0 309 l 0 809 l 154 809 l 154 1580 z "},"╈":{"ha":926,"x_min":0,"x_max":1000,"o":"m 309 1580 l 537 1580 l 537 809 l 1000 809 l 1000 309 l 692 309 l 692 -309 l 154 -309 l 154 309 l 0 309 l 0 809 l 309 809 l 309 1580 z "},"╉":{"ha":926,"x_min":0,"x_max":1000,"o":"m 154 1580 l 692 1580 l 692 654 l 1000 654 l 1000 463 l 692 463 l 692 -309 l 154 -309 l 154 309 l 0 309 l 0 809 l 154 809 l 154 1580 z "},"╊":{"ha":926,"x_min":0,"x_max":1000,"o":"m 154 1580 l 692 1580 l 692 809 l 1000 809 l 1000 309 l 692 309 l 692 -309 l 154 -309 l 154 463 l 0 463 l 0 654 l 154 654 l 154 1580 z "},"╋":{"ha":926,"x_min":0,"x_max":1000,"o":"m 154 1580 l 692 1580 l 692 809 l 1000 809 l 1000 309 l 692 309 l 692 -309 l 154 -309 l 154 309 l 0 309 l 0 809 l 154 809 l 154 1580 z "},"╌":{"ha":926,"x_min":0,"x_max":846,"o":"m 0 654 l 383 654 l 383 463 l 0 463 l 0 654 m 463 654 l 846 654 l 846 463 l 463 463 l 463 654 z "},"╍":{"ha":926,"x_min":0,"x_max":846,"o":"m 0 809 l 383 809 l 383 309 l 0 309 l 0 809 m 463 809 l 846 809 l 846 309 l 463 309 l 463 809 z "},"╎":{"ha":926,"x_min":309,"x_max":537,"o":"m 309 1580 l 537 1580 l 537 772 l 309 772 l 309 1580 m 309 654 l 537 654 l 537 -154 l 309 -154 l 309 654 z "},"╏":{"ha":926,"x_min":154,"x_max":692,"o":"m 154 1580 l 692 1580 l 692 926 l 154 926 l 154 1580 m 154 654 l 692 654 l 692 0 l 154 0 l 154 654 z "},"═":{"ha":926,"x_min":0,"x_max":1000,"o":"m 0 809 l 1000 809 l 1000 617 l 0 617 l 0 809 m 0 500 l 1000 500 l 1000 309 l 0 309 l 0 500 z "},"║":{"ha":926,"x_min":154,"x_max":692,"o":"m 154 1580 l 383 1580 l 383 -309 l 154 -309 l 154 1580 m 463 1580 l 692 1580 l 692 -309 l 463 -309 l 463 1580 z "},"╒":{"ha":926,"x_min":309,"x_max":1000,"o":"m 309 809 l 1000 809 l 1000 617 l 537 617 l 537 500 l 1000 500 l 1000 309 l 537 309 l 537 -309 l 309 -309 l 309 809 z "},"╓":{"ha":926,"x_min":154,"x_max":1000,"o":"m 154 654 l 1000 654 l 1000 463 l 692 463 l 692 -309 l 463 -309 l 463 463 l 383 463 l 383 -309 l 154 -309 l 154 654 z "},"╔":{"ha":926,"x_min":154,"x_max":1000,"o":"m 154 809 l 1000 809 l 1000 617 l 383 617 l 383 -309 l 154 -309 l 154 809 m 463 500 l 1000 500 l 1000 309 l 692 309 l 692 -309 l 463 -309 l 463 500 z "},"╕":{"ha":926,"x_min":0,"x_max":537,"o":"m 0 809 l 537 809 l 537 -309 l 309 -309 l 309 309 l 0 309 l 0 500 l 309 500 l 309 617 l 0 617 l 0 809 z "},"╖":{"ha":926,"x_min":0,"x_max":692,"o":"m 0 654 l 692 654 l 692 -309 l 463 -309 l 463 463 l 383 463 l 383 -309 l 154 -309 l 154 463 l 0 463 l 0 654 z "},"╗":{"ha":926,"x_min":0,"x_max":692,"o":"m 0 809 l 692 809 l 692 -309 l 463 -309 l 463 617 l 0 617 l 0 809 m 0 500 l 383 500 l 383 -309 l 154 -309 l 154 309 l 0 309 l 0 500 z "},"╘":{"ha":926,"x_min":309,"x_max":1000,"o":"m 309 1580 l 537 1580 l 537 809 l 1000 809 l 1000 617 l 537 617 l 537 500 l 1000 500 l 1000 309 l 309 309 l 309 1580 z "},"╙":{"ha":926,"x_min":154,"x_max":1000,"o":"m 154 1580 l 383 1580 l 383 654 l 463 654 l 463 1580 l 692 1580 l 692 654 l 1000 654 l 1000 463 l 154 463 l 154 1580 z "},"╚":{"ha":926,"x_min":154,"x_max":1000,"o":"m 154 1580 l 383 1580 l 383 500 l 1000 500 l 1000 309 l 154 309 l 154 1580 m 463 1580 l 692 1580 l 692 809 l 1000 809 l 1000 617 l 463 617 l 463 1580 z "},"╛":{"ha":926,"x_min":0,"x_max":537,"o":"m 309 1580 l 537 1580 l 537 309 l 0 309 l 0 500 l 309 500 l 309 617 l 0 617 l 0 809 l 309 809 l 309 1580 z "},"╜":{"ha":926,"x_min":0,"x_max":692,"o":"m 154 1580 l 383 1580 l 383 654 l 463 654 l 463 1580 l 692 1580 l 692 463 l 0 463 l 0 654 l 154 654 l 154 1580 z "},"╝":{"ha":926,"x_min":0,"x_max":692,"o":"m 154 1580 l 383 1580 l 383 617 l 0 617 l 0 809 l 154 809 l 154 1580 m 463 1580 l 692 1580 l 692 309 l 0 309 l 0 500 l 463 500 l 463 1580 z "},"╞":{"ha":926,"x_min":309,"x_max":1000,"o":"m 309 1580 l 537 1580 l 537 809 l 1000 809 l 1000 617 l 537 617 l 537 500 l 1000 500 l 1000 309 l 537 309 l 537 -309 l 309 -309 l 309 1580 z "},"╟":{"ha":926,"x_min":154,"x_max":1000,"o":"m 154 1580 l 383 1580 l 383 -309 l 154 -309 l 154 1580 m 463 1580 l 692 1580 l 692 654 l 1000 654 l 1000 463 l 692 463 l 692 -309 l 463 -309 l 463 1580 z "},"╠":{"ha":926,"x_min":154,"x_max":1000,"o":"m 154 1580 l 383 1580 l 383 -309 l 154 -309 l 154 1580 m 463 1580 l 692 1580 l 692 809 l 1000 809 l 1000 617 l 463 617 l 463 1580 m 463 500 l 1000 500 l 1000 309 l 692 309 l 692 -309 l 463 -309 l 463 500 z "},"╡":{"ha":926,"x_min":0,"x_max":537,"o":"m 309 1580 l 537 1580 l 537 -309 l 309 -309 l 309 309 l 0 309 l 0 500 l 309 500 l 309 617 l 0 617 l 0 809 l 309 809 l 309 1580 z "},"╢":{"ha":926,"x_min":0,"x_max":692,"o":"m 154 1580 l 383 1580 l 383 -309 l 154 -309 l 154 463 l 0 463 l 0 654 l 154 654 l 154 1580 m 463 1580 l 692 1580 l 692 -309 l 463 -309 l 463 1580 z "},"╣":{"ha":926,"x_min":0,"x_max":692,"o":"m 154 1580 l 383 1580 l 383 617 l 0 617 l 0 809 l 154 809 l 154 1580 m 463 1580 l 692 1580 l 692 -309 l 463 -309 l 463 1580 m 0 500 l 383 500 l 383 -309 l 154 -309 l 154 309 l 0 309 l 0 500 z "},"╤":{"ha":926,"x_min":0,"x_max":1000,"o":"m 0 809 l 1000 809 l 1000 617 l 0 617 l 0 809 m 0 500 l 1000 500 l 1000 309 l 537 309 l 537 -309 l 309 -309 l 309 309 l 0 309 l 0 500 z "},"╥":{"ha":926,"x_min":0,"x_max":1000,"o":"m 0 654 l 1000 654 l 1000 463 l 692 463 l 692 -309 l 463 -309 l 463 463 l 383 463 l 383 -309 l 154 -309 l 154 463 l 0 463 l 0 654 z "},"╦":{"ha":926,"x_min":0,"x_max":1000,"o":"m 0 809 l 1000 809 l 1000 617 l 0 617 l 0 809 m 0 500 l 383 500 l 383 -309 l 154 -309 l 154 309 l 0 309 l 0 500 m 463 500 l 1000 500 l 1000 309 l 692 309 l 692 -309 l 463 -309 l 463 500 z "},"╧":{"ha":926,"x_min":0,"x_max":1000,"o":"m 309 1580 l 537 1580 l 537 809 l 1000 809 l 1000 617 l 0 617 l 0 809 l 309 809 l 309 1580 m 0 500 l 1000 500 l 1000 309 l 0 309 l 0 500 z "},"╨":{"ha":926,"x_min":0,"x_max":1000,"o":"m 154 1580 l 383 1580 l 383 654 l 463 654 l 463 1580 l 692 1580 l 692 654 l 1000 654 l 1000 463 l 0 463 l 0 654 l 154 654 l 154 1580 z "},"╩":{"ha":926,"x_min":0,"x_max":1000,"o":"m 154 1580 l 383 1580 l 383 617 l 0 617 l 0 809 l 154 809 l 154 1580 m 463 1580 l 692 1580 l 692 809 l 1000 809 l 1000 617 l 463 617 l 463 1580 m 0 500 l 1000 500 l 1000 309 l 0 309 l 0 500 z "},"╪":{"ha":926,"x_min":0,"x_max":1000,"o":"m 309 1580 l 537 1580 l 537 809 l 1000 809 l 1000 617 l 537 617 l 537 500 l 1000 500 l 1000 309 l 537 309 l 537 -309 l 309 -309 l 309 309 l 0 309 l 0 500 l 309 500 l 309 617 l 0 617 l 0 809 l 309 809 l 309 1580 z "},"╫":{"ha":926,"x_min":0,"x_max":1000,"o":"m 154 1580 l 383 1580 l 383 654 l 463 654 l 463 1580 l 692 1580 l 692 654 l 1000 654 l 1000 463 l 692 463 l 692 -309 l 463 -309 l 463 463 l 383 463 l 383 -309 l 154 -309 l 154 463 l 0 463 l 0 654 l 154 654 l 154 1580 z "},"╬":{"ha":926,"x_min":0,"x_max":1000,"o":"m 154 1580 l 383 1580 l 383 617 l 0 617 l 0 809 l 154 809 l 154 1580 m 463 1580 l 692 1580 l 692 809 l 1000 809 l 1000 617 l 463 617 l 463 1580 m 0 500 l 383 500 l 383 -309 l 154 -309 l 154 309 l 0 309 l 0 500 m 463 500 l 1000 500 l 1000 309 l 692 309 l 692 -309 l 463 -309 l 463 500 z "},"╭":{"ha":926,"x_min":309,"x_max":1000,"o":"m 617 654 l 1000 654 l 1000 463 l 692 463 l 692 309 l 537 309 l 537 -309 l 309 -309 l 309 346 l 463 346 l 463 500 l 617 500 l 617 654 z "},"╮":{"ha":926,"x_min":0,"x_max":537,"o":"m 0 654 l 229 654 l 229 500 l 383 500 l 383 346 l 537 346 l 537 -309 l 309 -309 l 309 309 l 154 309 l 154 463 l 0 463 l 0 654 z "},"╯":{"ha":926,"x_min":0,"x_max":537,"o":"m 309 1580 l 537 1580 l 537 772 l 383 772 l 383 617 l 229 617 l 229 463 l 0 463 l 0 654 l 154 654 l 154 809 l 309 809 l 309 1580 z "},"╰":{"ha":926,"x_min":309,"x_max":1000,"o":"m 309 1580 l 537 1580 l 537 809 l 692 809 l 692 654 l 1000 654 l 1000 463 l 617 463 l 617 617 l 463 617 l 463 772 l 309 772 l 309 1580 z "},"╱":{"ha":926,"x_min":0,"x_max":1000,"o":"m 772 1580 l 1000 1580 l 1000 1235 l 846 1235 l 846 926 l 692 926 l 692 617 l 537 617 l 537 309 l 383 309 l 383 0 l 229 0 l 229 -309 l 0 -309 l 0 37 l 154 37 l 154 346 l 309 346 l 309 654 l 463 654 l 463 963 l 617 963 l 617 1272 l 772 1272 l 772 1580 z "},"╲":{"ha":926,"x_min":0,"x_max":1000,"o":"m 0 1580 l 229 1580 l 229 1272 l 383 1272 l 383 963 l 537 963 l 537 654 l 692 654 l 692 346 l 846 346 l 846 37 l 1000 37 l 1000 -309 l 772 -309 l 772 0 l 617 0 l 617 309 l 463 309 l 463 617 l 309 617 l 309 926 l 154 926 l 154 1235 l 0 1235 l 0 1580 z "},"╳":{"ha":926,"x_min":0,"x_max":1000,"o":"m 0 1580 l 229 1580 l 229 1272 l 383 1272 l 383 963 l 617 963 l 617 1272 l 772 1272 l 772 1580 l 1000 1580 l 1000 1235 l 846 1235 l 846 926 l 692 926 l 692 346 l 846 346 l 846 37 l 1000 37 l 1000 -309 l 772 -309 l 772 0 l 617 0 l 617 309 l 383 309 l 383 0 l 229 0 l 229 -309 l 0 -309 l 0 37 l 154 37 l 154 346 l 309 346 l 309 926 l 154 926 l 154 1235 l 0 1235 l 0 1580 z "},"╴":{"ha":926,"x_min":0,"x_max":537,"o":"m 0 654 l 537 654 l 537 463 l 0 463 l 0 654 z "},"╵":{"ha":926,"x_min":309,"x_max":537,"o":"m 309 1580 l 537 1580 l 537 463 l 309 463 l 309 1580 z "},"╶":{"ha":926,"x_min":309,"x_max":1000,"o":"m 309 654 l 1000 654 l 1000 463 l 309 463 l 309 654 z "},"╷":{"ha":926,"x_min":309,"x_max":537,"o":"m 309 654 l 537 654 l 537 -309 l 309 -309 l 309 654 z "},"╸":{"ha":926,"x_min":0,"x_max":537,"o":"m 0 809 l 537 809 l 537 309 l 0 309 l 0 809 z "},"╹":{"ha":926,"x_min":154,"x_max":692,"o":"m 154 1580 l 692 1580 l 692 463 l 154 463 l 154 1580 z "},"╺":{"ha":926,"x_min":309,"x_max":1000,"o":"m 309 809 l 1000 809 l 1000 309 l 309 309 l 309 809 z "},"╻":{"ha":926,"x_min":154,"x_max":692,"o":"m 154 654 l 692 654 l 692 -309 l 154 -309 l 154 654 z "},"╼":{"ha":926,"x_min":0,"x_max":1000,"o":"m 309 809 l 1000 809 l 1000 309 l 309 309 l 309 463 l 0 463 l 0 654 l 309 654 l 309 809 z "},"╽":{"ha":926,"x_min":154,"x_max":692,"o":"m 309 1580 l 537 1580 l 537 654 l 692 654 l 692 -309 l 154 -309 l 154 654 l 309 654 l 309 1580 z "},"╾":{"ha":926,"x_min":0,"x_max":1000,"o":"m 0 809 l 537 809 l 537 654 l 1000 654 l 1000 463 l 537 463 l 537 309 l 0 309 l 0 809 z "},"╿":{"ha":926,"x_min":154,"x_max":692,"o":"m 154 1580 l 692 1580 l 692 463 l 537 463 l 537 -309 l 309 -309 l 309 463 l 154 463 l 154 1580 z "},"¡":{"ha":926,"x_min":309,"x_max":537,"o":"m 309 1117 l 537 1117 l 537 926 l 309 926 l 309 1117 m 309 809 l 537 809 l 537 0 l 309 0 l 309 809 z "},"¢":{"ha":926,"x_min":0,"x_max":846,"o":"m 309 1117 l 537 1117 l 537 963 l 692 963 l 692 809 l 846 809 l 846 617 l 617 617 l 617 772 l 537 772 l 537 346 l 617 346 l 617 500 l 846 500 l 846 309 l 692 309 l 692 154 l 537 154 l 537 0 l 309 0 l 309 154 l 154 154 l 154 309 l 0 309 l 0 809 l 154 809 l 154 963 l 309 963 l 309 1117 m 209 781 l 209 336 l 327 336 l 327 781 l 209 781 z "},"£":{"ha":926,"x_min":0,"x_max":846,"o":"m 309 1117 l 692 1117 l 692 963 l 846 963 l 846 772 l 617 772 l 617 926 l 383 926 l 383 654 l 537 654 l 537 463 l 383 463 l 383 309 l 229 309 l 229 192 l 846 192 l 846 0 l 0 0 l 0 346 l 154 346 l 154 463 l 0 463 l 0 654 l 154 654 l 154 963 l 309 963 l 309 1117 z "},"¤":{"ha":926,"x_min":0,"x_max":846,"o":"m 0 1117 l 229 1117 l 229 963 l 617 963 l 617 1117 l 846 1117 l 846 926 l 692 926 l 692 809 l 846 809 l 846 309 l 692 309 l 692 192 l 846 192 l 846 0 l 617 0 l 617 154 l 229 154 l 229 0 l 0 0 l 0 192 l 154 192 l 154 309 l 0 309 l 0 809 l 154 809 l 154 926 l 0 926 l 0 1117 m 209 781 l 209 336 l 635 336 l 635 781 l 209 781 z "},"¥":{"ha":926,"x_min":0,"x_max":846,"o":"m 0 1117 l 229 1117 l 229 963 l 383 963 l 383 809 l 463 809 l 463 963 l 617 963 l 617 1117 l 846 1117 l 846 926 l 692 926 l 692 772 l 537 772 l 537 654 l 846 654 l 846 463 l 537 463 l 537 346 l 846 346 l 846 154 l 537 154 l 537 0 l 309 0 l 309 154 l 0 154 l 0 346 l 309 346 l 309 463 l 0 463 l 0 654 l 309 654 l 309 772 l 154 772 l 154 926 l 0 926 l 0 1117 z "},"¦":{"ha":926,"x_min":309,"x_max":537,"o":"m 309 1272 l 537 1272 l 537 617 l 309 617 l 309 1272 m 309 500 l 537 500 l 537 -154 l 309 -154 l 309 500 z "},"§":{"ha":926,"x_min":154,"x_max":692,"o":"m 309 1117 l 692 1117 l 692 926 l 383 926 l 383 809 l 537 809 l 537 654 l 692 654 l 692 463 l 537 463 l 537 346 l 692 346 l 692 154 l 537 154 l 537 0 l 154 0 l 154 192 l 463 192 l 463 309 l 309 309 l 309 463 l 154 463 l 154 654 l 309 654 l 309 772 l 154 772 l 154 963 l 309 963 l 309 1117 m 364 627 l 364 491 l 481 491 l 481 627 l 364 627 z "},"¨":{"ha":926,"x_min":154,"x_max":692,"o":"m 154 1117 l 383 1117 l 383 926 l 154 926 l 154 1117 m 463 1117 l 692 1117 l 692 926 l 463 926 l 463 1117 z "},"ª":{"ha":926,"x_min":0,"x_max":537,"o":"m 154 1117 l 383 1117 l 383 963 l 537 963 l 537 617 l 154 617 l 154 772 l 0 772 l 0 963 l 154 963 l 154 1117 m 209 936 l 209 799 l 327 799 l 327 936 l 209 936 z "},"«":{"ha":926,"x_min":0,"x_max":1000,"o":"m 309 963 l 537 963 l 537 772 l 383 772 l 383 617 l 229 617 l 229 500 l 383 500 l 383 346 l 537 346 l 537 154 l 309 154 l 309 309 l 154 309 l 154 463 l 0 463 l 0 654 l 154 654 l 154 809 l 309 809 l 309 963 m 772 963 l 1000 963 l 1000 772 l 846 772 l 846 617 l 692 617 l 692 500 l 846 500 l 846 346 l 1000 346 l 1000 154 l 772 154 l 772 309 l 617 309 l 617 463 l 463 463 l 463 654 l 617 654 l 617 809 l 772 809 l 772 963 z "},"¬":{"ha":926,"x_min":0,"x_max":846,"o":"m 0 654 l 846 654 l 846 309 l 617 309 l 617 463 l 0 463 l 0 654 z "},"¯":{"ha":926,"x_min":0,"x_max":846,"o":"m 0 1426 l 846 1426 l 846 1235 l 0 1235 l 0 1426 z "},"°":{"ha":926,"x_min":0,"x_max":537,"o":"m 154 1117 l 383 1117 l 383 963 l 537 963 l 537 772 l 383 772 l 383 617 l 154 617 l 154 772 l 0 772 l 0 963 l 154 963 l 154 1117 m 209 936 l 209 799 l 327 799 l 327 936 l 209 936 z "},"±":{"ha":926,"x_min":154,"x_max":692,"o":"m 309 963 l 537 963 l 537 809 l 692 809 l 692 617 l 537 617 l 537 463 l 309 463 l 309 617 l 154 617 l 154 809 l 309 809 l 309 963 m 154 346 l 692 346 l 692 154 l 154 154 l 154 346 z "},"²":{"ha":926,"x_min":154,"x_max":692,"o":"m 154 1117 l 537 1117 l 537 963 l 692 963 l 692 772 l 537 772 l 537 654 l 692 654 l 692 463 l 154 463 l 154 654 l 309 654 l 309 809 l 463 809 l 463 926 l 154 926 l 154 1117 z "},"³":{"ha":926,"x_min":154,"x_max":692,"o":"m 154 1117 l 537 1117 l 537 963 l 692 963 l 692 617 l 537 617 l 537 463 l 154 463 l 154 654 l 463 654 l 463 772 l 309 772 l 309 926 l 154 926 l 154 1117 z "},"´":{"ha":926,"x_min":154,"x_max":537,"o":"m 309 1117 l 537 1117 l 537 926 l 383 926 l 383 772 l 154 772 l 154 963 l 309 963 l 309 1117 z "},"µ":{"ha":926,"x_min":0,"x_max":846,"o":"m 0 809 l 229 809 l 229 192 l 463 192 l 463 809 l 692 809 l 692 192 l 846 192 l 846 0 l 617 0 l 617 154 l 537 154 l 537 0 l 229 0 l 229 -154 l 0 -154 l 0 809 z "},"¶":{"ha":926,"x_min":0,"x_max":846,"o":"m 154 1117 l 846 1117 l 846 -154 l 617 -154 l 617 926 l 537 926 l 537 -154 l 309 -154 l 309 463 l 154 463 l 154 617 l 0 617 l 0 963 l 154 963 l 154 1117 z "},"·":{"ha":926,"x_min":309,"x_max":537,"o":"m 309 654 l 537 654 l 537 463 l 309 463 l 309 654 z "},"¸":{"ha":926,"x_min":309,"x_max":692,"o":"m 463 37 l 692 37 l 692 -154 l 537 -154 l 537 -309 l 309 -309 l 309 -117 l 463 -117 l 463 37 z "},"¹":{"ha":926,"x_min":154,"x_max":692,"o":"m 309 1117 l 537 1117 l 537 654 l 692 654 l 692 463 l 154 463 l 154 654 l 309 654 l 309 772 l 154 772 l 154 963 l 309 963 l 309 1117 z "},"º":{"ha":926,"x_min":0,"x_max":537,"o":"m 154 1117 l 383 1117 l 383 963 l 537 963 l 537 772 l 383 772 l 383 617 l 154 617 l 154 772 l 0 772 l 0 963 l 154 963 l 154 1117 m 209 936 l 209 799 l 327 799 l 327 936 l 209 936 z "},"»":{"ha":926,"x_min":0,"x_max":1000,"o":"m 0 963 l 229 963 l 229 809 l 383 809 l 383 654 l 537 654 l 537 463 l 383 463 l 383 309 l 229 309 l 229 154 l 0 154 l 0 346 l 154 346 l 154 500 l 309 500 l 309 617 l 154 617 l 154 772 l 0 772 l 0 963 m 463 963 l 692 963 l 692 809 l 846 809 l 846 654 l 1000 654 l 1000 463 l 846 463 l 846 309 l 692 309 l 692 154 l 463 154 l 463 346 l 617 346 l 617 500 l 772 500 l 772 617 l 617 617 l 617 772 l 463 772 l 463 963 z "},"¼":{"ha":926,"x_min":0,"x_max":846,"o":"m 309 1580 l 537 1580 l 537 1117 l 692 1117 l 692 926 l 154 926 l 154 1117 l 309 1117 l 309 1235 l 154 1235 l 154 1426 l 309 1426 l 309 1580 m 0 809 l 846 809 l 846 617 l 0 617 l 0 809 m 463 500 l 692 500 l 692 -154 l 463 -154 l 463 0 l 154 0 l 154 346 l 383 346 l 383 192 l 463 192 l 463 500 z "},"½":{"ha":926,"x_min":0,"x_max":846,"o":"m 309 1580 l 537 1580 l 537 1117 l 692 1117 l 692 926 l 154 926 l 154 1117 l 309 1117 l 309 1235 l 154 1235 l 154 1426 l 309 1426 l 309 1580 m 0 809 l 846 809 l 846 617 l 0 617 l 0 809 m 154 500 l 537 500 l 537 346 l 692 346 l 692 154 l 537 154 l 537 37 l 692 37 l 692 -154 l 154 -154 l 154 37 l 309 37 l 309 192 l 463 192 l 463 309 l 154 309 l 154 500 z "},"¾":{"ha":926,"x_min":0,"x_max":846,"o":"m 154 1580 l 537 1580 l 537 1426 l 692 1426 l 692 1080 l 537 1080 l 537 926 l 154 926 l 154 1117 l 463 1117 l 463 1235 l 309 1235 l 309 1389 l 154 1389 l 154 1580 m 0 809 l 846 809 l 846 617 l 0 617 l 0 809 m 463 500 l 692 500 l 692 -154 l 463 -154 l 463 0 l 154 0 l 154 346 l 383 346 l 383 192 l 463 192 l 463 500 z "},"¿":{"ha":926,"x_min":0,"x_max":846,"o":"m 309 1117 l 537 1117 l 537 926 l 309 926 l 309 1117 m 309 809 l 537 809 l 537 617 l 383 617 l 383 463 l 229 463 l 229 192 l 617 192 l 617 346 l 846 346 l 846 154 l 692 154 l 692 0 l 154 0 l 154 154 l 0 154 l 0 500 l 154 500 l 154 654 l 309 654 l 309 809 z "},"À":{"ha":926,"x_min":0,"x_max":846,"o":"m 154 1580 l 383 1580 l 383 1426 l 537 1426 l 537 1235 l 309 1235 l 309 1389 l 154 1389 l 154 1580 m 154 1117 l 692 1117 l 692 963 l 846 963 l 846 0 l 617 0 l 617 617 l 229 617 l 229 0 l 0 0 l 0 963 l 154 963 l 154 1117 m 209 936 l 209 799 l 635 799 l 635 936 l 209 936 z "},"Á":{"ha":926,"x_min":0,"x_max":846,"o":"m 463 1580 l 692 1580 l 692 1389 l 537 1389 l 537 1235 l 309 1235 l 309 1426 l 463 1426 l 463 1580 m 154 1117 l 692 1117 l 692 963 l 846 963 l 846 0 l 617 0 l 617 617 l 229 617 l 229 0 l 0 0 l 0 963 l 154 963 l 154 1117 m 209 936 l 209 799 l 635 799 l 635 936 l 209 936 z "},"Â":{"ha":926,"x_min":0,"x_max":846,"o":"m 309 1580 l 537 1580 l 537 1426 l 692 1426 l 692 1235 l 463 1235 l 463 1389 l 383 1389 l 383 1235 l 154 1235 l 154 1426 l 309 1426 l 309 1580 m 154 1117 l 692 1117 l 692 963 l 846 963 l 846 0 l 617 0 l 617 617 l 229 617 l 229 0 l 0 0 l 0 963 l 154 963 l 154 1117 m 209 936 l 209 799 l 635 799 l 635 936 l 209 936 z "},"Ã":{"ha":926,"x_min":0,"x_max":846,"o":"m 154 1580 l 537 1580 l 537 1426 l 617 1426 l 617 1580 l 846 1580 l 846 1389 l 692 1389 l 692 1235 l 463 1235 l 463 1389 l 229 1389 l 229 1235 l 0 1235 l 0 1426 l 154 1426 l 154 1580 m 154 1117 l 692 1117 l 692 963 l 846 963 l 846 0 l 617 0 l 617 617 l 229 617 l 229 0 l 0 0 l 0 963 l 154 963 l 154 1117 m 209 936 l 209 799 l 635 799 l 635 936 l 209 936 z "},"Ä":{"ha":926,"x_min":0,"x_max":846,"o":"m 154 1426 l 383 1426 l 383 1235 l 154 1235 l 154 1426 m 463 1426 l 692 1426 l 692 1235 l 463 1235 l 463 1426 m 154 1117 l 692 1117 l 692 963 l 846 963 l 846 0 l 617 0 l 617 617 l 229 617 l 229 0 l 0 0 l 0 963 l 154 963 l 154 1117 m 209 936 l 209 799 l 635 799 l 635 936 l 209 936 z "},"Å":{"ha":926,"x_min":0,"x_max":846,"o":"m 309 1580 l 537 1580 l 537 1426 l 692 1426 l 692 1235 l 537 1235 l 537 1117 l 692 1117 l 692 963 l 846 963 l 846 0 l 617 0 l 617 617 l 229 617 l 229 0 l 0 0 l 0 963 l 154 963 l 154 1117 l 309 1117 l 309 1235 l 154 1235 l 154 1426 l 309 1426 l 309 1580 m 364 1399 l 364 1262 l 481 1262 l 481 1399 l 364 1399 m 209 936 l 209 799 l 635 799 l 635 936 l 209 936 z "},"Æ":{"ha":926,"x_min":0,"x_max":846,"o":"m 154 1117 l 846 1117 l 846 926 l 537 926 l 537 809 l 692 809 l 692 617 l 537 617 l 537 192 l 846 192 l 846 0 l 309 0 l 309 617 l 229 617 l 229 0 l 0 0 l 0 963 l 154 963 l 154 1117 m 209 936 l 209 799 l 327 799 l 327 936 l 209 936 z "},"Ç":{"ha":926,"x_min":0,"x_max":846,"o":"m 154 1117 l 692 1117 l 692 963 l 846 963 l 846 772 l 617 772 l 617 926 l 229 926 l 229 192 l 617 192 l 617 346 l 846 346 l 846 154 l 692 154 l 692 -154 l 537 -154 l 537 -309 l 309 -309 l 309 -117 l 463 -117 l 463 0 l 154 0 l 154 154 l 0 154 l 0 963 l 154 963 l 154 1117 z "},"È":{"ha":926,"x_min":0,"x_max":846,"o":"m 154 1580 l 383 1580 l 383 1426 l 537 1426 l 537 1235 l 309 1235 l 309 1389 l 154 1389 l 154 1580 m 0 1117 l 846 1117 l 846 926 l 229 926 l 229 654 l 537 654 l 537 463 l 229 463 l 229 192 l 846 192 l 846 0 l 0 0 l 0 1117 z "},"É":{"ha":926,"x_min":0,"x_max":846,"o":"m 463 1580 l 692 1580 l 692 1389 l 537 1389 l 537 1235 l 309 1235 l 309 1426 l 463 1426 l 463 1580 m 0 1117 l 846 1117 l 846 926 l 229 926 l 229 654 l 537 654 l 537 463 l 229 463 l 229 192 l 846 192 l 846 0 l 0 0 l 0 1117 z "},"Ê":{"ha":926,"x_min":0,"x_max":846,"o":"m 309 1580 l 537 1580 l 537 1426 l 692 1426 l 692 1235 l 463 1235 l 463 1389 l 383 1389 l 383 1235 l 154 1235 l 154 1426 l 309 1426 l 309 1580 m 0 1117 l 846 1117 l 846 926 l 229 926 l 229 654 l 537 654 l 537 463 l 229 463 l 229 192 l 846 192 l 846 0 l 0 0 l 0 1117 z "},"Ë":{"ha":926,"x_min":0,"x_max":846,"o":"m 154 1426 l 383 1426 l 383 1235 l 154 1235 l 154 1426 m 463 1426 l 692 1426 l 692 1235 l 463 1235 l 463 1426 m 0 1117 l 846 1117 l 846 926 l 229 926 l 229 654 l 537 654 l 537 463 l 229 463 l 229 192 l 846 192 l 846 0 l 0 0 l 0 1117 z "},"Ì":{"ha":926,"x_min":154,"x_max":692,"o":"m 154 1580 l 383 1580 l 383 1426 l 537 1426 l 537 1235 l 309 1235 l 309 1389 l 154 1389 l 154 1580 m 154 1117 l 692 1117 l 692 926 l 537 926 l 537 192 l 692 192 l 692 0 l 154 0 l 154 192 l 309 192 l 309 926 l 154 926 l 154 1117 z "},"Í":{"ha":926,"x_min":154,"x_max":692,"o":"m 463 1580 l 692 1580 l 692 1389 l 537 1389 l 537 1235 l 309 1235 l 309 1426 l 463 1426 l 463 1580 m 154 1117 l 692 1117 l 692 926 l 537 926 l 537 192 l 692 192 l 692 0 l 154 0 l 154 192 l 309 192 l 309 926 l 154 926 l 154 1117 z "},"Î":{"ha":926,"x_min":154,"x_max":692,"o":"m 309 1580 l 537 1580 l 537 1426 l 692 1426 l 692 1235 l 463 1235 l 463 1389 l 383 1389 l 383 1235 l 154 1235 l 154 1426 l 309 1426 l 309 1580 m 154 1117 l 692 1117 l 692 926 l 537 926 l 537 192 l 692 192 l 692 0 l 154 0 l 154 192 l 309 192 l 309 926 l 154 926 l 154 1117 z "},"Ï":{"ha":926,"x_min":154,"x_max":692,"o":"m 154 1426 l 383 1426 l 383 1235 l 154 1235 l 154 1426 m 463 1426 l 692 1426 l 692 1235 l 463 1235 l 463 1426 m 154 1117 l 692 1117 l 692 926 l 537 926 l 537 192 l 692 192 l 692 0 l 154 0 l 154 192 l 309 192 l 309 926 l 154 926 l 154 1117 z "},"Ð":{"ha":926,"x_min":0,"x_max":846,"o":"m 154 1117 l 692 1117 l 692 963 l 846 963 l 846 154 l 692 154 l 692 0 l 154 0 l 154 463 l 0 463 l 0 654 l 154 654 l 154 1117 m 364 936 l 364 645 l 518 645 l 518 473 l 364 473 l 364 182 l 635 182 l 635 936 l 364 936 z "},"Ñ":{"ha":926,"x_min":0,"x_max":846,"o":"m 154 1580 l 537 1580 l 537 1426 l 617 1426 l 617 1580 l 846 1580 l 846 1389 l 692 1389 l 692 1235 l 463 1235 l 463 1389 l 229 1389 l 229 1235 l 0 1235 l 0 1426 l 154 1426 l 154 1580 m 0 1117 l 229 1117 l 229 963 l 383 963 l 383 809 l 537 809 l 537 654 l 617 654 l 617 1117 l 846 1117 l 846 0 l 617 0 l 617 463 l 463 463 l 463 617 l 309 617 l 309 772 l 229 772 l 229 0 l 0 0 l 0 1117 z "},"Ò":{"ha":926,"x_min":0,"x_max":846,"o":"m 154 1580 l 383 1580 l 383 1426 l 537 1426 l 537 1235 l 309 1235 l 309 1389 l 154 1389 l 154 1580 m 154 1117 l 692 1117 l 692 963 l 846 963 l 846 154 l 692 154 l 692 0 l 154 0 l 154 154 l 0 154 l 0 963 l 154 963 l 154 1117 m 209 936 l 209 182 l 635 182 l 635 936 l 209 936 z "},"Ó":{"ha":926,"x_min":0,"x_max":846,"o":"m 463 1580 l 692 1580 l 692 1389 l 537 1389 l 537 1235 l 309 1235 l 309 1426 l 463 1426 l 463 1580 m 154 1117 l 692 1117 l 692 963 l 846 963 l 846 154 l 692 154 l 692 0 l 154 0 l 154 154 l 0 154 l 0 963 l 154 963 l 154 1117 m 209 936 l 209 182 l 635 182 l 635 936 l 209 936 z "},"Ô":{"ha":926,"x_min":0,"x_max":846,"o":"m 309 1580 l 537 1580 l 537 1426 l 692 1426 l 692 1235 l 463 1235 l 463 1389 l 383 1389 l 383 1235 l 154 1235 l 154 1426 l 309 1426 l 309 1580 m 154 1117 l 692 1117 l 692 963 l 846 963 l 846 154 l 692 154 l 692 0 l 154 0 l 154 154 l 0 154 l 0 963 l 154 963 l 154 1117 m 209 936 l 209 182 l 635 182 l 635 936 l 209 936 z "},"Õ":{"ha":926,"x_min":0,"x_max":846,"o":"m 154 1580 l 537 1580 l 537 1426 l 617 1426 l 617 1580 l 846 1580 l 846 1389 l 692 1389 l 692 1235 l 463 1235 l 463 1389 l 229 1389 l 229 1235 l 0 1235 l 0 1426 l 154 1426 l 154 1580 m 154 1117 l 692 1117 l 692 963 l 846 963 l 846 154 l 692 154 l 692 0 l 154 0 l 154 154 l 0 154 l 0 963 l 154 963 l 154 1117 m 209 936 l 209 182 l 635 182 l 635 936 l 209 936 z "},"Ö":{"ha":926,"x_min":0,"x_max":846,"o":"m 154 1426 l 383 1426 l 383 1235 l 154 1235 l 154 1426 m 463 1426 l 692 1426 l 692 1235 l 463 1235 l 463 1426 m 154 1117 l 692 1117 l 692 963 l 846 963 l 846 154 l 692 154 l 692 0 l 154 0 l 154 154 l 0 154 l 0 963 l 154 963 l 154 1117 m 209 936 l 209 182 l 635 182 l 635 936 l 209 936 z "},"×":{"ha":926,"x_min":0,"x_max":846,"o":"m 0 963 l 229 963 l 229 809 l 383 809 l 383 654 l 463 654 l 463 809 l 617 809 l 617 963 l 846 963 l 846 772 l 692 772 l 692 617 l 537 617 l 537 500 l 692 500 l 692 346 l 846 346 l 846 154 l 617 154 l 617 309 l 463 309 l 463 463 l 383 463 l 383 309 l 229 309 l 229 154 l 0 154 l 0 346 l 154 346 l 154 500 l 309 500 l 309 617 l 154 617 l 154 772 l 0 772 l 0 963 z "},"Ø":{"ha":926,"x_min":0,"x_max":846,"o":"m 154 1117 l 692 1117 l 692 963 l 846 963 l 846 154 l 692 154 l 692 0 l 154 0 l 154 154 l 0 154 l 0 963 l 154 963 l 154 1117 m 209 936 l 209 491 l 327 491 l 327 645 l 481 645 l 481 936 l 209 936 m 518 627 l 518 473 l 364 473 l 364 182 l 635 182 l 635 627 l 518 627 z "},"Ù":{"ha":926,"x_min":0,"x_max":846,"o":"m 154 1580 l 383 1580 l 383 1426 l 537 1426 l 537 1235 l 309 1235 l 309 1389 l 154 1389 l 154 1580 m 0 1117 l 229 1117 l 229 192 l 617 192 l 617 1117 l 846 1117 l 846 154 l 692 154 l 692 0 l 154 0 l 154 154 l 0 154 l 0 1117 z "},"Ú":{"ha":926,"x_min":0,"x_max":846,"o":"m 463 1580 l 692 1580 l 692 1389 l 537 1389 l 537 1235 l 309 1235 l 309 1426 l 463 1426 l 463 1580 m 0 1117 l 229 1117 l 229 192 l 617 192 l 617 1117 l 846 1117 l 846 154 l 692 154 l 692 0 l 154 0 l 154 154 l 0 154 l 0 1117 z "},"Û":{"ha":926,"x_min":0,"x_max":846,"o":"m 309 1580 l 537 1580 l 537 1426 l 692 1426 l 692 1235 l 463 1235 l 463 1389 l 383 1389 l 383 1235 l 154 1235 l 154 1426 l 309 1426 l 309 1580 m 0 1117 l 229 1117 l 229 192 l 617 192 l 617 1117 l 846 1117 l 846 154 l 692 154 l 692 0 l 154 0 l 154 154 l 0 154 l 0 1117 z "},"Ü":{"ha":926,"x_min":0,"x_max":846,"o":"m 154 1426 l 383 1426 l 383 1235 l 154 1235 l 154 1426 m 463 1426 l 692 1426 l 692 1235 l 463 1235 l 463 1426 m 0 1117 l 229 1117 l 229 192 l 617 192 l 617 1117 l 846 1117 l 846 154 l 692 154 l 692 0 l 154 0 l 154 154 l 0 154 l 0 1117 z "},"Ý":{"ha":926,"x_min":0,"x_max":846,"o":"m 463 1580 l 692 1580 l 692 1389 l 537 1389 l 537 1235 l 309 1235 l 309 1426 l 463 1426 l 463 1580 m 0 1117 l 229 1117 l 229 809 l 383 809 l 383 654 l 463 654 l 463 809 l 617 809 l 617 1117 l 846 1117 l 846 772 l 692 772 l 692 617 l 537 617 l 537 0 l 309 0 l 309 617 l 154 617 l 154 772 l 0 772 l 0 1117 z "},"Þ":{"ha":926,"x_min":0,"x_max":692,"o":"m 0 1117 l 229 1117 l 229 963 l 537 963 l 537 809 l 692 809 l 692 309 l 537 309 l 537 154 l 229 154 l 229 0 l 0 0 l 0 1117 m 209 781 l 209 336 l 481 336 l 481 781 l 209 781 z "},"ß":{"ha":926,"x_min":0,"x_max":846,"o":"m 0 1117 l 537 1117 l 537 963 l 692 963 l 692 772 l 537 772 l 537 654 l 692 654 l 692 500 l 846 500 l 846 154 l 692 154 l 692 0 l 309 0 l 309 192 l 617 192 l 617 463 l 463 463 l 463 617 l 309 617 l 309 809 l 463 809 l 463 926 l 229 926 l 229 -154 l 0 -154 l 0 1117 z "},"à":{"ha":926,"x_min":0,"x_max":846,"o":"m 154 1272 l 383 1272 l 383 1117 l 537 1117 l 537 926 l 309 926 l 309 1080 l 154 1080 l 154 1272 m 154 809 l 692 809 l 692 654 l 846 654 l 846 0 l 154 0 l 154 154 l 0 154 l 0 346 l 154 346 l 154 500 l 617 500 l 617 617 l 154 617 l 154 809 m 209 318 l 209 182 l 635 182 l 635 318 l 209 318 z "},"á":{"ha":926,"x_min":0,"x_max":846,"o":"m 463 1272 l 692 1272 l 692 1080 l 537 1080 l 537 926 l 309 926 l 309 1117 l 463 1117 l 463 1272 m 154 809 l 692 809 l 692 654 l 846 654 l 846 0 l 154 0 l 154 154 l 0 154 l 0 346 l 154 346 l 154 500 l 617 500 l 617 617 l 154 617 l 154 809 m 209 318 l 209 182 l 635 182 l 635 318 l 209 318 z "},"â":{"ha":926,"x_min":0,"x_max":846,"o":"m 309 1272 l 537 1272 l 537 1117 l 692 1117 l 692 926 l 463 926 l 463 1080 l 383 1080 l 383 926 l 154 926 l 154 1117 l 309 1117 l 309 1272 m 154 809 l 692 809 l 692 654 l 846 654 l 846 0 l 154 0 l 154 154 l 0 154 l 0 346 l 154 346 l 154 500 l 617 500 l 617 617 l 154 617 l 154 809 m 209 318 l 209 182 l 635 182 l 635 318 l 209 318 z "}}}
